<ttFont>
    <TTGlyph name=".notdef" xMin="40" yMin="0" xMax="406" yMax="1264">
      <contour>
        <pt x="40" y="1264" on="1"/>
        <pt x="406" y="1264" on="1"/>
        <pt x="406" y="0" on="1"/>
        <pt x="40" y="0" on="1"/>
      </contour>
      <contour>
        <pt x="398" y="8" on="1"/>
        <pt x="398" y="1256" on="1"/>
        <pt x="48" y="1256" on="1"/>
        <pt x="48" y="8" on="1"/>
      </contour>
    </TTGlyph>
    <TTGlyph name="A" xMin="-31" yMin="-6" xMax="1485" yMax="1432">
      <contour>
        <pt x="901" y="408" on="1"/>
        <pt x="812" y="406" on="0"/>
        <pt x="579" y="397" on="0"/>
        <pt x="454" y="389" on="1"/>
        <pt x="418" y="285" on="1"/>
        <pt x="551" y="170" on="1"/>
        <pt x="543" y="-6" on="1"/>
        <pt x="477" y="1" on="0"/>
        <pt x="342" y="10" on="0"/>
        <pt x="256" y="10" on="1"/>
        <pt x="172" y="10" on="0"/>
        <pt x="34" y="2" on="0"/>
        <pt x="-31" y="-6" on="1"/>
        <pt x="-23" y="188" on="1"/>
        <pt x="-6" y="191" on="0"/>
        <pt x="23" y="195" on="0"/>
        <pt x="51" y="198" on="0"/>
        <pt x="79" y="200" on="0"/>
        <pt x="96" y="201" on="1"/>
        <pt x="625" y="1391" on="1"/>
        <pt x="881" y="1432" on="1"/>
        <pt x="1315" y="285" on="1"/>
        <pt x="1485" y="170" on="1"/>
        <pt x="1477" y="-6" on="1"/>
        <pt x="1411" y="0" on="0"/>
        <pt x="1243" y="10" on="0"/>
        <pt x="1149" y="10" on="1"/>
        <pt x="1049" y="10" on="0"/>
        <pt x="866" y="0" on="0"/>
        <pt x="791" y="-6" on="1"/>
        <pt x="799" y="188" on="1"/>
        <pt x="851" y="195" on="0"/>
        <pt x="927" y="201" on="0"/>
        <pt x="965" y="201" on="1"/>
      </contour>
      <contour>
        <pt x="539" y="635" on="1"/>
        <pt x="831" y="635" on="1"/>
        <pt x="713" y="1020" on="1"/>
        <pt x="672" y="1020" on="1"/>
      </contour>
    </TTGlyph>
    <TTGlyph name="AE" xMin="-55" yMin="-20" xMax="1972" yMax="1397">
      <contour>
        <pt x="1290" y="1178" on="1"/>
        <pt x="1274" y="805" on="1"/>
        <pt x="1673" y="821" on="1"/>
        <pt x="1663" y="573" on="1"/>
        <pt x="1266" y="600" on="1"/>
        <pt x="1260" y="223" on="1"/>
        <pt x="1663" y="252" on="1"/>
        <pt x="1729" y="479" on="1"/>
        <pt x="1968" y="479" on="1"/>
        <pt x="1909" y="-20" on="1"/>
        <pt x="1744" y="-6" on="0"/>
        <pt x="1387" y="10" on="0"/>
        <pt x="1196" y="10" on="1"/>
        <pt x="1137" y="10" on="0"/>
        <pt x="1026" y="8" on="0"/>
        <pt x="915" y="4" on="0"/>
        <pt x="802" y="-2" on="0"/>
        <pt x="741" y="-6" on="1"/>
        <pt x="750" y="188" on="1"/>
        <pt x="810" y="194" on="1"/>
        <pt x="836" y="196" on="0"/>
        <pt x="892" y="201" on="0"/>
        <pt x="915" y="201" on="1"/>
        <pt x="917" y="233" on="0"/>
        <pt x="923" y="341" on="0"/>
        <pt x="926" y="407" on="1"/>
        <pt x="847" y="405" on="0"/>
        <pt x="629" y="396" on="0"/>
        <pt x="500" y="386" on="1"/>
        <pt x="446" y="283" on="1"/>
        <pt x="580" y="170" on="1"/>
        <pt x="571" y="-6" on="1"/>
        <pt x="537" y="-3" on="0"/>
        <pt x="455" y="3" on="0"/>
        <pt x="368" y="7" on="0"/>
        <pt x="279" y="10" on="0"/>
        <pt x="238" y="10" on="1"/>
        <pt x="153" y="10" on="0"/>
        <pt x="8" y="0" on="0"/>
        <pt x="-55" y="-6" on="1"/>
        <pt x="-47" y="186" on="1"/>
        <pt x="-14" y="192" on="0"/>
        <pt x="35" y="199" on="0"/>
        <pt x="68" y="201" on="1"/>
        <pt x="610" y="1106" on="1"/>
        <pt x="418" y="1221" on="1"/>
        <pt x="426" y="1397" on="1"/>
        <pt x="467" y="1393" on="0"/>
        <pt x="583" y="1387" on="0"/>
        <pt x="717" y="1384" on="0"/>
        <pt x="863" y="1381" on="0"/>
        <pt x="1005" y="1380" on="0"/>
        <pt x="1137" y="1380" on="0"/>
        <pt x="1190" y="1380" on="1"/>
        <pt x="1265" y="1380" on="0"/>
        <pt x="1463" y="1381" on="0"/>
        <pt x="1675" y="1384" on="0"/>
        <pt x="1885" y="1391" on="0"/>
        <pt x="1972" y="1397" on="1"/>
        <pt x="1942" y="926" on="1"/>
        <pt x="1710" y="926" on="1"/>
        <pt x="1683" y="1139" on="1"/>
      </contour>
      <contour>
        <pt x="633" y="635" on="1"/>
        <pt x="935" y="635" on="1"/>
        <pt x="938" y="708" on="0"/>
        <pt x="943" y="857" on="0"/>
        <pt x="946" y="994" on="0"/>
        <pt x="949" y="1112" on="0"/>
        <pt x="950" y="1155" on="1"/>
        <pt x="909" y="1155" on="1"/>
      </contour>
    </TTGlyph>
    <TTGlyph name="Aacute" xMin="-31" yMin="-6" xMax="1485" yMax="1935">
      <component glyphName="A" x="0" y="0" flags="0x204"/>
      <component glyphName="acute.case" x="260" y="0" flags="0x4"/>
    </TTGlyph>
    <TTGlyph name="Acircumflex" xMin="-31" yMin="-6" xMax="1485" yMax="1888">
      <component glyphName="A" x="0" y="0" flags="0x204"/>
      <component glyphName="circumflex.case" x="111" y="0" flags="0x4"/>
    </TTGlyph>
    <TTGlyph name="Adieresis" xMin="-31" yMin="-6" xMax="1485" yMax="1827">
      <component glyphName="A" x="0" y="0" flags="0x204"/>
      <component glyphName="dieresis.case" x="84" y="0" flags="0x4"/>
    </TTGlyph>
    <TTGlyph name="Agrave" xMin="-31" yMin="-6" xMax="1485" yMax="1929">
      <component glyphName="A" x="0" y="0" flags="0x204"/>
      <component glyphName="grave.case" x="195" y="0" flags="0x4"/>
    </TTGlyph>
    <TTGlyph name="Aring" xMin="-31" yMin="-6" xMax="1485" yMax="1970">
      <component glyphName="A" x="0" y="0" flags="0x204"/>
      <component glyphName="ring.case" x="440" y="0" flags="0x4"/>
    </TTGlyph>
    <TTGlyph name="Atilde" xMin="-31" yMin="-6" xMax="1485" yMax="1847">
      <component glyphName="A" x="0" y="0" flags="0x204"/>
      <component glyphName="tilde.case" x="207" y="0" flags="0x4"/>
    </TTGlyph>
    <TTGlyph name="B" xMin="72" yMin="-20" xMax="1323" yMax="1399">
      <contour>
        <pt x="80" y="188" on="1"/>
        <pt x="106" y="191" on="0"/>
        <pt x="134" y="194" on="1"/>
        <pt x="158" y="196" on="0"/>
        <pt x="217" y="201" on="0"/>
        <pt x="246" y="201" on="1"/>
        <pt x="250" y="249" on="0"/>
        <pt x="258" y="396" on="0"/>
        <pt x="264" y="568" on="0"/>
        <pt x="270" y="751" on="0"/>
        <pt x="274" y="920" on="0"/>
        <pt x="276" y="1062" on="0"/>
        <pt x="276" y="1106" on="1"/>
        <pt x="106" y="1221" on="1"/>
        <pt x="115" y="1397" on="1"/>
        <pt x="158" y="1393" on="0"/>
        <pt x="206" y="1390" on="1"/>
        <pt x="247" y="1388" on="0"/>
        <pt x="349" y="1384" on="0"/>
        <pt x="403" y="1384" on="1"/>
        <pt x="503" y="1384" on="0"/>
        <pt x="674" y="1399" on="0"/>
        <pt x="754" y="1399" on="1"/>
        <pt x="871" y="1399" on="0"/>
        <pt x="1049" y="1349" on="0"/>
        <pt x="1167" y="1259" on="0"/>
        <pt x="1227" y="1132" on="0"/>
        <pt x="1227" y="1055" on="1"/>
        <pt x="1227" y="1006" on="0"/>
        <pt x="1206" y="914" on="0"/>
        <pt x="1170" y="834" on="0"/>
        <pt x="1124" y="770" on="0"/>
        <pt x="1099" y="749" on="1"/>
        <pt x="1148" y="728" on="0"/>
        <pt x="1231" y="668" on="0"/>
        <pt x="1290" y="585" on="0"/>
        <pt x="1323" y="477" on="0"/>
        <pt x="1323" y="408" on="1"/>
        <pt x="1323" y="315" on="0"/>
        <pt x="1255" y="158" on="0"/>
        <pt x="1123" y="44" on="0"/>
        <pt x="931" y="-20" on="0"/>
        <pt x="807" y="-20" on="1"/>
        <pt x="751" y="-20" on="0"/>
        <pt x="638" y="-11" on="0"/>
        <pt x="527" y="1" on="0"/>
        <pt x="418" y="10" on="0"/>
        <pt x="367" y="10" on="1"/>
        <pt x="298" y="10" on="0"/>
        <pt x="158" y="3" on="0"/>
        <pt x="72" y="-6" on="1"/>
      </contour>
      <contour>
        <pt x="954" y="406" on="1"/>
        <pt x="954" y="447" on="0"/>
        <pt x="926" y="516" on="0"/>
        <pt x="866" y="565" on="0"/>
        <pt x="773" y="592" on="0"/>
        <pt x="709" y="592" on="1"/>
        <pt x="681" y="592" on="0"/>
        <pt x="616" y="589" on="0"/>
        <pt x="596" y="586" on="1"/>
        <pt x="590" y="244" on="1"/>
        <pt x="608" y="232" on="0"/>
        <pt x="655" y="215" on="0"/>
        <pt x="703" y="205" on="0"/>
        <pt x="746" y="201" on="0"/>
        <pt x="758" y="201" on="1"/>
        <pt x="798" y="201" on="0"/>
        <pt x="869" y="226" on="0"/>
        <pt x="923" y="276" on="0"/>
        <pt x="954" y="353" on="0"/>
      </contour>
      <contour>
        <pt x="705" y="809" on="1"/>
        <pt x="739" y="809" on="0"/>
        <pt x="807" y="807" on="0"/>
        <pt x="841" y="804" on="1"/>
        <pt x="866" y="834" on="0"/>
        <pt x="901" y="918" on="0"/>
        <pt x="901" y="963" on="1"/>
        <pt x="901" y="1013" on="0"/>
        <pt x="869" y="1092" on="0"/>
        <pt x="810" y="1147" on="0"/>
        <pt x="726" y="1176" on="0"/>
        <pt x="674" y="1176" on="1"/>
        <pt x="666" y="1176" on="0"/>
        <pt x="629" y="1176" on="0"/>
        <pt x="621" y="1174" on="1"/>
        <pt x="618" y="1111" on="0"/>
        <pt x="615" y="1047" on="1"/>
        <pt x="612" y="992" on="0"/>
        <pt x="606" y="864" on="0"/>
        <pt x="604" y="807" on="1"/>
        <pt x="613" y="808" on="0"/>
        <pt x="640" y="809" on="0"/>
        <pt x="669" y="809" on="0"/>
        <pt x="696" y="809" on="0"/>
      </contour>
    </TTGlyph>
    <TTGlyph name="C" xMin="78" yMin="-41" xMax="1335" yMax="1432">
      <contour>
        <pt x="1067" y="926" on="1"/>
        <pt x="1038" y="1141" on="1"/>
        <pt x="1007" y="1170" on="0"/>
        <pt x="904" y="1210" on="0"/>
        <pt x="819" y="1210" on="1"/>
        <pt x="747" y="1210" on="0"/>
        <pt x="611" y="1147" on="0"/>
        <pt x="504" y="1023" on="0"/>
        <pt x="440" y="838" on="0"/>
        <pt x="440" y="715" on="1"/>
        <pt x="440" y="574" on="0"/>
        <pt x="528" y="380" on="0"/>
        <pt x="674" y="259" on="0"/>
        <pt x="862" y="205" on="0"/>
        <pt x="961" y="205" on="1"/>
        <pt x="1007" y="205" on="0"/>
        <pt x="1098" y="212" on="0"/>
        <pt x="1180" y="224" on="0"/>
        <pt x="1251" y="239" on="0"/>
        <pt x="1278" y="248" on="1"/>
        <pt x="1333" y="45" on="1"/>
        <pt x="1286" y="28" on="0"/>
        <pt x="1172" y="-3" on="0"/>
        <pt x="1046" y="-27" on="0"/>
        <pt x="910" y="-41" on="0"/>
        <pt x="842" y="-41" on="1"/>
        <pt x="669" y="-41" on="0"/>
        <pt x="387" y="51" on="0"/>
        <pt x="187" y="231" on="0"/>
        <pt x="78" y="496" on="0"/>
        <pt x="78" y="670" on="1"/>
        <pt x="78" y="850" on="0"/>
        <pt x="196" y="1134" on="0"/>
        <pt x="409" y="1329" on="0"/>
        <pt x="708" y="1432" on="0"/>
        <pt x="889" y="1432" on="1"/>
        <pt x="967" y="1432" on="0"/>
        <pt x="1093" y="1422" on="0"/>
        <pt x="1199" y="1406" on="0"/>
        <pt x="1291" y="1385" on="0"/>
        <pt x="1335" y="1374" on="1"/>
        <pt x="1319" y="926" on="1"/>
      </contour>
    </TTGlyph>
    <TTGlyph name="Ccedilla" xMin="78" yMin="-481" xMax="1335" yMax="1432">
      <contour>
        <pt x="991" y="-254" on="1"/>
        <pt x="991" y="-305" on="0"/>
        <pt x="946" y="-388" on="0"/>
        <pt x="872" y="-448" on="0"/>
        <pt x="776" y="-481" on="0"/>
        <pt x="725" y="-481" on="1"/>
        <pt x="693" y="-481" on="0"/>
        <pt x="623" y="-467" on="0"/>
        <pt x="594" y="-453" on="1"/>
        <pt x="598" y="-266" on="1"/>
        <pt x="643" y="-291" on="0"/>
        <pt x="742" y="-330" on="0"/>
        <pt x="790" y="-330" on="1"/>
        <pt x="813" y="-330" on="0"/>
        <pt x="845" y="-313" on="0"/>
        <pt x="852" y="-299" on="1"/>
        <pt x="820" y="-274" on="0"/>
        <pt x="735" y="-234" on="0"/>
        <pt x="684" y="-211" on="1"/>
        <pt x="713" y="-34" on="1"/>
        <pt x="567" y="-18" on="0"/>
        <pt x="333" y="88" on="0"/>
        <pt x="167" y="266" on="0"/>
        <pt x="78" y="513" on="0"/>
        <pt x="78" y="670" on="1"/>
        <pt x="78" y="850" on="0"/>
        <pt x="196" y="1134" on="0"/>
        <pt x="409" y="1329" on="0"/>
        <pt x="708" y="1432" on="0"/>
        <pt x="889" y="1432" on="1"/>
        <pt x="967" y="1432" on="0"/>
        <pt x="1093" y="1422" on="0"/>
        <pt x="1199" y="1406" on="0"/>
        <pt x="1291" y="1385" on="0"/>
        <pt x="1335" y="1374" on="1"/>
        <pt x="1319" y="926" on="1"/>
        <pt x="1067" y="926" on="1"/>
        <pt x="1038" y="1141" on="1"/>
        <pt x="1007" y="1170" on="0"/>
        <pt x="904" y="1210" on="0"/>
        <pt x="819" y="1210" on="1"/>
        <pt x="747" y="1210" on="0"/>
        <pt x="611" y="1147" on="0"/>
        <pt x="504" y="1023" on="0"/>
        <pt x="440" y="838" on="0"/>
        <pt x="440" y="715" on="1"/>
        <pt x="440" y="574" on="0"/>
        <pt x="528" y="380" on="0"/>
        <pt x="674" y="259" on="0"/>
        <pt x="862" y="205" on="0"/>
        <pt x="961" y="205" on="1"/>
        <pt x="1007" y="205" on="0"/>
        <pt x="1098" y="212" on="0"/>
        <pt x="1180" y="224" on="0"/>
        <pt x="1251" y="239" on="0"/>
        <pt x="1278" y="248" on="1"/>
        <pt x="1333" y="45" on="1"/>
        <pt x="1287" y="28" on="0"/>
        <pt x="1176" y="-2" on="0"/>
        <pt x="1053" y="-26" on="0"/>
        <pt x="922" y="-40" on="0"/>
        <pt x="855" y="-41" on="1"/>
        <pt x="847" y="-94" on="1"/>
        <pt x="875" y="-105" on="0"/>
        <pt x="928" y="-133" on="0"/>
        <pt x="967" y="-172" on="0"/>
        <pt x="991" y="-222" on="0"/>
      </contour>
    </TTGlyph>
    <TTGlyph name="D" xMin="72" yMin="-12" xMax="1550" yMax="1401">
      <contour>
        <pt x="80" y="188" on="1"/>
        <pt x="97" y="191" on="0"/>
        <pt x="131" y="195" on="0"/>
        <pt x="170" y="198" on="0"/>
        <pt x="217" y="200" on="0"/>
        <pt x="246" y="201" on="1"/>
        <pt x="251" y="284" on="0"/>
        <pt x="259" y="458" on="0"/>
        <pt x="266" y="631" on="0"/>
        <pt x="271" y="796" on="0"/>
        <pt x="274" y="941" on="0"/>
        <pt x="276" y="1063" on="0"/>
        <pt x="276" y="1106" on="1"/>
        <pt x="106" y="1221" on="1"/>
        <pt x="115" y="1397" on="1"/>
        <pt x="161" y="1391" on="0"/>
        <pt x="206" y="1387" on="1"/>
        <pt x="244" y="1383" on="0"/>
        <pt x="332" y="1378" on="0"/>
        <pt x="367" y="1378" on="1"/>
        <pt x="426" y="1378" on="0"/>
        <pt x="539" y="1385" on="0"/>
        <pt x="656" y="1394" on="0"/>
        <pt x="779" y="1401" on="0"/>
        <pt x="848" y="1401" on="1"/>
        <pt x="1012" y="1401" on="0"/>
        <pt x="1273" y="1306" on="0"/>
        <pt x="1454" y="1129" on="0"/>
        <pt x="1550" y="876" on="0"/>
        <pt x="1550" y="719" on="1"/>
        <pt x="1550" y="647" on="0"/>
        <pt x="1522" y="483" on="0"/>
        <pt x="1454" y="321" on="0"/>
        <pt x="1338" y="171" on="0"/>
        <pt x="1164" y="56" on="0"/>
        <pt x="923" y="-12" on="0"/>
        <pt x="764" y="-12" on="1"/>
        <pt x="714" y="-12" on="0"/>
        <pt x="614" y="-5" on="0"/>
        <pt x="510" y="3" on="0"/>
        <pt x="403" y="10" on="0"/>
        <pt x="346" y="10" on="1"/>
        <pt x="330" y="10" on="0"/>
        <pt x="271" y="8" on="0"/>
        <pt x="196" y="5" on="0"/>
        <pt x="112" y="-2" on="0"/>
        <pt x="72" y="-6" on="1"/>
      </contour>
      <contour>
        <pt x="770" y="1184" on="1"/>
        <pt x="727" y="1184" on="0"/>
        <pt x="642" y="1181" on="0"/>
        <pt x="616" y="1178" on="1"/>
        <pt x="586" y="250" on="1"/>
        <pt x="621" y="239" on="0"/>
        <pt x="738" y="217" on="0"/>
        <pt x="801" y="217" on="1"/>
        <pt x="834" y="217" on="0"/>
        <pt x="917" y="235" on="0"/>
        <pt x="1002" y="280" on="0"/>
        <pt x="1083" y="354" on="0"/>
        <pt x="1146" y="468" on="0"/>
        <pt x="1184" y="625" on="0"/>
        <pt x="1184" y="729" on="1"/>
        <pt x="1184" y="772" on="0"/>
        <pt x="1170" y="874" on="0"/>
        <pt x="1135" y="975" on="0"/>
        <pt x="1074" y="1069" on="0"/>
        <pt x="982" y="1141" on="0"/>
        <pt x="855" y="1184" on="0"/>
      </contour>
    </TTGlyph>
    <TTGlyph name="E" xMin="72" yMin="-20" xMax="1303" yMax="1397">
      <contour>
        <pt x="621" y="1178" on="1"/>
        <pt x="604" y="805" on="1"/>
        <pt x="1004" y="821" on="1"/>
        <pt x="993" y="573" on="1"/>
        <pt x="596" y="600" on="1"/>
        <pt x="590" y="223" on="1"/>
        <pt x="993" y="252" on="1"/>
        <pt x="1059" y="479" on="1"/>
        <pt x="1298" y="479" on="1"/>
        <pt x="1239" y="-20" on="1"/>
        <pt x="1074" y="-6" on="0"/>
        <pt x="717" y="10" on="0"/>
        <pt x="526" y="10" on="1"/>
        <pt x="409" y="10" on="0"/>
        <pt x="192" y="2" on="0"/>
        <pt x="72" y="-6" on="1"/>
        <pt x="80" y="188" on="1"/>
        <pt x="140" y="194" on="1"/>
        <pt x="166" y="196" on="0"/>
        <pt x="223" y="201" on="0"/>
        <pt x="246" y="201" on="1"/>
        <pt x="250" y="249" on="0"/>
        <pt x="258" y="396" on="0"/>
        <pt x="264" y="568" on="0"/>
        <pt x="270" y="751" on="0"/>
        <pt x="274" y="920" on="0"/>
        <pt x="276" y="1062" on="0"/>
        <pt x="276" y="1106" on="1"/>
        <pt x="106" y="1221" on="1"/>
        <pt x="115" y="1397" on="1"/>
        <pt x="240" y="1385" on="0"/>
        <pt x="511" y="1380" on="0"/>
        <pt x="657" y="1380" on="1"/>
        <pt x="793" y="1380" on="0"/>
        <pt x="1127" y="1386" on="0"/>
        <pt x="1303" y="1397" on="1"/>
        <pt x="1272" y="926" on="1"/>
        <pt x="1040" y="926" on="1"/>
        <pt x="1014" y="1139" on="1"/>
      </contour>
    </TTGlyph>
    <TTGlyph name="Eacute" xMin="72" yMin="-20" xMax="1303" yMax="1935">
      <component glyphName="E" x="0" y="0" flags="0x204"/>
      <component glyphName="acute.case" x="203" y="0" flags="0x4"/>
    </TTGlyph>
    <TTGlyph name="Ecircumflex" xMin="72" yMin="-20" xMax="1303" yMax="1888">
      <component glyphName="E" x="0" y="0" flags="0x204"/>
      <component glyphName="circumflex.case" x="131" y="0" flags="0x4"/>
    </TTGlyph>
    <TTGlyph name="Edieresis" xMin="72" yMin="-20" xMax="1303" yMax="1827">
      <component glyphName="E" x="0" y="0" flags="0x204"/>
      <component glyphName="dieresis.case" x="98" y="0" flags="0x4"/>
    </TTGlyph>
    <TTGlyph name="Egrave" xMin="72" yMin="-20" xMax="1303" yMax="1929">
      <component glyphName="E" x="0" y="0" flags="0x204"/>
      <component glyphName="grave.case" x="238" y="0" flags="0x4"/>
    </TTGlyph>
    <TTGlyph name="Eth" xMin="70" yMin="-12" xMax="1565" yMax="1401">
      <contour>
        <pt x="82" y="188" on="1"/>
        <pt x="99" y="191" on="0"/>
        <pt x="133" y="195" on="0"/>
        <pt x="172" y="198" on="0"/>
        <pt x="219" y="200" on="0"/>
        <pt x="248" y="201" on="1"/>
        <pt x="253" y="295" on="0"/>
        <pt x="262" y="489" on="0"/>
        <pt x="266" y="586" on="1"/>
        <pt x="217" y="583" on="0"/>
        <pt x="119" y="576" on="0"/>
        <pt x="70" y="571" on="1"/>
        <pt x="80" y="829" on="1"/>
        <pt x="274" y="829" on="1"/>
        <pt x="276" y="914" on="0"/>
        <pt x="279" y="1057" on="0"/>
        <pt x="279" y="1106" on="1"/>
        <pt x="109" y="1221" on="1"/>
        <pt x="117" y="1397" on="1"/>
        <pt x="182" y="1389" on="0"/>
        <pt x="307" y="1380" on="0"/>
        <pt x="369" y="1380" on="1"/>
        <pt x="428" y="1380" on="0"/>
        <pt x="541" y="1387" on="0"/>
        <pt x="658" y="1394" on="0"/>
        <pt x="781" y="1401" on="0"/>
        <pt x="850" y="1401" on="1"/>
        <pt x="1014" y="1401" on="0"/>
        <pt x="1279" y="1306" on="0"/>
        <pt x="1465" y="1129" on="0"/>
        <pt x="1565" y="876" on="0"/>
        <pt x="1565" y="719" on="1"/>
        <pt x="1565" y="647" on="0"/>
        <pt x="1535" y="483" on="0"/>
        <pt x="1464" y="321" on="0"/>
        <pt x="1345" y="171" on="0"/>
        <pt x="1167" y="56" on="0"/>
        <pt x="925" y="-12" on="0"/>
        <pt x="766" y="-12" on="1"/>
        <pt x="716" y="-12" on="0"/>
        <pt x="615" y="-5" on="0"/>
        <pt x="512" y="3" on="0"/>
        <pt x="405" y="10" on="0"/>
        <pt x="348" y="10" on="1"/>
        <pt x="332" y="10" on="0"/>
        <pt x="273" y="8" on="0"/>
        <pt x="198" y="4" on="0"/>
        <pt x="114" y="-2" on="0"/>
        <pt x="74" y="-6" on="1"/>
      </contour>
      <contour>
        <pt x="772" y="1184" on="1"/>
        <pt x="729" y="1184" on="0"/>
        <pt x="644" y="1181" on="0"/>
        <pt x="618" y="1178" on="1"/>
        <pt x="607" y="829" on="1"/>
        <pt x="838" y="829" on="1"/>
        <pt x="831" y="604" on="1"/>
        <pt x="817" y="603" on="0"/>
        <pt x="785" y="603" on="0"/>
        <pt x="767" y="603" on="1"/>
        <pt x="736" y="602" on="0"/>
        <pt x="651" y="602" on="0"/>
        <pt x="599" y="600" on="1"/>
        <pt x="588" y="250" on="1"/>
        <pt x="606" y="244" on="0"/>
        <pt x="654" y="233" on="0"/>
        <pt x="710" y="223" on="0"/>
        <pt x="771" y="217" on="0"/>
        <pt x="803" y="217" on="1"/>
        <pt x="836" y="217" on="0"/>
        <pt x="921" y="235" on="0"/>
        <pt x="1008" y="280" on="0"/>
        <pt x="1092" y="354" on="0"/>
        <pt x="1158" y="468" on="0"/>
        <pt x="1198" y="625" on="0"/>
        <pt x="1198" y="729" on="1"/>
        <pt x="1198" y="772" on="0"/>
        <pt x="1182" y="874" on="0"/>
        <pt x="1144" y="975" on="0"/>
        <pt x="1081" y="1069" on="0"/>
        <pt x="986" y="1141" on="0"/>
        <pt x="857" y="1184" on="0"/>
      </contour>
    </TTGlyph>
    <TTGlyph name="Euro" xMin="42" yMin="-41" xMax="1370" yMax="1432">
      <contour>
        <pt x="61" y="897" on="1"/>
        <pt x="274" y="897" on="1"/>
        <pt x="305" y="1030" on="0"/>
        <pt x="440" y="1230" on="0"/>
        <pt x="626" y="1364" on="0"/>
        <pt x="852" y="1432" on="0"/>
        <pt x="975" y="1432" on="1"/>
        <pt x="1042" y="1432" on="0"/>
        <pt x="1154" y="1422" on="0"/>
        <pt x="1249" y="1406" on="0"/>
        <pt x="1332" y="1385" on="0"/>
        <pt x="1370" y="1374" on="1"/>
        <pt x="1354" y="926" on="1"/>
        <pt x="1135" y="926" on="1"/>
        <pt x="1112" y="1139" on="1"/>
        <pt x="1089" y="1168" on="0"/>
        <pt x="1004" y="1210" on="0"/>
        <pt x="942" y="1210" on="1"/>
        <pt x="897" y="1210" on="0"/>
        <pt x="804" y="1170" on="0"/>
        <pt x="721" y="1092" on="0"/>
        <pt x="654" y="975" on="0"/>
        <pt x="635" y="897" on="1"/>
        <pt x="1024" y="897" on="1"/>
        <pt x="1016" y="725" on="1"/>
        <pt x="962" y="725" on="0"/>
        <pt x="898" y="724" on="1"/>
        <pt x="843" y="723" on="0"/>
        <pt x="698" y="721" on="0"/>
        <pt x="614" y="719" on="1"/>
        <pt x="614" y="715" on="1"/>
        <pt x="614" y="660" on="0"/>
        <pt x="620" y="612" on="1"/>
        <pt x="1012" y="612" on="1"/>
        <pt x="1006" y="440" on="1"/>
        <pt x="963" y="439" on="0"/>
        <pt x="910" y="439" on="1"/>
        <pt x="865" y="438" on="0"/>
        <pt x="744" y="438" on="0"/>
        <pt x="673" y="436" on="1"/>
        <pt x="705" y="374" on="0"/>
        <pt x="795" y="286" on="0"/>
        <pt x="899" y="230" on="0"/>
        <pt x="1012" y="205" on="0"/>
        <pt x="1067" y="205" on="1"/>
        <pt x="1144" y="205" on="0"/>
        <pt x="1278" y="231" on="0"/>
        <pt x="1323" y="248" on="1"/>
        <pt x="1370" y="45" on="1"/>
        <pt x="1329" y="28" on="0"/>
        <pt x="1231" y="-3" on="0"/>
        <pt x="1121" y="-27" on="0"/>
        <pt x="1003" y="-41" on="0"/>
        <pt x="944" y="-41" on="1"/>
        <pt x="824" y="-41" on="0"/>
        <pt x="611" y="18" on="0"/>
        <pt x="439" y="135" on="0"/>
        <pt x="314" y="309" on="0"/>
        <pt x="281" y="423" on="1"/>
        <pt x="217" y="420" on="0"/>
        <pt x="96" y="413" on="0"/>
        <pt x="42" y="408" on="1"/>
        <pt x="50" y="612" on="1"/>
        <pt x="250" y="612" on="1"/>
        <pt x="249" y="623" on="0"/>
        <pt x="249" y="646" on="0"/>
        <pt x="249" y="658" on="1"/>
        <pt x="249" y="670" on="0"/>
        <pt x="249" y="693" on="0"/>
        <pt x="250" y="706" on="1"/>
        <pt x="197" y="703" on="0"/>
        <pt x="98" y="696" on="0"/>
        <pt x="53" y="692" on="1"/>
      </contour>
    </TTGlyph>
    <TTGlyph name="F" xMin="72" yMin="-6" xMax="1282" yMax="1397">
      <contour>
        <pt x="80" y="188" on="1"/>
        <pt x="142" y="194" on="1"/>
        <pt x="168" y="196" on="0"/>
        <pt x="225" y="201" on="0"/>
        <pt x="246" y="201" on="1"/>
        <pt x="250" y="249" on="0"/>
        <pt x="258" y="396" on="0"/>
        <pt x="264" y="568" on="0"/>
        <pt x="270" y="751" on="0"/>
        <pt x="274" y="920" on="0"/>
        <pt x="276" y="1062" on="0"/>
        <pt x="276" y="1106" on="1"/>
        <pt x="106" y="1221" on="1"/>
        <pt x="115" y="1397" on="1"/>
        <pt x="240" y="1385" on="0"/>
        <pt x="505" y="1380" on="0"/>
        <pt x="647" y="1380" on="1"/>
        <pt x="779" y="1380" on="0"/>
        <pt x="1107" y="1386" on="0"/>
        <pt x="1282" y="1397" on="1"/>
        <pt x="1251" y="926" on="1"/>
        <pt x="1020" y="926" on="1"/>
        <pt x="993" y="1141" on="1"/>
        <pt x="621" y="1178" on="1"/>
        <pt x="602" y="764" on="1"/>
        <pt x="1004" y="780" on="1"/>
        <pt x="993" y="532" on="1"/>
        <pt x="596" y="559" on="1"/>
        <pt x="592" y="285" on="1"/>
        <pt x="762" y="170" on="1"/>
        <pt x="754" y="-6" on="1"/>
        <pt x="666" y="2" on="0"/>
        <pt x="492" y="10" on="0"/>
        <pt x="395" y="10" on="1"/>
        <pt x="307" y="10" on="0"/>
        <pt x="147" y="3" on="0"/>
        <pt x="72" y="-6" on="1"/>
      </contour>
    </TTGlyph>
    <TTGlyph name="G" xMin="76" yMin="-41" xMax="1561" yMax="1432">
      <contour>
        <pt x="1102" y="926" on="1"/>
        <pt x="1073" y="1141" on="1"/>
        <pt x="1055" y="1156" on="0"/>
        <pt x="1009" y="1181" on="0"/>
        <pt x="950" y="1199" on="0"/>
        <pt x="876" y="1210" on="0"/>
        <pt x="829" y="1210" on="1"/>
        <pt x="761" y="1210" on="0"/>
        <pt x="623" y="1150" on="0"/>
        <pt x="511" y="1026" on="0"/>
        <pt x="440" y="837" on="0"/>
        <pt x="440" y="707" on="1"/>
        <pt x="440" y="587" on="0"/>
        <pt x="506" y="393" on="0"/>
        <pt x="619" y="256" on="0"/>
        <pt x="770" y="182" on="0"/>
        <pt x="854" y="182" on="1"/>
        <pt x="911" y="182" on="0"/>
        <pt x="1007" y="202" on="0"/>
        <pt x="1042" y="225" on="1"/>
        <pt x="1051" y="455" on="1"/>
        <pt x="877" y="569" on="1"/>
        <pt x="885" y="745" on="1"/>
        <pt x="941" y="741" on="0"/>
        <pt x="998" y="737" on="1"/>
        <pt x="1047" y="734" on="0"/>
        <pt x="1159" y="729" on="0"/>
        <pt x="1208" y="729" on="1"/>
        <pt x="1250" y="729" on="0"/>
        <pt x="1331" y="730" on="0"/>
        <pt x="1416" y="733" on="0"/>
        <pt x="1508" y="740" on="0"/>
        <pt x="1561" y="745" on="1"/>
        <pt x="1552" y="551" on="1"/>
        <pt x="1525" y="548" on="0"/>
        <pt x="1497" y="545" on="1"/>
        <pt x="1473" y="543" on="0"/>
        <pt x="1415" y="539" on="0"/>
        <pt x="1386" y="539" on="1"/>
        <pt x="1370" y="45" on="1"/>
        <pt x="1323" y="28" on="0"/>
        <pt x="1200" y="-3" on="0"/>
        <pt x="1068" y="-27" on="0"/>
        <pt x="940" y="-41" on="0"/>
        <pt x="889" y="-41" on="1"/>
        <pt x="716" y="-41" on="0"/>
        <pt x="419" y="51" on="0"/>
        <pt x="200" y="231" on="0"/>
        <pt x="76" y="498" on="0"/>
        <pt x="76" y="672" on="1"/>
        <pt x="76" y="854" on="0"/>
        <pt x="202" y="1137" on="0"/>
        <pt x="425" y="1331" on="0"/>
        <pt x="732" y="1432" on="0"/>
        <pt x="913" y="1432" on="1"/>
        <pt x="987" y="1432" on="0"/>
        <pt x="1115" y="1422" on="0"/>
        <pt x="1227" y="1406" on="0"/>
        <pt x="1325" y="1385" on="0"/>
        <pt x="1370" y="1374" on="1"/>
        <pt x="1354" y="926" on="1"/>
      </contour>
    </TTGlyph>
    <TTGlyph name="H" xMin="72" yMin="-6" xMax="1688" yMax="1397">
      <contour>
        <pt x="1645" y="-6" on="1"/>
        <pt x="1603" y="-2" on="0"/>
        <pt x="1530" y="4" on="0"/>
        <pt x="1456" y="8" on="0"/>
        <pt x="1376" y="10" on="0"/>
        <pt x="1325" y="10" on="1"/>
        <pt x="1297" y="10" on="0"/>
        <pt x="1219" y="9" on="0"/>
        <pt x="1124" y="6" on="0"/>
        <pt x="1018" y="0" on="0"/>
        <pt x="963" y="-6" on="1"/>
        <pt x="973" y="188" on="1"/>
        <pt x="999" y="191" on="0"/>
        <pt x="1027" y="194" on="1"/>
        <pt x="1051" y="196" on="0"/>
        <pt x="1110" y="201" on="0"/>
        <pt x="1139" y="201" on="1"/>
        <pt x="1141" y="233" on="0"/>
        <pt x="1146" y="322" on="0"/>
        <pt x="1151" y="426" on="0"/>
        <pt x="1155" y="543" on="0"/>
        <pt x="1157" y="603" on="1"/>
        <pt x="1116" y="603" on="0"/>
        <pt x="995" y="600" on="0"/>
        <pt x="848" y="596" on="0"/>
        <pt x="682" y="589" on="0"/>
        <pt x="596" y="583" on="1"/>
        <pt x="594" y="489" on="0"/>
        <pt x="592" y="333" on="0"/>
        <pt x="592" y="285" on="1"/>
        <pt x="762" y="170" on="1"/>
        <pt x="754" y="-6" on="1"/>
        <pt x="711" y="-2" on="0"/>
        <pt x="637" y="4" on="0"/>
        <pt x="564" y="8" on="0"/>
        <pt x="483" y="10" on="0"/>
        <pt x="432" y="10" on="1"/>
        <pt x="404" y="10" on="0"/>
        <pt x="325" y="9" on="0"/>
        <pt x="231" y="6" on="0"/>
        <pt x="126" y="0" on="0"/>
        <pt x="72" y="-6" on="1"/>
        <pt x="80" y="188" on="1"/>
        <pt x="106" y="191" on="0"/>
        <pt x="134" y="194" on="1"/>
        <pt x="158" y="196" on="0"/>
        <pt x="217" y="201" on="0"/>
        <pt x="246" y="201" on="1"/>
        <pt x="250" y="249" on="0"/>
        <pt x="256" y="396" on="0"/>
        <pt x="263" y="568" on="0"/>
        <pt x="268" y="751" on="0"/>
        <pt x="272" y="920" on="0"/>
        <pt x="274" y="1062" on="0"/>
        <pt x="274" y="1106" on="1"/>
        <pt x="104" y="1221" on="1"/>
        <pt x="115" y="1397" on="1"/>
        <pt x="157" y="1393" on="0"/>
        <pt x="229" y="1387" on="0"/>
        <pt x="302" y="1382" on="0"/>
        <pt x="382" y="1380" on="0"/>
        <pt x="432" y="1380" on="1"/>
        <pt x="460" y="1380" on="0"/>
        <pt x="540" y="1381" on="0"/>
        <pt x="635" y="1384" on="0"/>
        <pt x="741" y="1391" on="0"/>
        <pt x="797" y="1397" on="1"/>
        <pt x="786" y="1202" on="1"/>
        <pt x="760" y="1199" on="0"/>
        <pt x="732" y="1196" on="1"/>
        <pt x="708" y="1194" on="0"/>
        <pt x="649" y="1190" on="0"/>
        <pt x="621" y="1190" on="1"/>
        <pt x="618" y="1160" on="0"/>
        <pt x="613" y="1081" on="0"/>
        <pt x="609" y="988" on="0"/>
        <pt x="605" y="883" on="0"/>
        <pt x="603" y="829" on="1"/>
        <pt x="1163" y="829" on="1"/>
        <pt x="1165" y="915" on="0"/>
        <pt x="1167" y="1061" on="0"/>
        <pt x="1167" y="1106" on="1"/>
        <pt x="997" y="1221" on="1"/>
        <pt x="1006" y="1397" on="1"/>
        <pt x="1049" y="1393" on="0"/>
        <pt x="1122" y="1387" on="0"/>
        <pt x="1195" y="1382" on="0"/>
        <pt x="1275" y="1380" on="0"/>
        <pt x="1325" y="1380" on="1"/>
        <pt x="1353" y="1380" on="0"/>
        <pt x="1433" y="1381" on="0"/>
        <pt x="1527" y="1384" on="0"/>
        <pt x="1633" y="1391" on="0"/>
        <pt x="1688" y="1397" on="1"/>
        <pt x="1679" y="1202" on="1"/>
        <pt x="1652" y="1199" on="0"/>
        <pt x="1624" y="1196" on="1"/>
        <pt x="1600" y="1194" on="0"/>
        <pt x="1542" y="1190" on="0"/>
        <pt x="1513" y="1190" on="1"/>
        <pt x="1509" y="1142" on="0"/>
        <pt x="1502" y="995" on="0"/>
        <pt x="1496" y="823" on="0"/>
        <pt x="1490" y="639" on="0"/>
        <pt x="1487" y="470" on="0"/>
        <pt x="1485" y="329" on="0"/>
        <pt x="1485" y="285" on="1"/>
        <pt x="1655" y="170" on="1"/>
      </contour>
    </TTGlyph>
    <TTGlyph name="I" xMin="72" yMin="-6" xMax="797" yMax="1397">
      <contour>
        <pt x="754" y="-6" on="1"/>
        <pt x="711" y="-2" on="0"/>
        <pt x="637" y="4" on="0"/>
        <pt x="564" y="8" on="0"/>
        <pt x="483" y="10" on="0"/>
        <pt x="432" y="10" on="1"/>
        <pt x="404" y="10" on="0"/>
        <pt x="325" y="9" on="0"/>
        <pt x="231" y="6" on="0"/>
        <pt x="126" y="0" on="0"/>
        <pt x="72" y="-6" on="1"/>
        <pt x="80" y="188" on="1"/>
        <pt x="106" y="191" on="0"/>
        <pt x="134" y="194" on="1"/>
        <pt x="158" y="196" on="0"/>
        <pt x="217" y="201" on="0"/>
        <pt x="246" y="201" on="1"/>
        <pt x="250" y="249" on="0"/>
        <pt x="256" y="396" on="0"/>
        <pt x="263" y="568" on="0"/>
        <pt x="268" y="751" on="0"/>
        <pt x="272" y="920" on="0"/>
        <pt x="274" y="1062" on="0"/>
        <pt x="274" y="1106" on="1"/>
        <pt x="104" y="1221" on="1"/>
        <pt x="115" y="1397" on="1"/>
        <pt x="157" y="1393" on="0"/>
        <pt x="229" y="1387" on="0"/>
        <pt x="302" y="1382" on="0"/>
        <pt x="382" y="1380" on="0"/>
        <pt x="432" y="1380" on="1"/>
        <pt x="460" y="1380" on="0"/>
        <pt x="540" y="1381" on="0"/>
        <pt x="635" y="1384" on="0"/>
        <pt x="741" y="1391" on="0"/>
        <pt x="797" y="1397" on="1"/>
        <pt x="786" y="1202" on="1"/>
        <pt x="760" y="1199" on="0"/>
        <pt x="732" y="1196" on="1"/>
        <pt x="708" y="1194" on="0"/>
        <pt x="649" y="1190" on="0"/>
        <pt x="621" y="1190" on="1"/>
        <pt x="617" y="1142" on="0"/>
        <pt x="609" y="995" on="0"/>
        <pt x="603" y="823" on="0"/>
        <pt x="598" y="639" on="0"/>
        <pt x="594" y="470" on="0"/>
        <pt x="592" y="329" on="0"/>
        <pt x="592" y="285" on="1"/>
        <pt x="762" y="170" on="1"/>
      </contour>
    </TTGlyph>
    <TTGlyph name="Iacute" xMin="72" yMin="-6" xMax="806" yMax="1935">
      <component glyphName="I" x="0" y="0" flags="0x204"/>
      <component glyphName="acute.case" x="-62" y="0" flags="0x4"/>
    </TTGlyph>
    <TTGlyph name="Icircumflex" xMin="72" yMin="-6" xMax="797" yMax="1888">
      <component glyphName="I" x="0" y="0" flags="0x204"/>
      <component glyphName="circumflex.case" x="-187" y="0" flags="0x4"/>
    </TTGlyph>
    <TTGlyph name="Idieresis" xMin="72" yMin="-6" xMax="829" yMax="1827">
      <component glyphName="I" x="0" y="0" flags="0x204"/>
      <component glyphName="dieresis.case" x="-226" y="0" flags="0x4"/>
    </TTGlyph>
    <TTGlyph name="Igrave" xMin="72" yMin="-6" xMax="797" yMax="1929">
      <component glyphName="I" x="0" y="0" flags="0x204"/>
      <component glyphName="grave.case" x="-108" y="0" flags="0x4"/>
    </TTGlyph>
    <TTGlyph name="J" xMin="-113" yMin="-561" xMax="770" yMax="1397">
      <contour>
        <pt x="598" y="1190" on="1"/>
        <pt x="595" y="1154" on="0"/>
        <pt x="589" y="1036" on="0"/>
        <pt x="582" y="888" on="0"/>
        <pt x="576" y="720" on="0"/>
        <pt x="570" y="548" on="0"/>
        <pt x="564" y="381" on="0"/>
        <pt x="560" y="235" on="0"/>
        <pt x="556" y="119" on="0"/>
        <pt x="555" y="84" on="1"/>
        <pt x="552" y="8" on="0"/>
        <pt x="498" y="-147" on="0"/>
        <pt x="372" y="-307" on="0"/>
        <pt x="163" y="-474" on="0"/>
        <pt x="6" y="-561" on="1"/>
        <pt x="-113" y="-375" on="1"/>
        <pt x="-32" y="-307" on="0"/>
        <pt x="35" y="-233" on="1"/>
        <pt x="63" y="-202" on="0"/>
        <pt x="120" y="-130" on="0"/>
        <pt x="167" y="-54" on="0"/>
        <pt x="201" y="24" on="0"/>
        <pt x="207" y="63" on="1"/>
        <pt x="212" y="101" on="0"/>
        <pt x="222" y="217" on="0"/>
        <pt x="230" y="357" on="0"/>
        <pt x="238" y="515" on="0"/>
        <pt x="243" y="675" on="0"/>
        <pt x="248" y="830" on="0"/>
        <pt x="251" y="965" on="0"/>
        <pt x="252" y="1073" on="0"/>
        <pt x="252" y="1106" on="1"/>
        <pt x="82" y="1221" on="1"/>
        <pt x="88" y="1397" on="1"/>
        <pt x="132" y="1393" on="0"/>
        <pt x="205" y="1387" on="0"/>
        <pt x="278" y="1382" on="0"/>
        <pt x="358" y="1380" on="0"/>
        <pt x="410" y="1380" on="1"/>
        <pt x="437" y="1380" on="0"/>
        <pt x="516" y="1381" on="0"/>
        <pt x="610" y="1384" on="0"/>
        <pt x="716" y="1391" on="0"/>
        <pt x="770" y="1397" on="1"/>
        <pt x="764" y="1202" on="1"/>
        <pt x="737" y="1199" on="0"/>
        <pt x="709" y="1196" on="1"/>
        <pt x="685" y="1194" on="0"/>
        <pt x="627" y="1190" on="0"/>
      </contour>
    </TTGlyph>
    <TTGlyph name="K" xMin="72" yMin="-6" xMax="1536" yMax="1397">
      <contour>
        <pt x="668" y="659" on="1"/>
        <pt x="670" y="727" on="1"/>
        <pt x="1028" y="1192" on="1"/>
        <pt x="1008" y="1194" on="0"/>
        <pt x="965" y="1196" on="0"/>
        <pt x="946" y="1198" on="1"/>
        <pt x="903" y="1202" on="1"/>
        <pt x="911" y="1397" on="1"/>
        <pt x="956" y="1391" on="0"/>
        <pt x="1100" y="1380" on="0"/>
        <pt x="1194" y="1380" on="1"/>
        <pt x="1276" y="1380" on="0"/>
        <pt x="1433" y="1389" on="0"/>
        <pt x="1493" y="1397" on="1"/>
        <pt x="1483" y="1204" on="1"/>
        <pt x="1268" y="1108" on="1"/>
        <pt x="983" y="786" on="1"/>
        <pt x="1325" y="285" on="1"/>
        <pt x="1536" y="170" on="1"/>
        <pt x="1530" y="0" on="1"/>
        <pt x="1114" y="0" on="1"/>
      </contour>
      <contour>
        <pt x="754" y="-6" on="1"/>
        <pt x="710" y="-2" on="0"/>
        <pt x="637" y="4" on="0"/>
        <pt x="564" y="8" on="0"/>
        <pt x="483" y="10" on="0"/>
        <pt x="432" y="10" on="1"/>
        <pt x="404" y="10" on="0"/>
        <pt x="325" y="9" on="0"/>
        <pt x="231" y="6" on="0"/>
        <pt x="126" y="0" on="0"/>
        <pt x="72" y="-6" on="1"/>
        <pt x="80" y="188" on="1"/>
        <pt x="134" y="194" on="1"/>
        <pt x="158" y="196" on="0"/>
        <pt x="217" y="201" on="0"/>
        <pt x="246" y="201" on="1"/>
        <pt x="250" y="249" on="0"/>
        <pt x="257" y="396" on="0"/>
        <pt x="263" y="568" on="0"/>
        <pt x="269" y="751" on="0"/>
        <pt x="272" y="920" on="0"/>
        <pt x="274" y="1062" on="0"/>
        <pt x="274" y="1106" on="1"/>
        <pt x="104" y="1221" on="1"/>
        <pt x="115" y="1397" on="1"/>
        <pt x="157" y="1393" on="0"/>
        <pt x="229" y="1387" on="0"/>
        <pt x="302" y="1382" on="0"/>
        <pt x="382" y="1380" on="0"/>
        <pt x="432" y="1380" on="1"/>
        <pt x="460" y="1380" on="0"/>
        <pt x="540" y="1381" on="0"/>
        <pt x="635" y="1384" on="0"/>
        <pt x="741" y="1391" on="0"/>
        <pt x="797" y="1397" on="1"/>
        <pt x="786" y="1202" on="1"/>
        <pt x="732" y="1196" on="1"/>
        <pt x="708" y="1194" on="0"/>
        <pt x="649" y="1190" on="0"/>
        <pt x="621" y="1190" on="1"/>
        <pt x="617" y="1142" on="0"/>
        <pt x="610" y="995" on="0"/>
        <pt x="603" y="823" on="0"/>
        <pt x="598" y="639" on="0"/>
        <pt x="594" y="470" on="0"/>
        <pt x="592" y="329" on="0"/>
        <pt x="592" y="285" on="1"/>
        <pt x="762" y="170" on="1"/>
      </contour>
    </TTGlyph>
    <TTGlyph name="L" xMin="72" yMin="-20" xMax="1296" yMax="1397">
      <contour>
        <pt x="80" y="188" on="1"/>
        <pt x="109" y="191" on="0"/>
        <pt x="138" y="194" on="1"/>
        <pt x="163" y="196" on="0"/>
        <pt x="221" y="201" on="0"/>
        <pt x="246" y="201" on="1"/>
        <pt x="250" y="249" on="0"/>
        <pt x="256" y="396" on="0"/>
        <pt x="263" y="568" on="0"/>
        <pt x="268" y="751" on="0"/>
        <pt x="272" y="920" on="0"/>
        <pt x="274" y="1062" on="0"/>
        <pt x="274" y="1106" on="1"/>
        <pt x="104" y="1221" on="1"/>
        <pt x="115" y="1397" on="1"/>
        <pt x="169" y="1393" on="0"/>
        <pt x="257" y="1387" on="0"/>
        <pt x="338" y="1382" on="0"/>
        <pt x="418" y="1380" on="0"/>
        <pt x="463" y="1380" on="1"/>
        <pt x="535" y="1380" on="0"/>
        <pt x="695" y="1387" on="0"/>
        <pt x="797" y="1397" on="1"/>
        <pt x="786" y="1202" on="1"/>
        <pt x="754" y="1197" on="0"/>
        <pt x="694" y="1192" on="0"/>
        <pt x="671" y="1191" on="1"/>
        <pt x="644" y="1189" on="0"/>
        <pt x="621" y="1190" on="1"/>
        <pt x="618" y="1163" on="0"/>
        <pt x="614" y="1091" on="0"/>
        <pt x="610" y="988" on="0"/>
        <pt x="606" y="846" on="0"/>
        <pt x="600" y="649" on="0"/>
        <pt x="593" y="390" on="0"/>
        <pt x="588" y="223" on="1"/>
        <pt x="973" y="252" on="1"/>
        <pt x="1036" y="479" on="1"/>
        <pt x="1296" y="479" on="1"/>
        <pt x="1237" y="-20" on="1"/>
        <pt x="1081" y="-6" on="0"/>
        <pt x="748" y="8" on="0"/>
        <pt x="555" y="10" on="1"/>
        <pt x="434" y="8" on="0"/>
        <pt x="192" y="2" on="0"/>
        <pt x="72" y="-6" on="1"/>
      </contour>
    </TTGlyph>
    <TTGlyph name="M" xMin="8" yMin="-6" xMax="1925" yMax="1432">
      <contour>
        <pt x="1925" y="170" on="1"/>
        <pt x="1919" y="-6" on="1"/>
        <pt x="1853" y="0" on="0"/>
        <pt x="1703" y="10" on="0"/>
        <pt x="1610" y="10" on="1"/>
        <pt x="1513" y="10" on="0"/>
        <pt x="1333" y="2" on="0"/>
        <pt x="1257" y="-6" on="1"/>
        <pt x="1266" y="188" on="1"/>
        <pt x="1318" y="195" on="0"/>
        <pt x="1394" y="199" on="0"/>
        <pt x="1432" y="201" on="1"/>
        <pt x="1380" y="850" on="1"/>
        <pt x="1339" y="850" on="1"/>
        <pt x="1026" y="55" on="1"/>
        <pt x="825" y="55" on="1"/>
        <pt x="500" y="850" on="1"/>
        <pt x="459" y="850" on="1"/>
        <pt x="444" y="285" on="1"/>
        <pt x="614" y="170" on="1"/>
        <pt x="606" y="-6" on="1"/>
        <pt x="538" y="0" on="0"/>
        <pt x="383" y="10" on="0"/>
        <pt x="301" y="10" on="1"/>
        <pt x="220" y="10" on="0"/>
        <pt x="71" y="0" on="0"/>
        <pt x="8" y="-6" on="1"/>
        <pt x="16" y="188" on="1"/>
        <pt x="33" y="191" on="0"/>
        <pt x="76" y="195" on="0"/>
        <pt x="122" y="199" on="0"/>
        <pt x="165" y="201" on="0"/>
        <pt x="182" y="201" on="1"/>
        <pt x="330" y="1391" on="1"/>
        <pt x="608" y="1432" on="1"/>
        <pt x="969" y="571" on="1"/>
        <pt x="1010" y="571" on="1"/>
        <pt x="1331" y="1391" on="1"/>
        <pt x="1659" y="1432" on="1"/>
        <pt x="1763" y="285" on="1"/>
      </contour>
    </TTGlyph>
    <TTGlyph name="N" xMin="53" yMin="-41" xMax="1602" yMax="1432">
      <contour>
        <pt x="662" y="170" on="1"/>
        <pt x="653" y="-6" on="1"/>
        <pt x="585" y="0" on="0"/>
        <pt x="426" y="10" on="0"/>
        <pt x="344" y="10" on="1"/>
        <pt x="263" y="10" on="0"/>
        <pt x="116" y="0" on="0"/>
        <pt x="53" y="-6" on="1"/>
        <pt x="61" y="188" on="1"/>
        <pt x="95" y="193" on="0"/>
        <pt x="174" y="201" on="0"/>
        <pt x="209" y="201" on="1"/>
        <pt x="231" y="844" on="1"/>
        <pt x="238" y="999" on="0"/>
        <pt x="244" y="1233" on="0"/>
        <pt x="244" y="1323" on="1"/>
        <pt x="244" y="1391" on="1"/>
        <pt x="442" y="1432" on="1"/>
        <pt x="1167" y="543" on="1"/>
        <pt x="1204" y="549" on="1"/>
        <pt x="1184" y="1108" on="1"/>
        <pt x="993" y="1223" on="1"/>
        <pt x="1001" y="1399" on="1"/>
        <pt x="1068" y="1391" on="0"/>
        <pt x="1227" y="1380" on="0"/>
        <pt x="1309" y="1380" on="1"/>
        <pt x="1390" y="1380" on="0"/>
        <pt x="1537" y="1389" on="0"/>
        <pt x="1602" y="1397" on="1"/>
        <pt x="1593" y="1202" on="1"/>
        <pt x="1559" y="1197" on="0"/>
        <pt x="1482" y="1192" on="0"/>
        <pt x="1450" y="1192" on="1"/>
        <pt x="1425" y="557" on="1"/>
        <pt x="1422" y="464" on="0"/>
        <pt x="1418" y="313" on="0"/>
        <pt x="1416" y="183" on="0"/>
        <pt x="1415" y="63" on="0"/>
        <pt x="1415" y="2" on="1"/>
        <pt x="1208" y="-41" on="1"/>
        <pt x="485" y="848" on="1"/>
        <pt x="449" y="842" on="1"/>
        <pt x="471" y="285" on="1"/>
      </contour>
    </TTGlyph>
    <TTGlyph name="Ntilde" xMin="53" yMin="-41" xMax="1602" yMax="1847">
      <component glyphName="N" x="0" y="0" flags="0x204"/>
      <component glyphName="tilde.case" x="350" y="0" flags="0x4"/>
    </TTGlyph>
    <TTGlyph name="O" xMin="76" yMin="-41" xMax="1530" yMax="1432">
      <contour>
        <pt x="76" y="688" on="1"/>
        <pt x="76" y="843" on="0"/>
        <pt x="184" y="1115" on="0"/>
        <pt x="385" y="1316" on="0"/>
        <pt x="671" y="1432" on="0"/>
        <pt x="848" y="1432" on="1"/>
        <pt x="1014" y="1432" on="0"/>
        <pt x="1268" y="1316" on="0"/>
        <pt x="1441" y="1121" on="0"/>
        <pt x="1530" y="865" on="0"/>
        <pt x="1530" y="725" on="1"/>
        <pt x="1530" y="620" on="0"/>
        <pt x="1479" y="425" on="0"/>
        <pt x="1386" y="255" on="0"/>
        <pt x="1254" y="114" on="0"/>
        <pt x="1092" y="14" on="0"/>
        <pt x="904" y="-41" on="0"/>
        <pt x="801" y="-41" on="1"/>
        <pt x="615" y="-41" on="0"/>
        <pt x="342" y="75" on="0"/>
        <pt x="163" y="274" on="0"/>
        <pt x="76" y="539" on="0"/>
      </contour>
      <contour>
        <pt x="791" y="1210" on="1"/>
        <pt x="702" y="1210" on="0"/>
        <pt x="570" y="1124" on="0"/>
        <pt x="483" y="987" on="0"/>
        <pt x="440" y="818" on="0"/>
        <pt x="440" y="735" on="1"/>
        <pt x="440" y="623" on="0"/>
        <pt x="492" y="422" on="0"/>
        <pt x="589" y="271" on="0"/>
        <pt x="726" y="182" on="0"/>
        <pt x="811" y="182" on="1"/>
        <pt x="900" y="182" on="0"/>
        <pt x="1032" y="267" on="0"/>
        <pt x="1119" y="404" on="0"/>
        <pt x="1161" y="574" on="0"/>
        <pt x="1161" y="659" on="1"/>
        <pt x="1161" y="770" on="0"/>
        <pt x="1110" y="970" on="0"/>
        <pt x="1014" y="1121" on="0"/>
        <pt x="877" y="1210" on="0"/>
      </contour>
    </TTGlyph>
    <TTGlyph name="OE" xMin="76" yMin="-41" xMax="2114" yMax="1432">
      <contour>
        <pt x="762" y="1210" on="1"/>
        <pt x="678" y="1210" on="0"/>
        <pt x="556" y="1123" on="0"/>
        <pt x="477" y="985" on="0"/>
        <pt x="440" y="815" on="0"/>
        <pt x="440" y="731" on="1"/>
        <pt x="440" y="617" on="0"/>
        <pt x="486" y="417" on="0"/>
        <pt x="573" y="268" on="0"/>
        <pt x="701" y="182" on="0"/>
        <pt x="782" y="182" on="1"/>
        <pt x="867" y="182" on="0"/>
        <pt x="989" y="265" on="0"/>
        <pt x="1067" y="398" on="0"/>
        <pt x="1104" y="567" on="0"/>
        <pt x="1104" y="653" on="1"/>
        <pt x="1104" y="766" on="0"/>
        <pt x="1059" y="968" on="0"/>
        <pt x="972" y="1121" on="0"/>
        <pt x="844" y="1210" on="0"/>
      </contour>
      <contour>
        <pt x="76" y="688" on="1"/>
        <pt x="76" y="791" on="0"/>
        <pt x="124" y="982" on="0"/>
        <pt x="214" y="1148" on="0"/>
        <pt x="344" y="1283" on="0"/>
        <pt x="509" y="1379" on="0"/>
        <pt x="707" y="1432" on="0"/>
        <pt x="819" y="1432" on="1"/>
        <pt x="891" y="1432" on="0"/>
        <pt x="1008" y="1409" on="0"/>
        <pt x="1065" y="1386" on="1"/>
        <pt x="1133" y="1382" on="0"/>
        <pt x="1331" y="1380" on="0"/>
        <pt x="1468" y="1380" on="1"/>
        <pt x="1602" y="1380" on="0"/>
        <pt x="1938" y="1386" on="0"/>
        <pt x="2114" y="1397" on="1"/>
        <pt x="2083" y="926" on="1"/>
        <pt x="1851" y="926" on="1"/>
        <pt x="1825" y="1139" on="1"/>
        <pt x="1432" y="1178" on="1"/>
        <pt x="1415" y="805" on="1"/>
        <pt x="1815" y="821" on="1"/>
        <pt x="1804" y="573" on="1"/>
        <pt x="1407" y="600" on="1"/>
        <pt x="1401" y="223" on="1"/>
        <pt x="1804" y="252" on="1"/>
        <pt x="1870" y="479" on="1"/>
        <pt x="2109" y="479" on="1"/>
        <pt x="2050" y="-20" on="1"/>
        <pt x="1885" y="-6" on="0"/>
        <pt x="1528" y="10" on="0"/>
        <pt x="1337" y="10" on="1"/>
        <pt x="1219" y="10" on="0"/>
        <pt x="1052" y="3" on="0"/>
        <pt x="995" y="0" on="1"/>
        <pt x="944" y="-19" on="0"/>
        <pt x="831" y="-41" on="0"/>
        <pt x="774" y="-41" on="1"/>
        <pt x="598" y="-41" on="0"/>
        <pt x="336" y="75" on="0"/>
        <pt x="162" y="274" on="0"/>
        <pt x="76" y="539" on="0"/>
      </contour>
    </TTGlyph>
    <TTGlyph name="Oacute" xMin="76" yMin="-41" xMax="1530" yMax="1935">
      <component glyphName="O" x="0" y="0" flags="0x204"/>
      <component glyphName="acute.case" x="309" y="0" flags="0x4"/>
    </TTGlyph>
    <TTGlyph name="Ocircumflex" xMin="76" yMin="-41" xMax="1530" yMax="1888">
      <component glyphName="O" x="0" y="0" flags="0x204"/>
      <component glyphName="circumflex.case" x="174" y="0" flags="0x4"/>
    </TTGlyph>
    <TTGlyph name="Odieresis" xMin="76" yMin="-41" xMax="1530" yMax="1827">
      <component glyphName="O" x="0" y="0" flags="0x204"/>
      <component glyphName="dieresis.case" x="156" y="0" flags="0x4"/>
    </TTGlyph>
    <TTGlyph name="Ograve" xMin="76" yMin="-41" xMax="1530" yMax="1929">
      <component glyphName="O" x="0" y="0" flags="0x204"/>
      <component glyphName="grave.case" x="264" y="0" flags="0x4"/>
    </TTGlyph>
    <TTGlyph name="Oslash" xMin="76" yMin="-188" xMax="1530" yMax="1546">
      <contour>
        <pt x="76" y="688" on="1"/>
        <pt x="76" y="843" on="0"/>
        <pt x="184" y="1115" on="0"/>
        <pt x="385" y="1316" on="0"/>
        <pt x="671" y="1432" on="0"/>
        <pt x="848" y="1432" on="1"/>
        <pt x="938" y="1432" on="0"/>
        <pt x="1093" y="1397" on="0"/>
        <pt x="1160" y="1365" on="1"/>
        <pt x="1280" y="1546" on="1"/>
        <pt x="1407" y="1458" on="1"/>
        <pt x="1289" y="1281" on="1"/>
        <pt x="1348" y="1231" on="0"/>
        <pt x="1438" y="1107" on="0"/>
        <pt x="1499" y="964" on="0"/>
        <pt x="1530" y="807" on="0"/>
        <pt x="1530" y="725" on="1"/>
        <pt x="1530" y="620" on="0"/>
        <pt x="1479" y="425" on="0"/>
        <pt x="1386" y="255" on="0"/>
        <pt x="1254" y="114" on="0"/>
        <pt x="1092" y="14" on="0"/>
        <pt x="904" y="-41" on="0"/>
        <pt x="801" y="-41" on="1"/>
        <pt x="698" y="-41" on="0"/>
        <pt x="525" y="-5" on="0"/>
        <pt x="453" y="28" on="1"/>
        <pt x="309" y="-188" on="1"/>
        <pt x="186" y="-104" on="1"/>
        <pt x="325" y="106" on="1"/>
        <pt x="262" y="156" on="0"/>
        <pt x="168" y="284" on="0"/>
        <pt x="106" y="433" on="0"/>
        <pt x="76" y="599" on="0"/>
      </contour>
      <contour>
        <pt x="791" y="1210" on="1"/>
        <pt x="702" y="1210" on="0"/>
        <pt x="570" y="1124" on="0"/>
        <pt x="483" y="987" on="0"/>
        <pt x="440" y="818" on="0"/>
        <pt x="440" y="735" on="1"/>
        <pt x="440" y="638" on="0"/>
        <pt x="478" y="464" on="0"/>
        <pt x="514" y="392" on="1"/>
        <pt x="999" y="1123" on="1"/>
        <pt x="956" y="1164" on="0"/>
        <pt x="852" y="1210" on="0"/>
      </contour>
      <contour>
        <pt x="1161" y="659" on="1"/>
        <pt x="1161" y="750" on="0"/>
        <pt x="1126" y="918" on="0"/>
        <pt x="1093" y="988" on="1"/>
        <pt x="610" y="263" on="1"/>
        <pt x="652" y="225" on="0"/>
        <pt x="752" y="182" on="0"/>
        <pt x="811" y="182" on="1"/>
        <pt x="900" y="182" on="0"/>
        <pt x="1032" y="267" on="0"/>
        <pt x="1119" y="404" on="0"/>
        <pt x="1161" y="574" on="0"/>
      </contour>
    </TTGlyph>
    <TTGlyph name="Otilde" xMin="76" yMin="-41" xMax="1530" yMax="1847">
      <component glyphName="O" x="0" y="0" flags="0x204"/>
      <component glyphName="tilde.case" x="248" y="0" flags="0x4"/>
    </TTGlyph>
    <TTGlyph name="P" xMin="72" yMin="-6" xMax="1298" yMax="1399">
      <contour>
        <pt x="115" y="1397" on="1"/>
        <pt x="185" y="1390" on="0"/>
        <pt x="317" y="1380" on="0"/>
        <pt x="383" y="1380" on="1"/>
        <pt x="448" y="1380" on="0"/>
        <pt x="553" y="1386" on="0"/>
        <pt x="647" y="1393" on="0"/>
        <pt x="737" y="1399" on="0"/>
        <pt x="788" y="1399" on="1"/>
        <pt x="913" y="1399" on="0"/>
        <pt x="1104" y="1342" on="0"/>
        <pt x="1233" y="1234" on="0"/>
        <pt x="1298" y="1080" on="0"/>
        <pt x="1298" y="983" on="1"/>
        <pt x="1298" y="906" on="0"/>
        <pt x="1255" y="777" on="0"/>
        <pt x="1180" y="674" on="0"/>
        <pt x="1081" y="597" on="0"/>
        <pt x="968" y="546" on="0"/>
        <pt x="848" y="520" on="0"/>
        <pt x="791" y="520" on="1"/>
        <pt x="734" y="520" on="0"/>
        <pt x="682" y="532" on="1"/>
        <pt x="692" y="750" on="1"/>
        <pt x="711" y="746" on="0"/>
        <pt x="729" y="745" on="0"/>
        <pt x="741" y="745" on="1"/>
        <pt x="781" y="745" on="0"/>
        <pt x="852" y="775" on="0"/>
        <pt x="904" y="831" on="0"/>
        <pt x="934" y="912" on="0"/>
        <pt x="934" y="963" on="1"/>
        <pt x="934" y="1066" on="0"/>
        <pt x="800" y="1176" on="0"/>
        <pt x="686" y="1176" on="1"/>
        <pt x="669" y="1176" on="0"/>
        <pt x="632" y="1173" on="0"/>
        <pt x="621" y="1171" on="1"/>
        <pt x="617" y="1123" on="0"/>
        <pt x="610" y="984" on="0"/>
        <pt x="603" y="822" on="0"/>
        <pt x="598" y="648" on="0"/>
        <pt x="594" y="483" on="0"/>
        <pt x="592" y="337" on="0"/>
        <pt x="592" y="285" on="1"/>
        <pt x="762" y="170" on="1"/>
        <pt x="754" y="-6" on="1"/>
        <pt x="711" y="-2" on="0"/>
        <pt x="638" y="4" on="0"/>
        <pt x="565" y="8" on="0"/>
        <pt x="485" y="10" on="0"/>
        <pt x="434" y="10" on="1"/>
        <pt x="406" y="10" on="0"/>
        <pt x="326" y="9" on="0"/>
        <pt x="231" y="6" on="0"/>
        <pt x="126" y="0" on="0"/>
        <pt x="72" y="-6" on="1"/>
        <pt x="80" y="188" on="1"/>
        <pt x="134" y="194" on="1"/>
        <pt x="158" y="196" on="0"/>
        <pt x="217" y="201" on="0"/>
        <pt x="246" y="201" on="1"/>
        <pt x="250" y="249" on="0"/>
        <pt x="258" y="396" on="0"/>
        <pt x="264" y="568" on="0"/>
        <pt x="270" y="751" on="0"/>
        <pt x="274" y="920" on="0"/>
        <pt x="276" y="1062" on="0"/>
        <pt x="276" y="1106" on="1"/>
        <pt x="106" y="1221" on="1"/>
      </contour>
    </TTGlyph>
    <TTGlyph name="Q" xMin="76" yMin="-594" xMax="1530" yMax="1432">
      <contour>
        <pt x="406" y="-367" on="1"/>
        <pt x="348" y="-184" on="1"/>
        <pt x="382" y="-166" on="0"/>
        <pt x="458" y="-136" on="0"/>
        <pt x="533" y="-113" on="0"/>
        <pt x="600" y="-100" on="0"/>
        <pt x="625" y="-100" on="1"/>
        <pt x="664" y="-100" on="0"/>
        <pt x="759" y="-124" on="0"/>
        <pt x="861" y="-161" on="0"/>
        <pt x="965" y="-208" on="0"/>
        <pt x="1061" y="-253" on="0"/>
        <pt x="1144" y="-292" on="0"/>
        <pt x="1174" y="-303" on="1"/>
        <pt x="1360" y="-233" on="1"/>
        <pt x="1438" y="-397" on="1"/>
        <pt x="1378" y="-462" on="0"/>
        <pt x="1229" y="-569" on="0"/>
        <pt x="1149" y="-594" on="1"/>
        <pt x="1104" y="-594" on="0"/>
        <pt x="1003" y="-561" on="0"/>
        <pt x="898" y="-509" on="0"/>
        <pt x="796" y="-444" on="0"/>
        <pt x="703" y="-381" on="0"/>
        <pt x="625" y="-327" on="0"/>
        <pt x="598" y="-311" on="1"/>
      </contour>
      <contour>
        <pt x="76" y="688" on="1"/>
        <pt x="76" y="843" on="0"/>
        <pt x="184" y="1115" on="0"/>
        <pt x="385" y="1316" on="0"/>
        <pt x="671" y="1432" on="0"/>
        <pt x="848" y="1432" on="1"/>
        <pt x="1014" y="1432" on="0"/>
        <pt x="1268" y="1316" on="0"/>
        <pt x="1441" y="1121" on="0"/>
        <pt x="1530" y="865" on="0"/>
        <pt x="1530" y="725" on="1"/>
        <pt x="1530" y="620" on="0"/>
        <pt x="1479" y="425" on="0"/>
        <pt x="1386" y="255" on="0"/>
        <pt x="1254" y="114" on="0"/>
        <pt x="1092" y="14" on="0"/>
        <pt x="904" y="-41" on="0"/>
        <pt x="801" y="-41" on="1"/>
        <pt x="615" y="-41" on="0"/>
        <pt x="342" y="75" on="0"/>
        <pt x="163" y="274" on="0"/>
        <pt x="76" y="539" on="0"/>
      </contour>
      <contour>
        <pt x="791" y="1210" on="1"/>
        <pt x="702" y="1210" on="0"/>
        <pt x="570" y="1124" on="0"/>
        <pt x="483" y="987" on="0"/>
        <pt x="440" y="818" on="0"/>
        <pt x="440" y="735" on="1"/>
        <pt x="440" y="623" on="0"/>
        <pt x="492" y="422" on="0"/>
        <pt x="589" y="271" on="0"/>
        <pt x="726" y="182" on="0"/>
        <pt x="811" y="182" on="1"/>
        <pt x="900" y="182" on="0"/>
        <pt x="1032" y="267" on="0"/>
        <pt x="1119" y="404" on="0"/>
        <pt x="1161" y="574" on="0"/>
        <pt x="1161" y="659" on="1"/>
        <pt x="1161" y="770" on="0"/>
        <pt x="1110" y="970" on="0"/>
        <pt x="1014" y="1121" on="0"/>
        <pt x="877" y="1210" on="0"/>
      </contour>
    </TTGlyph>
    <TTGlyph name="R" xMin="72" yMin="-6" xMax="1448" yMax="1399">
      <contour>
        <pt x="719" y="538" on="1"/>
        <pt x="708" y="537" on="0"/>
        <pt x="687" y="537" on="0"/>
        <pt x="676" y="537" on="1"/>
        <pt x="654" y="537" on="0"/>
        <pt x="612" y="538" on="0"/>
        <pt x="598" y="539" on="1"/>
        <pt x="596" y="460" on="0"/>
        <pt x="594" y="327" on="0"/>
        <pt x="594" y="285" on="1"/>
        <pt x="762" y="170" on="1"/>
        <pt x="754" y="-6" on="1"/>
        <pt x="711" y="-2" on="0"/>
        <pt x="630" y="4" on="0"/>
        <pt x="547" y="8" on="0"/>
        <pt x="459" y="10" on="0"/>
        <pt x="408" y="10" on="1"/>
        <pt x="351" y="10" on="0"/>
        <pt x="181" y="6" on="0"/>
        <pt x="72" y="-6" on="1"/>
        <pt x="80" y="188" on="1"/>
        <pt x="134" y="194" on="1"/>
        <pt x="158" y="196" on="0"/>
        <pt x="217" y="201" on="0"/>
        <pt x="246" y="201" on="1"/>
        <pt x="250" y="249" on="0"/>
        <pt x="258" y="396" on="0"/>
        <pt x="264" y="568" on="0"/>
        <pt x="270" y="751" on="0"/>
        <pt x="274" y="920" on="0"/>
        <pt x="276" y="1062" on="0"/>
        <pt x="276" y="1106" on="1"/>
        <pt x="106" y="1221" on="1"/>
        <pt x="115" y="1397" on="1"/>
        <pt x="192" y="1390" on="0"/>
        <pt x="332" y="1380" on="0"/>
        <pt x="404" y="1380" on="1"/>
        <pt x="489" y="1380" on="0"/>
        <pt x="686" y="1399" on="0"/>
        <pt x="786" y="1399" on="1"/>
        <pt x="911" y="1399" on="0"/>
        <pt x="1103" y="1341" on="0"/>
        <pt x="1232" y="1233" on="0"/>
        <pt x="1298" y="1078" on="0"/>
        <pt x="1298" y="981" on="1"/>
        <pt x="1298" y="912" on="0"/>
        <pt x="1262" y="797" on="0"/>
        <pt x="1198" y="705" on="0"/>
        <pt x="1109" y="635" on="0"/>
        <pt x="1055" y="610" on="1"/>
        <pt x="1237" y="285" on="1"/>
        <pt x="1448" y="170" on="1"/>
        <pt x="1440" y="0" on="1"/>
        <pt x="1004" y="0" on="1"/>
      </contour>
      <contour>
        <pt x="627" y="1174" on="1"/>
        <pt x="624" y="1139" on="0"/>
        <pt x="617" y="1045" on="0"/>
        <pt x="611" y="934" on="0"/>
        <pt x="606" y="812" on="0"/>
        <pt x="604" y="749" on="1"/>
        <pt x="621" y="747" on="0"/>
        <pt x="656" y="745" on="0"/>
        <pt x="676" y="745" on="1"/>
        <pt x="799" y="745" on="0"/>
        <pt x="936" y="855" on="0"/>
        <pt x="936" y="963" on="1"/>
        <pt x="936" y="1020" on="0"/>
        <pt x="896" y="1101" on="0"/>
        <pt x="827" y="1152" on="0"/>
        <pt x="734" y="1176" on="0"/>
        <pt x="682" y="1176" on="1"/>
        <pt x="667" y="1176" on="0"/>
        <pt x="638" y="1176" on="0"/>
      </contour>
    </TTGlyph>
    <TTGlyph name="S" xMin="94" yMin="-41" xMax="1169" yMax="1432">
      <contour>
        <pt x="340" y="465" on="1"/>
        <pt x="371" y="240" on="1"/>
        <pt x="387" y="231" on="0"/>
        <pt x="436" y="212" on="0"/>
        <pt x="496" y="197" on="0"/>
        <pt x="565" y="188" on="0"/>
        <pt x="602" y="188" on="1"/>
        <pt x="646" y="188" on="0"/>
        <pt x="721" y="203" on="0"/>
        <pt x="776" y="232" on="0"/>
        <pt x="807" y="277" on="0"/>
        <pt x="807" y="307" on="1"/>
        <pt x="807" y="336" on="0"/>
        <pt x="781" y="385" on="0"/>
        <pt x="733" y="430" on="0"/>
        <pt x="664" y="473" on="0"/>
        <pt x="621" y="496" on="1"/>
        <pt x="426" y="600" on="1"/>
        <pt x="364" y="633" on="0"/>
        <pt x="252" y="711" on="0"/>
        <pt x="166" y="809" on="0"/>
        <pt x="115" y="932" on="0"/>
        <pt x="115" y="1010" on="1"/>
        <pt x="115" y="1060" on="0"/>
        <pt x="135" y="1161" on="0"/>
        <pt x="183" y="1254" on="0"/>
        <pt x="263" y="1336" on="0"/>
        <pt x="384" y="1397" on="0"/>
        <pt x="549" y="1432" on="0"/>
        <pt x="659" y="1432" on="1"/>
        <pt x="728" y="1432" on="0"/>
        <pt x="864" y="1423" on="0"/>
        <pt x="991" y="1407" on="0"/>
        <pt x="1104" y="1386" on="0"/>
        <pt x="1149" y="1374" on="1"/>
        <pt x="1120" y="926" on="1"/>
        <pt x="889" y="926" on="1"/>
        <pt x="860" y="1141" on="1"/>
        <pt x="818" y="1172" on="0"/>
        <pt x="706" y="1202" on="0"/>
        <pt x="649" y="1202" on="1"/>
        <pt x="571" y="1202" on="0"/>
        <pt x="477" y="1142" on="0"/>
        <pt x="477" y="1083" on="1"/>
        <pt x="477" y="1052" on="0"/>
        <pt x="505" y="998" on="0"/>
        <pt x="553" y="950" on="0"/>
        <pt x="620" y="906" on="0"/>
        <pt x="659" y="885" on="1"/>
        <pt x="834" y="793" on="1"/>
        <pt x="898" y="760" on="0"/>
        <pt x="1018" y="680" on="0"/>
        <pt x="1112" y="580" on="0"/>
        <pt x="1169" y="452" on="0"/>
        <pt x="1169" y="371" on="1"/>
        <pt x="1169" y="298" on="0"/>
        <pt x="1107" y="151" on="0"/>
        <pt x="969" y="33" on="0"/>
        <pt x="748" y="-41" on="0"/>
        <pt x="588" y="-41" on="1"/>
        <pt x="520" y="-41" on="0"/>
        <pt x="382" y="-32" on="0"/>
        <pt x="254" y="-17" on="0"/>
        <pt x="139" y="4" on="0"/>
        <pt x="94" y="16" on="1"/>
        <pt x="109" y="465" on="1"/>
      </contour>
    </TTGlyph>
    <TTGlyph name="Scaron" xMin="94" yMin="-41" xMax="1169" yMax="1889">
      <component glyphName="S" x="0" y="0" flags="0x204"/>
      <component glyphName="caron.case" x="287" y="0" flags="0x4"/>
    </TTGlyph>
    <TTGlyph name="T" xMin="55" yMin="-6" xMax="1380" yMax="1403">
      <contour>
        <pt x="881" y="1124" on="1"/>
        <pt x="870" y="981" on="0"/>
        <pt x="859" y="561" on="0"/>
        <pt x="854" y="285" on="1"/>
        <pt x="1024" y="170" on="1"/>
        <pt x="1018" y="-6" on="1"/>
        <pt x="973" y="-2" on="0"/>
        <pt x="920" y="2" on="1"/>
        <pt x="874" y="5" on="0"/>
        <pt x="753" y="10" on="0"/>
        <pt x="682" y="10" on="1"/>
        <pt x="613" y="10" on="0"/>
        <pt x="444" y="6" on="0"/>
        <pt x="336" y="-6" on="1"/>
        <pt x="342" y="188" on="1"/>
        <pt x="369" y="191" on="0"/>
        <pt x="397" y="194" on="1"/>
        <pt x="421" y="196" on="0"/>
        <pt x="481" y="201" on="0"/>
        <pt x="510" y="201" on="1"/>
        <pt x="513" y="259" on="0"/>
        <pt x="521" y="397" on="0"/>
        <pt x="527" y="544" on="0"/>
        <pt x="533" y="693" on="0"/>
        <pt x="537" y="830" on="0"/>
        <pt x="539" y="949" on="0"/>
        <pt x="539" y="993" on="1"/>
        <pt x="539" y="1161" on="1"/>
        <pt x="342" y="1178" on="1"/>
        <pt x="309" y="926" on="1"/>
        <pt x="55" y="926" on="1"/>
        <pt x="70" y="1397" on="1"/>
        <pt x="164" y="1392" on="0"/>
        <pt x="263" y="1388" on="1"/>
        <pt x="305" y="1386" on="0"/>
        <pt x="400" y="1384" on="0"/>
        <pt x="499" y="1381" on="0"/>
        <pt x="601" y="1380" on="0"/>
        <pt x="649" y="1380" on="1"/>
        <pt x="767" y="1380" on="0"/>
        <pt x="957" y="1381" on="0"/>
        <pt x="1127" y="1385" on="0"/>
        <pt x="1290" y="1394" on="0"/>
        <pt x="1380" y="1403" on="1"/>
        <pt x="1350" y="926" on="1"/>
        <pt x="1096" y="926" on="1"/>
        <pt x="1069" y="1108" on="1"/>
      </contour>
    </TTGlyph>
    <TTGlyph name="Thorn" xMin="72" yMin="-6" xMax="1243" yMax="1397">
      <contour>
        <pt x="246" y="199" on="1"/>
        <pt x="255" y="305" on="0"/>
        <pt x="266" y="531" on="0"/>
        <pt x="272" y="763" on="0"/>
        <pt x="275" y="995" on="0"/>
        <pt x="276" y="1106" on="1"/>
        <pt x="106" y="1221" on="1"/>
        <pt x="115" y="1397" on="1"/>
        <pt x="158" y="1393" on="0"/>
        <pt x="230" y="1387" on="0"/>
        <pt x="303" y="1382" on="0"/>
        <pt x="383" y="1380" on="0"/>
        <pt x="434" y="1380" on="1"/>
        <pt x="462" y="1380" on="0"/>
        <pt x="541" y="1381" on="0"/>
        <pt x="636" y="1384" on="0"/>
        <pt x="742" y="1391" on="0"/>
        <pt x="797" y="1397" on="1"/>
        <pt x="788" y="1202" on="1"/>
        <pt x="761" y="1199" on="0"/>
        <pt x="733" y="1196" on="1"/>
        <pt x="709" y="1194" on="0"/>
        <pt x="649" y="1190" on="0"/>
        <pt x="621" y="1190" on="1"/>
        <pt x="618" y="1098" on="1"/>
        <pt x="657" y="1101" on="0"/>
        <pt x="738" y="1104" on="0"/>
        <pt x="776" y="1104" on="1"/>
        <pt x="1016" y="1104" on="0"/>
        <pt x="1243" y="913" on="0"/>
        <pt x="1243" y="739" on="1"/>
        <pt x="1243" y="628" on="0"/>
        <pt x="1160" y="466" on="0"/>
        <pt x="1027" y="361" on="0"/>
        <pt x="861" y="311" on="0"/>
        <pt x="778" y="311" on="1"/>
        <pt x="752" y="311" on="0"/>
        <pt x="694" y="317" on="0"/>
        <pt x="670" y="324" on="1"/>
        <pt x="680" y="557" on="1"/>
        <pt x="695" y="554" on="0"/>
        <pt x="718" y="553" on="0"/>
        <pt x="729" y="553" on="1"/>
        <pt x="803" y="553" on="0"/>
        <pt x="879" y="632" on="0"/>
        <pt x="879" y="717" on="1"/>
        <pt x="879" y="791" on="0"/>
        <pt x="775" y="860" on="0"/>
        <pt x="672" y="860" on="1"/>
        <pt x="653" y="860" on="0"/>
        <pt x="619" y="858" on="0"/>
        <pt x="608" y="856" on="1"/>
        <pt x="600" y="734" on="0"/>
        <pt x="596" y="442" on="0"/>
        <pt x="594" y="283" on="1"/>
        <pt x="764" y="168" on="1"/>
        <pt x="756" y="-6" on="1"/>
        <pt x="713" y="-2" on="0"/>
        <pt x="632" y="4" on="0"/>
        <pt x="549" y="8" on="0"/>
        <pt x="461" y="10" on="0"/>
        <pt x="410" y="10" on="1"/>
        <pt x="354" y="10" on="0"/>
        <pt x="181" y="6" on="0"/>
        <pt x="72" y="-6" on="1"/>
        <pt x="80" y="186" on="1"/>
        <pt x="106" y="189" on="0"/>
        <pt x="134" y="192" on="1"/>
        <pt x="158" y="194" on="0"/>
        <pt x="217" y="199" on="0"/>
      </contour>
    </TTGlyph>
    <TTGlyph name="U" xMin="59" yMin="-39" xMax="1602" yMax="1397">
      <contour>
        <pt x="1372" y="510" on="1"/>
        <pt x="1350" y="244" on="0"/>
        <pt x="1054" y="-39" on="0"/>
        <pt x="774" y="-39" on="1"/>
        <pt x="643" y="-39" on="0"/>
        <pt x="434" y="29" on="0"/>
        <pt x="288" y="156" on="0"/>
        <pt x="209" y="337" on="0"/>
        <pt x="209" y="449" on="1"/>
        <pt x="209" y="460" on="0"/>
        <pt x="212" y="576" on="0"/>
        <pt x="217" y="754" on="0"/>
        <pt x="224" y="982" on="0"/>
        <pt x="229" y="1106" on="1"/>
        <pt x="59" y="1221" on="1"/>
        <pt x="68" y="1397" on="1"/>
        <pt x="110" y="1392" on="0"/>
        <pt x="164" y="1388" on="1"/>
        <pt x="210" y="1385" on="0"/>
        <pt x="338" y="1380" on="0"/>
        <pt x="418" y="1380" on="1"/>
        <pt x="495" y="1380" on="0"/>
        <pt x="667" y="1389" on="0"/>
        <pt x="741" y="1397" on="1"/>
        <pt x="733" y="1200" on="1"/>
        <pt x="681" y="1195" on="0"/>
        <pt x="604" y="1192" on="0"/>
        <pt x="567" y="1190" on="1"/>
        <pt x="556" y="891" on="0"/>
        <pt x="547" y="562" on="0"/>
        <pt x="547" y="514" on="1"/>
        <pt x="547" y="427" on="0"/>
        <pt x="593" y="301" on="0"/>
        <pt x="674" y="220" on="0"/>
        <pt x="784" y="182" on="0"/>
        <pt x="848" y="182" on="1"/>
        <pt x="901" y="182" on="0"/>
        <pt x="987" y="203" on="0"/>
        <pt x="1055" y="238" on="0"/>
        <pt x="1106" y="283" on="0"/>
        <pt x="1124" y="307" on="1"/>
        <pt x="1133" y="1106" on="1"/>
        <pt x="963" y="1221" on="1"/>
        <pt x="971" y="1397" on="1"/>
        <pt x="1037" y="1389" on="0"/>
        <pt x="1196" y="1380" on="0"/>
        <pt x="1284" y="1380" on="1"/>
        <pt x="1372" y="1380" on="0"/>
        <pt x="1537" y="1389" on="0"/>
        <pt x="1602" y="1397" on="1"/>
        <pt x="1593" y="1202" on="1"/>
        <pt x="1576" y="1200" on="0"/>
        <pt x="1533" y="1196" on="0"/>
        <pt x="1488" y="1193" on="0"/>
        <pt x="1444" y="1191" on="0"/>
        <pt x="1427" y="1190" on="1"/>
      </contour>
    </TTGlyph>
    <TTGlyph name="Uacute" xMin="59" yMin="-39" xMax="1602" yMax="1935">
      <component glyphName="U" x="0" y="0" flags="0x204"/>
      <component glyphName="acute.case" x="324" y="0" flags="0x4"/>
    </TTGlyph>
    <TTGlyph name="Ucircumflex" xMin="59" yMin="-39" xMax="1602" yMax="1888">
      <component glyphName="U" x="0" y="0" flags="0x204"/>
      <component glyphName="circumflex.case" x="215" y="0" flags="0x4"/>
    </TTGlyph>
    <TTGlyph name="Udieresis" xMin="59" yMin="-39" xMax="1602" yMax="1827">
      <component glyphName="U" x="0" y="0" flags="0x204"/>
      <component glyphName="dieresis.case" x="188" y="0" flags="0x4"/>
    </TTGlyph>
    <TTGlyph name="Ugrave" xMin="59" yMin="-39" xMax="1602" yMax="1929">
      <component glyphName="U" x="0" y="0" flags="0x204"/>
      <component glyphName="grave.case" x="319" y="0" flags="0x4"/>
    </TTGlyph>
    <TTGlyph name="V" xMin="0" yMin="-41" xMax="1501" yMax="1397">
      <contour>
        <pt x="772" y="373" on="1"/>
        <pt x="813" y="373" on="1"/>
        <pt x="1063" y="1108" on="1"/>
        <pt x="930" y="1221" on="1"/>
        <pt x="938" y="1397" on="1"/>
        <pt x="1003" y="1389" on="0"/>
        <pt x="1144" y="1380" on="0"/>
        <pt x="1229" y="1380" on="1"/>
        <pt x="1270" y="1380" on="0"/>
        <pt x="1341" y="1382" on="0"/>
        <pt x="1407" y="1387" on="0"/>
        <pt x="1469" y="1393" on="0"/>
        <pt x="1501" y="1397" on="1"/>
        <pt x="1493" y="1202" on="1"/>
        <pt x="1477" y="1200" on="0"/>
        <pt x="1453" y="1197" on="0"/>
        <pt x="1430" y="1194" on="0"/>
        <pt x="1406" y="1193" on="0"/>
        <pt x="1389" y="1192" on="1"/>
        <pt x="860" y="0" on="1"/>
        <pt x="604" y="-41" on="1"/>
        <pt x="170" y="1106" on="1"/>
        <pt x="0" y="1221" on="1"/>
        <pt x="10" y="1397" on="1"/>
        <pt x="76" y="1391" on="0"/>
        <pt x="242" y="1380" on="0"/>
        <pt x="336" y="1380" on="1"/>
        <pt x="436" y="1380" on="0"/>
        <pt x="619" y="1389" on="0"/>
        <pt x="694" y="1397" on="1"/>
        <pt x="686" y="1202" on="1"/>
        <pt x="633" y="1196" on="0"/>
        <pt x="557" y="1192" on="0"/>
        <pt x="520" y="1190" on="1"/>
      </contour>
    </TTGlyph>
    <TTGlyph name="W" xMin="20" yMin="-43" xMax="2071" yMax="1397">
      <contour>
        <pt x="1622" y="1108" on="1"/>
        <pt x="1489" y="1221" on="1"/>
        <pt x="1497" y="1397" on="1"/>
        <pt x="1563" y="1389" on="0"/>
        <pt x="1719" y="1380" on="0"/>
        <pt x="1804" y="1380" on="1"/>
        <pt x="1846" y="1380" on="0"/>
        <pt x="1915" y="1382" on="0"/>
        <pt x="1978" y="1387" on="0"/>
        <pt x="2039" y="1393" on="0"/>
        <pt x="2071" y="1397" on="1"/>
        <pt x="2062" y="1202" on="1"/>
        <pt x="2047" y="1199" on="0"/>
        <pt x="2024" y="1195" on="0"/>
        <pt x="2001" y="1192" on="0"/>
        <pt x="1975" y="1191" on="0"/>
        <pt x="1958" y="1190" on="1"/>
        <pt x="1487" y="0" on="1"/>
        <pt x="1212" y="-43" on="1"/>
        <pt x="1047" y="592" on="1"/>
        <pt x="1016" y="592" on="1"/>
        <pt x="793" y="0" on="1"/>
        <pt x="510" y="-41" on="1"/>
        <pt x="190" y="1106" on="1"/>
        <pt x="20" y="1221" on="1"/>
        <pt x="29" y="1397" on="1"/>
        <pt x="95" y="1391" on="0"/>
        <pt x="266" y="1380" on="0"/>
        <pt x="360" y="1380" on="1"/>
        <pt x="461" y="1380" on="0"/>
        <pt x="629" y="1391" on="0"/>
        <pt x="705" y="1397" on="1"/>
        <pt x="696" y="1202" on="1"/>
        <pt x="658" y="1196" on="0"/>
        <pt x="586" y="1192" on="0"/>
        <pt x="551" y="1190" on="1"/>
        <pt x="688" y="465" on="1"/>
        <pt x="729" y="465" on="1"/>
        <pt x="973" y="1223" on="1"/>
        <pt x="1204" y="1260" on="1"/>
        <pt x="1421" y="459" on="1"/>
        <pt x="1454" y="459" on="1"/>
      </contour>
    </TTGlyph>
    <TTGlyph name="X" xMin="41" yMin="-6" xMax="1534" yMax="1397">
      <contour>
        <pt x="963" y="741" on="1"/>
        <pt x="1335" y="285" on="1"/>
        <pt x="1505" y="170" on="1"/>
        <pt x="1497" y="-6" on="1"/>
        <pt x="1431" y="0" on="0"/>
        <pt x="1277" y="10" on="0"/>
        <pt x="1186" y="10" on="1"/>
        <pt x="1089" y="10" on="0"/>
        <pt x="913" y="0" on="0"/>
        <pt x="838" y="-6" on="1"/>
        <pt x="846" y="188" on="1"/>
        <pt x="874" y="192" on="0"/>
        <pt x="956" y="199" on="0"/>
        <pt x="987" y="201" on="1"/>
        <pt x="744" y="492" on="1"/>
        <pt x="588" y="285" on="1"/>
        <pt x="721" y="170" on="1"/>
        <pt x="713" y="-6" on="1"/>
        <pt x="644" y="0" on="0"/>
        <pt x="466" y="10" on="0"/>
        <pt x="369" y="10" on="1"/>
        <pt x="269" y="10" on="0"/>
        <pt x="104" y="0" on="0"/>
        <pt x="41" y="-6" on="1"/>
        <pt x="47" y="188" on="1"/>
        <pt x="73" y="193" on="0"/>
        <pt x="124" y="197" on="0"/>
        <pt x="158" y="199" on="1"/>
        <pt x="609" y="654" on="1"/>
        <pt x="233" y="1106" on="1"/>
        <pt x="80" y="1221" on="1"/>
        <pt x="88" y="1397" on="1"/>
        <pt x="154" y="1391" on="0"/>
        <pt x="312" y="1380" on="0"/>
        <pt x="403" y="1380" on="1"/>
        <pt x="500" y="1380" on="0"/>
        <pt x="672" y="1391" on="0"/>
        <pt x="748" y="1397" on="1"/>
        <pt x="739" y="1198" on="1"/>
        <pt x="710" y="1195" on="0"/>
        <pt x="630" y="1192" on="0"/>
        <pt x="598" y="1190" on="1"/>
        <pt x="831" y="904" on="1"/>
        <pt x="993" y="1106" on="1"/>
        <pt x="844" y="1221" on="1"/>
        <pt x="852" y="1397" on="1"/>
        <pt x="918" y="1389" on="0"/>
        <pt x="1097" y="1380" on="0"/>
        <pt x="1194" y="1380" on="1"/>
        <pt x="1291" y="1380" on="0"/>
        <pt x="1468" y="1389" on="0"/>
        <pt x="1534" y="1397" on="1"/>
        <pt x="1526" y="1202" on="1"/>
        <pt x="1511" y="1200" on="0"/>
        <pt x="1490" y="1197" on="0"/>
        <pt x="1470" y="1195" on="0"/>
        <pt x="1447" y="1193" on="0"/>
        <pt x="1430" y="1192" on="1"/>
      </contour>
    </TTGlyph>
    <TTGlyph name="Y" xMin="12" yMin="-6" xMax="1483" yMax="1397">
      <contour>
        <pt x="772" y="766" on="1"/>
        <pt x="811" y="766" on="1"/>
        <pt x="1010" y="1106" on="1"/>
        <pt x="877" y="1219" on="1"/>
        <pt x="885" y="1397" on="1"/>
        <pt x="951" y="1389" on="0"/>
        <pt x="1091" y="1380" on="0"/>
        <pt x="1176" y="1380" on="1"/>
        <pt x="1259" y="1380" on="0"/>
        <pt x="1418" y="1389" on="0"/>
        <pt x="1483" y="1397" on="1"/>
        <pt x="1475" y="1204" on="1"/>
        <pt x="1459" y="1201" on="0"/>
        <pt x="1434" y="1197" on="0"/>
        <pt x="1410" y="1194" on="0"/>
        <pt x="1385" y="1193" on="0"/>
        <pt x="1368" y="1192" on="1"/>
        <pt x="889" y="504" on="1"/>
        <pt x="888" y="474" on="0"/>
        <pt x="887" y="410" on="0"/>
        <pt x="886" y="351" on="0"/>
        <pt x="885" y="301" on="0"/>
        <pt x="885" y="285" on="1"/>
        <pt x="1055" y="170" on="1"/>
        <pt x="1049" y="-6" on="1"/>
        <pt x="1001" y="-2" on="0"/>
        <pt x="946" y="2" on="1"/>
        <pt x="899" y="5" on="0"/>
        <pt x="779" y="10" on="0"/>
        <pt x="715" y="10" on="1"/>
        <pt x="644" y="10" on="0"/>
        <pt x="480" y="6" on="0"/>
        <pt x="371" y="-6" on="1"/>
        <pt x="377" y="188" on="1"/>
        <pt x="403" y="191" on="0"/>
        <pt x="431" y="194" on="1"/>
        <pt x="455" y="196" on="0"/>
        <pt x="514" y="201" on="0"/>
        <pt x="543" y="201" on="1"/>
        <pt x="544" y="222" on="0"/>
        <pt x="548" y="285" on="0"/>
        <pt x="552" y="357" on="0"/>
        <pt x="556" y="436" on="0"/>
        <pt x="558" y="474" on="1"/>
        <pt x="172" y="1106" on="1"/>
        <pt x="12" y="1219" on="1"/>
        <pt x="23" y="1397" on="1"/>
        <pt x="89" y="1391" on="0"/>
        <pt x="267" y="1380" on="0"/>
        <pt x="360" y="1380" on="1"/>
        <pt x="461" y="1380" on="0"/>
        <pt x="631" y="1391" on="0"/>
        <pt x="707" y="1397" on="1"/>
        <pt x="696" y="1202" on="1"/>
        <pt x="644" y="1196" on="0"/>
        <pt x="568" y="1192" on="0"/>
        <pt x="530" y="1190" on="1"/>
      </contour>
    </TTGlyph>
    <TTGlyph name="Yacute" xMin="12" yMin="-6" xMax="1483" yMax="1935">
      <component glyphName="Y" x="0" y="0" flags="0x204"/>
      <component glyphName="acute.case" x="233" y="0" flags="0x4"/>
    </TTGlyph>
    <TTGlyph name="Ydieresis" xMin="12" yMin="-6" xMax="1483" yMax="1827">
      <component glyphName="Y" x="0" y="0" flags="0x204"/>
      <component glyphName="dieresis.case" x="100" y="0" flags="0x4"/>
    </TTGlyph>
    <TTGlyph name="Z" xMin="61" yMin="-39" xMax="1305" yMax="1397">
      <contour>
        <pt x="1245" y="-39" on="1"/>
        <pt x="1180" y="-34" on="0"/>
        <pt x="1040" y="-26" on="0"/>
        <pt x="964" y="-22" on="1"/>
        <pt x="832" y="-16" on="0"/>
        <pt x="492" y="0" on="0"/>
        <pt x="297" y="0" on="1"/>
        <pt x="237" y="0" on="0"/>
        <pt x="121" y="0" on="0"/>
        <pt x="61" y="-2" on="1"/>
        <pt x="70" y="213" on="1"/>
        <pt x="852" y="1169" on="1"/>
        <pt x="420" y="1141" on="1"/>
        <pt x="383" y="897" on="1"/>
        <pt x="125" y="897" on="1"/>
        <pt x="143" y="1397" on="1"/>
        <pt x="293" y="1389" on="0"/>
        <pt x="574" y="1380" on="0"/>
        <pt x="721" y="1380" on="1"/>
        <pt x="867" y="1380" on="0"/>
        <pt x="1144" y="1389" on="0"/>
        <pt x="1296" y="1397" on="1"/>
        <pt x="1282" y="1157" on="1"/>
        <pt x="494" y="223" on="1"/>
        <pt x="938" y="256" on="1"/>
        <pt x="1006" y="479" on="1"/>
        <pt x="1305" y="479" on="1"/>
      </contour>
    </TTGlyph>
    <TTGlyph name="Zcaron" xMin="61" yMin="-39" xMax="1305" yMax="1889">
      <component glyphName="Z" x="0" y="0" flags="0x204"/>
      <component glyphName="caron.case" x="330" y="0" flags="0x4"/>
    </TTGlyph>
    <TTGlyph name="a" xMin="47" yMin="-29" xMax="1079" yMax="926">
      <contour>
        <pt x="596" y="289" on="1"/>
        <pt x="559" y="234" on="0"/>
        <pt x="475" y="132" on="0"/>
        <pt x="387" y="47" on="0"/>
        <pt x="296" y="-15" on="0"/>
        <pt x="252" y="-29" on="1"/>
        <pt x="72" y="29" on="1"/>
        <pt x="66" y="46" on="0"/>
        <pt x="57" y="90" on="0"/>
        <pt x="51" y="136" on="0"/>
        <pt x="47" y="179" on="0"/>
        <pt x="47" y="195" on="1"/>
        <pt x="47" y="300" on="0"/>
        <pt x="87" y="490" on="0"/>
        <pt x="157" y="652" on="0"/>
        <pt x="254" y="783" on="0"/>
        <pt x="369" y="876" on="0"/>
        <pt x="498" y="926" on="0"/>
        <pt x="565" y="926" on="1"/>
        <pt x="644" y="926" on="0"/>
        <pt x="817" y="900" on="0"/>
        <pt x="907" y="872" on="1"/>
        <pt x="899" y="788" on="0"/>
        <pt x="890" y="637" on="0"/>
        <pt x="884" y="490" on="0"/>
        <pt x="880" y="341" on="0"/>
        <pt x="877" y="258" on="1"/>
        <pt x="906" y="261" on="0"/>
        <pt x="989" y="278" on="0"/>
        <pt x="1026" y="291" on="1"/>
        <pt x="1079" y="133" on="1"/>
        <pt x="1050" y="113" on="0"/>
        <pt x="972" y="73" on="0"/>
        <pt x="884" y="37" on="0"/>
        <pt x="794" y="7" on="0"/>
        <pt x="714" y="-16" on="0"/>
        <pt x="651" y="-29" on="0"/>
        <pt x="635" y="-29" on="1"/>
        <pt x="561" y="90" on="1"/>
        <pt x="610" y="283" on="1"/>
      </contour>
      <contour>
        <pt x="616" y="715" on="1"/>
        <pt x="598" y="720" on="0"/>
        <pt x="552" y="727" on="0"/>
        <pt x="532" y="727" on="1"/>
        <pt x="490" y="727" on="0"/>
        <pt x="422" y="672" on="0"/>
        <pt x="374" y="578" on="0"/>
        <pt x="348" y="451" on="0"/>
        <pt x="348" y="379" on="1"/>
        <pt x="348" y="363" on="0"/>
        <pt x="348" y="330" on="0"/>
        <pt x="350" y="313" on="1"/>
        <pt x="367" y="314" on="0"/>
        <pt x="418" y="339" on="0"/>
        <pt x="476" y="383" on="0"/>
        <pt x="534" y="444" on="0"/>
        <pt x="581" y="519" on="0"/>
        <pt x="612" y="608" on="0"/>
        <pt x="614" y="657" on="1"/>
      </contour>
    </TTGlyph>
    <TTGlyph name="aacute" xMin="47" yMin="-29" xMax="1079" yMax="1565">
      <component glyphName="a" x="0" y="0" flags="0x204"/>
      <component glyphName="acute" x="354" y="0" flags="0x4"/>
    </TTGlyph>
    <TTGlyph name="acircumflex" xMin="47" yMin="-29" xMax="1079" yMax="1513">
      <component glyphName="a" x="0" y="0" flags="0x204"/>
      <component glyphName="circumflex" x="184" y="0" flags="0x4"/>
    </TTGlyph>
    <TTGlyph name="acute" xMin="82" yMin="1092" xMax="520" yMax="1565">
      <contour>
        <pt x="82" y="1186" on="1"/>
        <pt x="334" y="1565" on="1"/>
        <pt x="348" y="1551" on="0"/>
        <pt x="397" y="1507" on="0"/>
        <pt x="452" y="1461" on="0"/>
        <pt x="504" y="1423" on="0"/>
        <pt x="520" y="1415" on="1"/>
        <pt x="190" y="1092" on="1"/>
      </contour>
    </TTGlyph>
    <TTGlyph name="acute.case" xMin="393" yMin="1503" xMax="868" yMax="1935">
      <contour>
        <pt x="393" y="1618" on="1"/>
        <pt x="719" y="1935" on="1"/>
        <pt x="730" y="1919" on="0"/>
        <pt x="769" y="1865" on="0"/>
        <pt x="812" y="1810" on="0"/>
        <pt x="854" y="1762" on="0"/>
        <pt x="868" y="1751" on="1"/>
        <pt x="479" y="1503" on="1"/>
      </contour>
    </TTGlyph>
    <TTGlyph name="adieresis" xMin="47" yMin="-29" xMax="1079" yMax="1421">
      <component glyphName="a" x="0" y="0" flags="0x204"/>
      <component glyphName="dieresis" x="199" y="0" flags="0x4"/>
    </TTGlyph>
    <TTGlyph name="ae" xMin="47" yMin="-29" xMax="1266" yMax="926">
      <contour>
        <pt x="1255" y="522" on="1"/>
        <pt x="1198" y="485" on="0"/>
        <pt x="1127" y="449" on="1"/>
        <pt x="1066" y="418" on="0"/>
        <pt x="899" y="347" on="0"/>
        <pt x="799" y="317" on="1"/>
        <pt x="800" y="309" on="0"/>
        <pt x="804" y="286" on="0"/>
        <pt x="809" y="262" on="0"/>
        <pt x="815" y="240" on="0"/>
        <pt x="817" y="231" on="1"/>
        <pt x="855" y="234" on="0"/>
        <pt x="953" y="250" on="0"/>
        <pt x="1056" y="270" on="0"/>
        <pt x="1155" y="293" on="0"/>
        <pt x="1194" y="305" on="1"/>
        <pt x="1251" y="139" on="1"/>
        <pt x="1225" y="120" on="0"/>
        <pt x="1147" y="82" on="0"/>
        <pt x="1056" y="46" on="0"/>
        <pt x="957" y="14" on="0"/>
        <pt x="864" y="-11" on="0"/>
        <pt x="782" y="-27" on="0"/>
        <pt x="754" y="-29" on="1"/>
        <pt x="573" y="29" on="1"/>
        <pt x="552" y="64" on="0"/>
        <pt x="523" y="139" on="0"/>
        <pt x="514" y="179" on="1"/>
        <pt x="453" y="105" on="0"/>
        <pt x="319" y="-9" on="0"/>
        <pt x="252" y="-29" on="1"/>
        <pt x="72" y="29" on="1"/>
        <pt x="66" y="46" on="0"/>
        <pt x="57" y="90" on="0"/>
        <pt x="51" y="136" on="0"/>
        <pt x="47" y="179" on="0"/>
        <pt x="47" y="195" on="1"/>
        <pt x="47" y="300" on="0"/>
        <pt x="87" y="490" on="0"/>
        <pt x="157" y="652" on="0"/>
        <pt x="254" y="783" on="0"/>
        <pt x="369" y="876" on="0"/>
        <pt x="498" y="926" on="0"/>
        <pt x="565" y="926" on="1"/>
        <pt x="641" y="926" on="0"/>
        <pt x="766" y="907" on="0"/>
        <pt x="826" y="893" on="1"/>
        <pt x="863" y="909" on="0"/>
        <pt x="943" y="926" on="0"/>
        <pt x="987" y="926" on="1"/>
        <pt x="1007" y="926" on="0"/>
        <pt x="1073" y="922" on="0"/>
        <pt x="1151" y="906" on="0"/>
        <pt x="1231" y="873" on="0"/>
        <pt x="1266" y="844" on="1"/>
      </contour>
      <contour>
        <pt x="350" y="313" on="1"/>
        <pt x="376" y="315" on="0"/>
        <pt x="462" y="371" on="0"/>
        <pt x="504" y="419" on="1"/>
        <pt x="515" y="500" on="0"/>
        <pt x="572" y="649" on="0"/>
        <pt x="616" y="714" on="1"/>
        <pt x="616" y="715" on="1"/>
        <pt x="598" y="720" on="0"/>
        <pt x="552" y="727" on="0"/>
        <pt x="532" y="727" on="1"/>
        <pt x="490" y="727" on="0"/>
        <pt x="422" y="672" on="0"/>
        <pt x="374" y="578" on="0"/>
        <pt x="348" y="451" on="0"/>
        <pt x="348" y="379" on="1"/>
        <pt x="348" y="363" on="0"/>
        <pt x="348" y="330" on="0"/>
      </contour>
      <contour>
        <pt x="1030" y="680" on="1"/>
        <pt x="1018" y="687" on="0"/>
        <pt x="984" y="701" on="0"/>
        <pt x="945" y="711" on="0"/>
        <pt x="905" y="717" on="0"/>
        <pt x="887" y="717" on="1"/>
        <pt x="881" y="717" on="0"/>
        <pt x="868" y="717" on="0"/>
        <pt x="862" y="715" on="1"/>
        <pt x="831" y="686" on="0"/>
        <pt x="796" y="577" on="0"/>
        <pt x="793" y="512" on="1"/>
        <pt x="853" y="538" on="0"/>
        <pt x="943" y="595" on="0"/>
        <pt x="972" y="621" on="1"/>
        <pt x="1006" y="650" on="0"/>
      </contour>
    </TTGlyph>
    <TTGlyph name="agrave" xMin="47" yMin="-29" xMax="1079" yMax="1565">
      <component glyphName="a" x="0" y="0" flags="0x204"/>
      <component glyphName="grave" x="266" y="0" flags="0x4"/>
    </TTGlyph>
    <TTGlyph name="ampersand" xMin="80" yMin="-41" xMax="1288" yMax="1432">
      <contour>
        <pt x="664" y="637" on="1"/>
        <pt x="701" y="635" on="0"/>
        <pt x="772" y="633" on="0"/>
        <pt x="807" y="633" on="1"/>
        <pt x="928" y="633" on="0"/>
        <pt x="1161" y="657" on="0"/>
        <pt x="1288" y="686" on="1"/>
        <pt x="1280" y="397" on="1"/>
        <pt x="1215" y="397" on="0"/>
        <pt x="1112" y="398" on="0"/>
        <pt x="1065" y="400" on="1"/>
        <pt x="1034" y="311" on="0"/>
        <pt x="938" y="151" on="0"/>
        <pt x="806" y="30" on="0"/>
        <pt x="636" y="-41" on="0"/>
        <pt x="532" y="-41" on="1"/>
        <pt x="435" y="-41" on="0"/>
        <pt x="270" y="11" on="0"/>
        <pt x="149" y="115" on="0"/>
        <pt x="80" y="270" on="0"/>
        <pt x="80" y="373" on="1"/>
        <pt x="80" y="454" on="0"/>
        <pt x="128" y="585" on="0"/>
        <pt x="208" y="688" on="0"/>
        <pt x="309" y="764" on="0"/>
        <pt x="362" y="788" on="1"/>
        <pt x="338" y="808" on="0"/>
        <pt x="290" y="863" on="0"/>
        <pt x="251" y="934" on="0"/>
        <pt x="227" y="1022" on="0"/>
        <pt x="227" y="1075" on="1"/>
        <pt x="227" y="1132" on="0"/>
        <pt x="276" y="1258" on="0"/>
        <pt x="383" y="1363" on="0"/>
        <pt x="553" y="1432" on="0"/>
        <pt x="674" y="1432" on="1"/>
        <pt x="704" y="1432" on="0"/>
        <pt x="773" y="1426" on="0"/>
        <pt x="846" y="1408" on="0"/>
        <pt x="923" y="1374" on="0"/>
        <pt x="961" y="1346" on="1"/>
        <pt x="946" y="1018" on="1"/>
        <pt x="717" y="1018" on="1"/>
        <pt x="694" y="1180" on="1"/>
        <pt x="662" y="1192" on="0"/>
        <pt x="575" y="1209" on="0"/>
        <pt x="533" y="1209" on="1"/>
        <pt x="528" y="1209" on="0"/>
        <pt x="518" y="1209" on="0"/>
        <pt x="512" y="1208" on="1"/>
        <pt x="506" y="1178" on="0"/>
        <pt x="506" y="1147" on="1"/>
        <pt x="506" y="1104" on="0"/>
        <pt x="530" y="1021" on="0"/>
        <pt x="575" y="951" on="0"/>
        <pt x="639" y="895" on="0"/>
        <pt x="678" y="879" on="1"/>
        <pt x="668" y="719" on="1"/>
        <pt x="602" y="707" on="0"/>
        <pt x="509" y="650" on="0"/>
        <pt x="451" y="572" on="0"/>
        <pt x="424" y="479" on="0"/>
        <pt x="424" y="430" on="1"/>
        <pt x="424" y="371" on="0"/>
        <pt x="458" y="254" on="0"/>
        <pt x="487" y="205" on="1"/>
        <pt x="664" y="205" on="1"/>
        <pt x="694" y="238" on="0"/>
        <pt x="743" y="347" on="0"/>
        <pt x="759" y="428" on="1"/>
        <pt x="657" y="442" on="1"/>
      </contour>
    </TTGlyph>
    <TTGlyph name="aring" xMin="47" yMin="-29" xMax="1079" yMax="1565">
      <component glyphName="a" x="0" y="0" flags="0x204"/>
      <component glyphName="ring" x="276" y="0" flags="0x4"/>
    </TTGlyph>
    <TTGlyph name="asciicircum" xMin="61" yMin="877" xMax="838" yMax="1391">
      <contour>
        <pt x="274" y="877" on="1"/>
        <pt x="61" y="877" on="1"/>
        <pt x="391" y="1391" on="1"/>
        <pt x="508" y="1391" on="1"/>
        <pt x="838" y="877" on="1"/>
        <pt x="627" y="877" on="1"/>
        <pt x="451" y="1151" on="1"/>
      </contour>
    </TTGlyph>
    <TTGlyph name="asciitilde" xMin="76" yMin="420" xMax="827" yMax="770">
      <contour>
        <pt x="524" y="434" on="1"/>
        <pt x="489" y="447" on="0"/>
        <pt x="432" y="474" on="0"/>
        <pt x="381" y="500" on="0"/>
        <pt x="332" y="528" on="0"/>
        <pt x="305" y="543" on="1"/>
        <pt x="164" y="420" on="1"/>
        <pt x="76" y="524" on="1"/>
        <pt x="279" y="752" on="1"/>
        <pt x="371" y="752" on="1"/>
        <pt x="401" y="735" on="0"/>
        <pt x="455" y="708" on="0"/>
        <pt x="509" y="684" on="0"/>
        <pt x="564" y="663" on="0"/>
        <pt x="596" y="653" on="1"/>
        <pt x="729" y="770" on="1"/>
        <pt x="827" y="670" on="1"/>
        <pt x="610" y="434" on="1"/>
      </contour>
    </TTGlyph>
    <TTGlyph name="asterisk" xMin="45" yMin="608" xMax="856" yMax="1425">
      <contour>
        <pt x="51" y="1137" on="1"/>
        <pt x="85" y="1183" on="0"/>
        <pt x="133" y="1261" on="0"/>
        <pt x="152" y="1303" on="1"/>
        <pt x="385" y="1135" on="1"/>
        <pt x="365" y="1425" on="1"/>
        <pt x="386" y="1423" on="0"/>
        <pt x="416" y="1420" on="0"/>
        <pt x="438" y="1419" on="0"/>
        <pt x="456" y="1419" on="0"/>
        <pt x="465" y="1419" on="1"/>
        <pt x="480" y="1419" on="0"/>
        <pt x="519" y="1420" on="0"/>
        <pt x="559" y="1425" on="1"/>
        <pt x="520" y="1130" on="1"/>
        <pt x="549" y="1149" on="0"/>
        <pt x="614" y="1194" on="0"/>
        <pt x="680" y="1239" on="0"/>
        <pt x="742" y="1281" on="0"/>
        <pt x="768" y="1298" on="1"/>
        <pt x="787" y="1256" on="0"/>
        <pt x="828" y="1178" on="0"/>
        <pt x="856" y="1133" on="1"/>
        <pt x="588" y="1016" on="1"/>
        <pt x="653" y="985" on="0"/>
        <pt x="787" y="917" on="0"/>
        <pt x="846" y="889" on="1"/>
        <pt x="837" y="878" on="0"/>
        <pt x="807" y="833" on="0"/>
        <pt x="777" y="784" on="0"/>
        <pt x="749" y="739" on="0"/>
        <pt x="741" y="727" on="1"/>
        <pt x="512" y="903" on="1"/>
        <pt x="515" y="828" on="0"/>
        <pt x="525" y="676" on="0"/>
        <pt x="528" y="608" on="1"/>
        <pt x="521" y="608" on="0"/>
        <pt x="495" y="609" on="0"/>
        <pt x="466" y="609" on="0"/>
        <pt x="440" y="610" on="0"/>
        <pt x="434" y="610" on="1"/>
        <pt x="428" y="610" on="0"/>
        <pt x="401" y="609" on="0"/>
        <pt x="371" y="609" on="0"/>
        <pt x="344" y="608" on="0"/>
        <pt x="338" y="608" on="1"/>
        <pt x="381" y="899" on="1"/>
        <pt x="133" y="729" on="1"/>
        <pt x="128" y="741" on="0"/>
        <pt x="104" y="788" on="0"/>
        <pt x="77" y="838" on="0"/>
        <pt x="52" y="883" on="0"/>
        <pt x="45" y="895" on="1"/>
        <pt x="317" y="1016" on="1"/>
      </contour>
    </TTGlyph>
    <TTGlyph name="at" xMin="59" yMin="-319" xMax="1458" yMax="1145">
      <contour>
        <pt x="1098" y="248" on="1"/>
        <pt x="1147" y="258" on="0"/>
        <pt x="1225" y="318" on="0"/>
        <pt x="1280" y="408" on="0"/>
        <pt x="1309" y="521" on="0"/>
        <pt x="1309" y="584" on="1"/>
        <pt x="1309" y="666" on="0"/>
        <pt x="1253" y="821" on="0"/>
        <pt x="1138" y="941" on="0"/>
        <pt x="963" y="1014" on="0"/>
        <pt x="844" y="1014" on="1"/>
        <pt x="720" y="1014" on="0"/>
        <pt x="505" y="920" on="0"/>
        <pt x="346" y="754" on="0"/>
        <pt x="254" y="526" on="0"/>
        <pt x="254" y="391" on="1"/>
        <pt x="254" y="268" on="0"/>
        <pt x="324" y="59" on="0"/>
        <pt x="463" y="-92" on="0"/>
        <pt x="672" y="-178" on="0"/>
        <pt x="811" y="-178" on="1"/>
        <pt x="868" y="-178" on="0"/>
        <pt x="976" y="-164" on="0"/>
        <pt x="1084" y="-135" on="0"/>
        <pt x="1195" y="-91" on="0"/>
        <pt x="1255" y="-61" on="1"/>
        <pt x="1303" y="-168" on="1"/>
        <pt x="1159" y="-245" on="0"/>
        <pt x="901" y="-319" on="0"/>
        <pt x="774" y="-319" on="1"/>
        <pt x="626" y="-319" on="0"/>
        <pt x="365" y="-218" on="0"/>
        <pt x="171" y="-35" on="0"/>
        <pt x="59" y="217" on="0"/>
        <pt x="59" y="369" on="1"/>
        <pt x="59" y="480" on="0"/>
        <pt x="115" y="681" on="0"/>
        <pt x="217" y="854" on="0"/>
        <pt x="362" y="993" on="0"/>
        <pt x="540" y="1092" on="0"/>
        <pt x="745" y="1145" on="0"/>
        <pt x="858" y="1145" on="1"/>
        <pt x="993" y="1145" on="0"/>
        <pt x="1214" y="1068" on="0"/>
        <pt x="1371" y="922" on="0"/>
        <pt x="1458" y="714" on="0"/>
        <pt x="1458" y="584" on="1"/>
        <pt x="1458" y="464" on="0"/>
        <pt x="1372" y="266" on="0"/>
        <pt x="1222" y="125" on="0"/>
        <pt x="1020" y="47" on="0"/>
        <pt x="903" y="47" on="1"/>
        <pt x="842" y="145" on="1"/>
        <pt x="885" y="319" on="1"/>
        <pt x="874" y="326" on="1"/>
        <pt x="844" y="281" on="0"/>
        <pt x="774" y="192" on="0"/>
        <pt x="700" y="115" on="0"/>
        <pt x="624" y="59" on="0"/>
        <pt x="588" y="47" on="1"/>
        <pt x="438" y="96" on="1"/>
        <pt x="434" y="110" on="0"/>
        <pt x="427" y="146" on="0"/>
        <pt x="421" y="183" on="0"/>
        <pt x="418" y="218" on="0"/>
        <pt x="418" y="231" on="1"/>
        <pt x="418" y="361" on="0"/>
        <pt x="492" y="581" on="0"/>
        <pt x="610" y="741" on="0"/>
        <pt x="760" y="831" on="0"/>
        <pt x="836" y="831" on="1"/>
        <pt x="867" y="831" on="0"/>
        <pt x="938" y="826" on="0"/>
        <pt x="1011" y="815" on="0"/>
        <pt x="1084" y="799" on="0"/>
        <pt x="1118" y="788" on="1"/>
        <pt x="1107" y="650" on="0"/>
        <pt x="1101" y="384" on="0"/>
      </contour>
      <contour>
        <pt x="899" y="688" on="1"/>
        <pt x="880" y="693" on="0"/>
        <pt x="835" y="700" on="0"/>
        <pt x="815" y="700" on="1"/>
        <pt x="774" y="700" on="0"/>
        <pt x="711" y="639" on="0"/>
        <pt x="668" y="537" on="0"/>
        <pt x="645" y="402" on="0"/>
        <pt x="645" y="328" on="1"/>
        <pt x="645" y="312" on="0"/>
        <pt x="645" y="281" on="0"/>
        <pt x="647" y="264" on="1"/>
        <pt x="672" y="265" on="0"/>
        <pt x="751" y="323" on="0"/>
        <pt x="827" y="421" on="0"/>
        <pt x="888" y="553" on="0"/>
        <pt x="897" y="629" on="1"/>
      </contour>
    </TTGlyph>
    <TTGlyph name="atilde" xMin="47" yMin="-29" xMax="1079" yMax="1442">
      <component glyphName="a" x="0" y="0" flags="0x204"/>
      <component glyphName="tilde" x="156" y="0" flags="0x4"/>
    </TTGlyph>
    <TTGlyph name="b" xMin="-27" yMin="-29" xMax="950" yMax="1577">
      <contour>
        <pt x="80" y="25" on="1"/>
        <pt x="85" y="65" on="0"/>
        <pt x="98" y="222" on="0"/>
        <pt x="111" y="423" on="0"/>
        <pt x="125" y="651" on="0"/>
        <pt x="135" y="871" on="0"/>
        <pt x="141" y="1067" on="0"/>
        <pt x="141" y="1135" on="1"/>
        <pt x="141" y="1150" on="0"/>
        <pt x="140" y="1198" on="0"/>
        <pt x="139" y="1245" on="0"/>
        <pt x="138" y="1284" on="0"/>
        <pt x="137" y="1292" on="1"/>
        <pt x="116" y="1290" on="0"/>
        <pt x="72" y="1288" on="0"/>
        <pt x="32" y="1285" on="0"/>
        <pt x="-1" y="1284" on="0"/>
        <pt x="-10" y="1284" on="1"/>
        <pt x="-27" y="1454" on="1"/>
        <pt x="393" y="1577" on="1"/>
        <pt x="467" y="1458" on="1"/>
        <pt x="383" y="674" on="1"/>
        <pt x="397" y="666" on="1"/>
        <pt x="465" y="755" on="0"/>
        <pt x="614" y="885" on="0"/>
        <pt x="702" y="926" on="1"/>
        <pt x="883" y="868" on="1"/>
        <pt x="901" y="833" on="0"/>
        <pt x="926" y="752" on="0"/>
        <pt x="942" y="672" on="0"/>
        <pt x="950" y="600" on="0"/>
        <pt x="950" y="573" on="1"/>
        <pt x="950" y="498" on="0"/>
        <pt x="911" y="350" on="0"/>
        <pt x="841" y="216" on="0"/>
        <pt x="743" y="102" on="0"/>
        <pt x="625" y="18" on="0"/>
        <pt x="490" y="-29" on="0"/>
        <pt x="418" y="-29" on="1"/>
        <pt x="379" y="-29" on="0"/>
        <pt x="294" y="-21" on="0"/>
        <pt x="207" y="-6" on="0"/>
        <pt x="120" y="13" on="0"/>
      </contour>
      <contour>
        <pt x="410" y="182" on="1"/>
        <pt x="427" y="177" on="0"/>
        <pt x="469" y="170" on="0"/>
        <pt x="487" y="170" on="1"/>
        <pt x="526" y="170" on="0"/>
        <pt x="587" y="226" on="0"/>
        <pt x="629" y="308" on="0"/>
        <pt x="651" y="403" on="0"/>
        <pt x="651" y="442" on="1"/>
        <pt x="651" y="470" on="0"/>
        <pt x="646" y="523" on="0"/>
        <pt x="638" y="566" on="0"/>
        <pt x="630" y="597" on="0"/>
        <pt x="627" y="604" on="1"/>
        <pt x="603" y="600" on="0"/>
        <pt x="530" y="561" on="0"/>
        <pt x="462" y="492" on="0"/>
        <pt x="413" y="392" on="0"/>
        <pt x="412" y="328" on="1"/>
      </contour>
    </TTGlyph>
    <TTGlyph name="backslash" xMin="12" yMin="-356" xMax="1108" yMax="1473">
      <contour>
        <pt x="1108" y="-356" on="1"/>
        <pt x="895" y="-356" on="1"/>
        <pt x="12" y="1473" on="1"/>
        <pt x="225" y="1473" on="1"/>
      </contour>
    </TTGlyph>
    <TTGlyph name="bar" xMin="168" yMin="-401" xMax="369" yMax="1554">
      <contour>
        <pt x="168" y="1554" on="1"/>
        <pt x="369" y="1554" on="1"/>
        <pt x="369" y="-401" on="1"/>
        <pt x="168" y="-401" on="1"/>
      </contour>
    </TTGlyph>
    <TTGlyph name="braceleft" xMin="43" yMin="-430" xMax="692" yMax="1483">
      <contour>
        <pt x="328" y="526" on="1"/>
        <pt x="380" y="494" on="0"/>
        <pt x="445" y="413" on="0"/>
        <pt x="482" y="320" on="0"/>
        <pt x="495" y="219" on="0"/>
        <pt x="495" y="168" on="1"/>
        <pt x="495" y="101" on="0"/>
        <pt x="483" y="-33" on="0"/>
        <pt x="483" y="-105" on="1"/>
        <pt x="483" y="-149" on="0"/>
        <pt x="490" y="-196" on="0"/>
        <pt x="496" y="-215" on="1"/>
        <pt x="635" y="-287" on="1"/>
        <pt x="582" y="-430" on="1"/>
        <pt x="471" y="-408" on="0"/>
        <pt x="322" y="-326" on="0"/>
        <pt x="233" y="-217" on="0"/>
        <pt x="195" y="-86" on="0"/>
        <pt x="195" y="-13" on="1"/>
        <pt x="195" y="37" on="0"/>
        <pt x="206" y="156" on="0"/>
        <pt x="206" y="218" on="1"/>
        <pt x="206" y="272" on="0"/>
        <pt x="196" y="341" on="0"/>
        <pt x="186" y="373" on="1"/>
        <pt x="43" y="444" on="1"/>
        <pt x="47" y="616" on="1"/>
        <pt x="197" y="680" on="1"/>
        <pt x="205" y="706" on="0"/>
        <pt x="218" y="761" on="0"/>
        <pt x="227" y="836" on="0"/>
        <pt x="231" y="941" on="0"/>
        <pt x="231" y="1018" on="1"/>
        <pt x="231" y="1099" on="0"/>
        <pt x="271" y="1246" on="0"/>
        <pt x="367" y="1367" on="0"/>
        <pt x="528" y="1458" on="0"/>
        <pt x="649" y="1483" on="1"/>
        <pt x="692" y="1339" on="1"/>
        <pt x="551" y="1268" on="1"/>
        <pt x="545" y="1252" on="0"/>
        <pt x="535" y="1214" on="0"/>
        <pt x="528" y="1150" on="0"/>
        <pt x="524" y="1051" on="0"/>
        <pt x="524" y="973" on="1"/>
        <pt x="524" y="914" on="0"/>
        <pt x="513" y="788" on="0"/>
        <pt x="474" y="670" on="0"/>
        <pt x="395" y="565" on="0"/>
      </contour>
    </TTGlyph>
    <TTGlyph name="braceright" xMin="18" yMin="-430" xMax="668" yMax="1483">
      <contour>
        <pt x="383" y="526" on="1"/>
        <pt x="331" y="557" on="0"/>
        <pt x="266" y="640" on="0"/>
        <pt x="229" y="733" on="0"/>
        <pt x="216" y="834" on="0"/>
        <pt x="216" y="885" on="1"/>
        <pt x="216" y="951" on="0"/>
        <pt x="227" y="1083" on="0"/>
        <pt x="227" y="1156" on="1"/>
        <pt x="227" y="1201" on="0"/>
        <pt x="220" y="1249" on="0"/>
        <pt x="215" y="1268" on="1"/>
        <pt x="78" y="1339" on="1"/>
        <pt x="129" y="1483" on="1"/>
        <pt x="240" y="1460" on="0"/>
        <pt x="389" y="1378" on="0"/>
        <pt x="479" y="1268" on="0"/>
        <pt x="516" y="1136" on="0"/>
        <pt x="516" y="1063" on="1"/>
        <pt x="516" y="1008" on="0"/>
        <pt x="506" y="898" on="0"/>
        <pt x="506" y="838" on="1"/>
        <pt x="506" y="810" on="0"/>
        <pt x="509" y="766" on="0"/>
        <pt x="513" y="729" on="0"/>
        <pt x="520" y="696" on="0"/>
        <pt x="524" y="680" on="1"/>
        <pt x="668" y="608" on="1"/>
        <pt x="664" y="436" on="1"/>
        <pt x="514" y="373" on="1"/>
        <pt x="506" y="347" on="0"/>
        <pt x="493" y="292" on="0"/>
        <pt x="484" y="217" on="0"/>
        <pt x="479" y="112" on="0"/>
        <pt x="479" y="35" on="1"/>
        <pt x="479" y="-46" on="0"/>
        <pt x="439" y="-193" on="0"/>
        <pt x="343" y="-315" on="0"/>
        <pt x="182" y="-406" on="0"/>
        <pt x="61" y="-430" on="1"/>
        <pt x="18" y="-287" on="1"/>
        <pt x="162" y="-215" on="1"/>
        <pt x="167" y="-199" on="0"/>
        <pt x="176" y="-161" on="0"/>
        <pt x="182" y="-97" on="0"/>
        <pt x="186" y="2" on="0"/>
        <pt x="186" y="80" on="1"/>
        <pt x="186" y="139" on="0"/>
        <pt x="197" y="265" on="0"/>
        <pt x="238" y="383" on="0"/>
        <pt x="316" y="488" on="0"/>
      </contour>
    </TTGlyph>
    <TTGlyph name="bracketleft" xMin="133" yMin="-356" xMax="670" yMax="1473">
      <contour>
        <pt x="606" y="-356" on="1"/>
        <pt x="133" y="-356" on="1"/>
        <pt x="197" y="1473" on="1"/>
        <pt x="670" y="1473" on="1"/>
        <pt x="668" y="1300" on="1"/>
        <pt x="440" y="1300" on="1"/>
        <pt x="387" y="-184" on="1"/>
        <pt x="614" y="-184" on="1"/>
      </contour>
    </TTGlyph>
    <TTGlyph name="bracketright" xMin="16" yMin="-356" xMax="559" yMax="1473">
      <contour>
        <pt x="252" y="-184" on="1"/>
        <pt x="303" y="1300" on="1"/>
        <pt x="76" y="1300" on="1"/>
        <pt x="82" y="1473" on="1"/>
        <pt x="559" y="1473" on="1"/>
        <pt x="494" y="-356" on="1"/>
        <pt x="16" y="-356" on="1"/>
        <pt x="23" y="-184" on="1"/>
      </contour>
    </TTGlyph>
    <TTGlyph name="brokenbar" xMin="176" yMin="-401" xMax="379" yMax="1554">
      <contour>
        <pt x="176" y="1554" on="1"/>
        <pt x="379" y="1554" on="1"/>
        <pt x="379" y="858" on="1"/>
        <pt x="176" y="858" on="1"/>
      </contour>
      <contour>
        <pt x="176" y="295" on="1"/>
        <pt x="379" y="295" on="1"/>
        <pt x="379" y="-401" on="1"/>
        <pt x="176" y="-401" on="1"/>
      </contour>
    </TTGlyph>
    <TTGlyph name="bullet" xMin="92" yMin="492" xMax="498" yMax="897">
      <contour>
        <pt x="92" y="694" on="1"/>
        <pt x="92" y="736" on="0"/>
        <pt x="124" y="810" on="0"/>
        <pt x="179" y="865" on="0"/>
        <pt x="254" y="897" on="0"/>
        <pt x="297" y="897" on="1"/>
        <pt x="339" y="897" on="0"/>
        <pt x="412" y="865" on="0"/>
        <pt x="466" y="810" on="0"/>
        <pt x="498" y="736" on="0"/>
        <pt x="498" y="694" on="1"/>
        <pt x="498" y="652" on="0"/>
        <pt x="466" y="578" on="0"/>
        <pt x="412" y="524" on="0"/>
        <pt x="339" y="492" on="0"/>
        <pt x="297" y="492" on="1"/>
        <pt x="254" y="492" on="0"/>
        <pt x="179" y="524" on="0"/>
        <pt x="124" y="578" on="0"/>
        <pt x="92" y="652" on="0"/>
      </contour>
    </TTGlyph>
    <TTGlyph name="c" xMin="50" yMin="-29" xMax="780" yMax="926">
      <contour>
        <pt x="371" y="211" on="1"/>
        <pt x="398" y="214" on="0"/>
        <pt x="482" y="227" on="0"/>
        <pt x="574" y="245" on="0"/>
        <pt x="664" y="267" on="0"/>
        <pt x="698" y="279" on="1"/>
        <pt x="750" y="133" on="1"/>
        <pt x="711" y="104" on="0"/>
        <pt x="592" y="49" on="0"/>
        <pt x="464" y="4" on="0"/>
        <pt x="342" y="-26" on="0"/>
        <pt x="299" y="-29" on="1"/>
        <pt x="119" y="29" on="1"/>
        <pt x="84" y="89" on="0"/>
        <pt x="50" y="227" on="0"/>
        <pt x="50" y="302" on="1"/>
        <pt x="50" y="376" on="0"/>
        <pt x="83" y="526" on="0"/>
        <pt x="146" y="665" on="0"/>
        <pt x="237" y="786" on="0"/>
        <pt x="354" y="875" on="0"/>
        <pt x="496" y="926" on="0"/>
        <pt x="578" y="926" on="1"/>
        <pt x="630" y="926" on="0"/>
        <pt x="728" y="904" on="0"/>
        <pt x="780" y="887" on="1"/>
        <pt x="702" y="582" on="1"/>
        <pt x="672" y="602" on="0"/>
        <pt x="599" y="639" on="0"/>
        <pt x="525" y="669" on="0"/>
        <pt x="453" y="689" on="0"/>
        <pt x="424" y="692" on="1"/>
        <pt x="386" y="632" on="0"/>
        <pt x="346" y="467" on="0"/>
        <pt x="346" y="382" on="1"/>
        <pt x="346" y="335" on="0"/>
        <pt x="358" y="248" on="0"/>
      </contour>
    </TTGlyph>
    <TTGlyph name="caron" xMin="82" yMin="1092" xMax="719" yMax="1513">
      <contour>
        <pt x="618" y="1513" on="1"/>
        <pt x="719" y="1411" on="1"/>
        <pt x="451" y="1092" on="1"/>
        <pt x="328" y="1092" on="1"/>
        <pt x="82" y="1411" on="1"/>
        <pt x="186" y="1513" on="1"/>
        <pt x="393" y="1311" on="1"/>
      </contour>
    </TTGlyph>
    <TTGlyph name="caron.case" xMin="82" yMin="1504" xMax="719" yMax="1889">
      <contour>
        <pt x="618" y="1889" on="1"/>
        <pt x="719" y="1787" on="1"/>
        <pt x="451" y="1504" on="1"/>
        <pt x="328" y="1504" on="1"/>
        <pt x="82" y="1787" on="1"/>
        <pt x="186" y="1889" on="1"/>
        <pt x="393" y="1723" on="1"/>
      </contour>
    </TTGlyph>
    <TTGlyph name="ccedilla" xMin="50" yMin="-440" xMax="780" yMax="926">
      <contour>
        <pt x="584" y="-213" on="1"/>
        <pt x="584" y="-264" on="0"/>
        <pt x="539" y="-347" on="0"/>
        <pt x="465" y="-407" on="0"/>
        <pt x="369" y="-440" on="0"/>
        <pt x="318" y="-440" on="1"/>
        <pt x="286" y="-440" on="0"/>
        <pt x="216" y="-426" on="0"/>
        <pt x="187" y="-412" on="1"/>
        <pt x="191" y="-225" on="1"/>
        <pt x="236" y="-250" on="0"/>
        <pt x="335" y="-289" on="0"/>
        <pt x="383" y="-289" on="1"/>
        <pt x="406" y="-289" on="0"/>
        <pt x="438" y="-272" on="0"/>
        <pt x="445" y="-258" on="1"/>
        <pt x="413" y="-233" on="0"/>
        <pt x="328" y="-193" on="0"/>
        <pt x="277" y="-170" on="1"/>
        <pt x="300" y="-29" on="1"/>
        <pt x="299" y="-29" on="1"/>
        <pt x="119" y="29" on="1"/>
        <pt x="84" y="89" on="0"/>
        <pt x="50" y="227" on="0"/>
        <pt x="50" y="302" on="1"/>
        <pt x="50" y="376" on="0"/>
        <pt x="83" y="526" on="0"/>
        <pt x="146" y="665" on="0"/>
        <pt x="237" y="786" on="0"/>
        <pt x="354" y="875" on="0"/>
        <pt x="496" y="926" on="0"/>
        <pt x="578" y="926" on="1"/>
        <pt x="630" y="926" on="0"/>
        <pt x="728" y="904" on="0"/>
        <pt x="780" y="887" on="1"/>
        <pt x="702" y="582" on="1"/>
        <pt x="672" y="602" on="0"/>
        <pt x="599" y="639" on="0"/>
        <pt x="525" y="669" on="0"/>
        <pt x="453" y="689" on="0"/>
        <pt x="424" y="692" on="1"/>
        <pt x="386" y="632" on="0"/>
        <pt x="346" y="467" on="0"/>
        <pt x="346" y="382" on="1"/>
        <pt x="346" y="335" on="0"/>
        <pt x="358" y="248" on="0"/>
        <pt x="371" y="211" on="1"/>
        <pt x="398" y="214" on="0"/>
        <pt x="482" y="227" on="0"/>
        <pt x="574" y="245" on="0"/>
        <pt x="664" y="267" on="0"/>
        <pt x="698" y="279" on="1"/>
        <pt x="750" y="133" on="1"/>
        <pt x="724" y="114" on="0"/>
        <pt x="654" y="77" on="0"/>
        <pt x="574" y="43" on="0"/>
        <pt x="489" y="13" on="0"/>
        <pt x="448" y="1" on="1"/>
        <pt x="440" y="-53" on="1"/>
        <pt x="468" y="-64" on="0"/>
        <pt x="521" y="-92" on="0"/>
        <pt x="560" y="-131" on="0"/>
        <pt x="584" y="-181" on="0"/>
      </contour>
    </TTGlyph>
    <TTGlyph name="cedilla" xMin="66" yMin="-440" xMax="463" yMax="78">
      <contour>
        <pt x="463" y="-213" on="1"/>
        <pt x="463" y="-264" on="0"/>
        <pt x="418" y="-347" on="0"/>
        <pt x="344" y="-407" on="0"/>
        <pt x="248" y="-440" on="0"/>
        <pt x="197" y="-440" on="1"/>
        <pt x="165" y="-440" on="0"/>
        <pt x="95" y="-426" on="0"/>
        <pt x="66" y="-412" on="1"/>
        <pt x="70" y="-225" on="1"/>
        <pt x="115" y="-250" on="0"/>
        <pt x="214" y="-289" on="0"/>
        <pt x="262" y="-289" on="1"/>
        <pt x="285" y="-289" on="0"/>
        <pt x="317" y="-272" on="0"/>
        <pt x="324" y="-258" on="1"/>
        <pt x="292" y="-233" on="0"/>
        <pt x="207" y="-193" on="0"/>
        <pt x="156" y="-170" on="1"/>
        <pt x="197" y="78" on="1"/>
        <pt x="340" y="78" on="1"/>
        <pt x="319" y="-53" on="1"/>
        <pt x="347" y="-64" on="0"/>
        <pt x="400" y="-92" on="0"/>
        <pt x="439" y="-131" on="0"/>
        <pt x="463" y="-181" on="0"/>
      </contour>
    </TTGlyph>
    <TTGlyph name="cent" xMin="57" yMin="-231" xMax="786" yMax="1098">
      <contour>
        <pt x="377" y="211" on="1"/>
        <pt x="405" y="214" on="0"/>
        <pt x="489" y="227" on="0"/>
        <pt x="581" y="245" on="0"/>
        <pt x="671" y="267" on="0"/>
        <pt x="705" y="279" on="1"/>
        <pt x="756" y="133" on="1"/>
        <pt x="714" y="103" on="0"/>
        <pt x="588" y="45" on="0"/>
        <pt x="520" y="22" on="1"/>
        <pt x="520" y="-231" on="1"/>
        <pt x="289" y="-231" on="1"/>
        <pt x="301" y="-28" on="1"/>
        <pt x="125" y="29" on="1"/>
        <pt x="90" y="88" on="0"/>
        <pt x="57" y="226" on="0"/>
        <pt x="57" y="300" on="1"/>
        <pt x="57" y="379" on="0"/>
        <pt x="94" y="540" on="0"/>
        <pt x="166" y="687" on="0"/>
        <pt x="270" y="811" on="0"/>
        <pt x="336" y="853" on="1"/>
        <pt x="336" y="1098" on="1"/>
        <pt x="567" y="1098" on="1"/>
        <pt x="556" y="925" on="1"/>
        <pt x="563" y="925" on="0"/>
        <pt x="576" y="926" on="0"/>
        <pt x="584" y="926" on="1"/>
        <pt x="636" y="926" on="0"/>
        <pt x="734" y="904" on="0"/>
        <pt x="786" y="887" on="1"/>
        <pt x="709" y="582" on="1"/>
        <pt x="678" y="602" on="0"/>
        <pt x="605" y="639" on="0"/>
        <pt x="531" y="669" on="0"/>
        <pt x="459" y="689" on="0"/>
        <pt x="430" y="692" on="1"/>
        <pt x="392" y="632" on="0"/>
        <pt x="352" y="467" on="0"/>
        <pt x="352" y="382" on="1"/>
        <pt x="352" y="335" on="0"/>
        <pt x="364" y="248" on="0"/>
      </contour>
    </TTGlyph>
    <TTGlyph name="circumflex" xMin="82" yMin="1092" xMax="719" yMax="1513">
      <contour>
        <pt x="182" y="1092" on="1"/>
        <pt x="82" y="1194" on="1"/>
        <pt x="350" y="1513" on="1"/>
        <pt x="473" y="1513" on="1"/>
        <pt x="719" y="1194" on="1"/>
        <pt x="614" y="1092" on="1"/>
        <pt x="408" y="1294" on="1"/>
      </contour>
    </TTGlyph>
    <TTGlyph name="circumflex.case" xMin="344" yMin="1503" xMax="981" yMax="1888">
      <contour>
        <pt x="444" y="1503" on="1"/>
        <pt x="344" y="1606" on="1"/>
        <pt x="612" y="1888" on="1"/>
        <pt x="735" y="1888" on="1"/>
        <pt x="981" y="1606" on="1"/>
        <pt x="877" y="1503" on="1"/>
        <pt x="670" y="1669" on="1"/>
      </contour>
    </TTGlyph>
    <TTGlyph name="colon" xMin="117" yMin="-30" xMax="461" yMax="925">
      <contour>
        <pt x="214" y="554" on="1"/>
        <pt x="135" y="631" on="1"/>
        <pt x="139" y="673" on="0"/>
        <pt x="143" y="756" on="0"/>
        <pt x="145" y="788" on="1"/>
        <pt x="147" y="826" on="0"/>
        <pt x="147" y="861" on="1"/>
        <pt x="382" y="925" on="1"/>
        <pt x="461" y="850" on="1"/>
        <pt x="456" y="807" on="0"/>
        <pt x="451" y="724" on="0"/>
        <pt x="449" y="692" on="1"/>
        <pt x="447" y="653" on="0"/>
        <pt x="447" y="619" on="1"/>
      </contour>
      <contour>
        <pt x="196" y="-30" on="1"/>
        <pt x="117" y="47" on="1"/>
        <pt x="121" y="89" on="0"/>
        <pt x="125" y="172" on="0"/>
        <pt x="127" y="204" on="1"/>
        <pt x="129" y="242" on="0"/>
        <pt x="129" y="277" on="1"/>
        <pt x="364" y="341" on="1"/>
        <pt x="443" y="266" on="1"/>
        <pt x="438" y="223" on="0"/>
        <pt x="433" y="140" on="0"/>
        <pt x="431" y="108" on="1"/>
        <pt x="429" y="69" on="0"/>
        <pt x="429" y="35" on="1"/>
      </contour>
    </TTGlyph>
    <TTGlyph name="comma" xMin="-18" yMin="-289" xMax="428" yMax="360">
      <contour>
        <pt x="-18" y="-166" on="1"/>
        <pt x="14" y="-120" on="0"/>
        <pt x="60" y="-36" on="0"/>
        <pt x="90" y="52" on="0"/>
        <pt x="104" y="148" on="0"/>
        <pt x="104" y="207" on="1"/>
        <pt x="104" y="227" on="0"/>
        <pt x="102" y="270" on="0"/>
        <pt x="100" y="293" on="1"/>
        <pt x="346" y="360" on="1"/>
        <pt x="428" y="281" on="1"/>
        <pt x="426" y="208" on="0"/>
        <pt x="378" y="59" on="0"/>
        <pt x="297" y="-87" on="0"/>
        <pt x="189" y="-226" on="0"/>
        <pt x="127" y="-289" on="1"/>
      </contour>
    </TTGlyph>
    <TTGlyph name="copyright" xMin="53" yMin="-37" xMax="1522" yMax="1430">
      <contour>
        <pt x="125" y="696" on="1"/>
        <pt x="125" y="605" on="0"/>
        <pt x="173" y="436" on="0"/>
        <pt x="259" y="289" on="0"/>
        <pt x="381" y="167" on="0"/>
        <pt x="528" y="81" on="0"/>
        <pt x="697" y="33" on="0"/>
        <pt x="788" y="33" on="1"/>
        <pt x="879" y="33" on="0"/>
        <pt x="1047" y="81" on="0"/>
        <pt x="1195" y="167" on="0"/>
        <pt x="1316" y="289" on="0"/>
        <pt x="1402" y="436" on="0"/>
        <pt x="1450" y="605" on="0"/>
        <pt x="1450" y="696" on="1"/>
        <pt x="1450" y="787" on="0"/>
        <pt x="1402" y="957" on="0"/>
        <pt x="1316" y="1104" on="0"/>
        <pt x="1195" y="1226" on="0"/>
        <pt x="1047" y="1312" on="0"/>
        <pt x="879" y="1360" on="0"/>
        <pt x="788" y="1360" on="1"/>
        <pt x="697" y="1360" on="0"/>
        <pt x="528" y="1312" on="0"/>
        <pt x="381" y="1226" on="0"/>
        <pt x="259" y="1104" on="0"/>
        <pt x="173" y="957" on="0"/>
        <pt x="125" y="787" on="0"/>
      </contour>
      <contour>
        <pt x="53" y="696" on="1"/>
        <pt x="53" y="797" on="0"/>
        <pt x="106" y="985" on="0"/>
        <pt x="201" y="1148" on="0"/>
        <pt x="336" y="1282" on="0"/>
        <pt x="499" y="1378" on="0"/>
        <pt x="687" y="1430" on="0"/>
        <pt x="788" y="1430" on="1"/>
        <pt x="889" y="1430" on="0"/>
        <pt x="1077" y="1378" on="0"/>
        <pt x="1240" y="1282" on="0"/>
        <pt x="1374" y="1148" on="0"/>
        <pt x="1470" y="985" on="0"/>
        <pt x="1522" y="797" on="0"/>
        <pt x="1522" y="696" on="1"/>
        <pt x="1522" y="595" on="0"/>
        <pt x="1470" y="407" on="0"/>
        <pt x="1374" y="245" on="0"/>
        <pt x="1240" y="111" on="0"/>
        <pt x="1077" y="15" on="0"/>
        <pt x="889" y="-37" on="0"/>
        <pt x="788" y="-37" on="1"/>
        <pt x="687" y="-37" on="0"/>
        <pt x="499" y="15" on="0"/>
        <pt x="336" y="111" on="0"/>
        <pt x="201" y="245" on="0"/>
        <pt x="106" y="407" on="0"/>
        <pt x="53" y="595" on="0"/>
      </contour>
      <contour>
        <pt x="944" y="838" on="1"/>
        <pt x="930" y="956" on="1"/>
        <pt x="911" y="975" on="0"/>
        <pt x="847" y="999" on="0"/>
        <pt x="805" y="999" on="1"/>
        <pt x="763" y="999" on="0"/>
        <pt x="684" y="964" on="0"/>
        <pt x="623" y="893" on="0"/>
        <pt x="586" y="786" on="0"/>
        <pt x="586" y="715" on="1"/>
        <pt x="586" y="633" on="0"/>
        <pt x="639" y="520" on="0"/>
        <pt x="725" y="451" on="0"/>
        <pt x="836" y="420" on="0"/>
        <pt x="895" y="420" on="1"/>
        <pt x="952" y="420" on="0"/>
        <pt x="1048" y="435" on="0"/>
        <pt x="1079" y="444" on="1"/>
        <pt x="1112" y="324" on="1"/>
        <pt x="1058" y="304" on="0"/>
        <pt x="907" y="272" on="0"/>
        <pt x="825" y="272" on="1"/>
        <pt x="725" y="272" on="0"/>
        <pt x="553" y="326" on="0"/>
        <pt x="426" y="431" on="0"/>
        <pt x="354" y="587" on="0"/>
        <pt x="354" y="688" on="1"/>
        <pt x="354" y="802" on="0"/>
        <pt x="436" y="969" on="0"/>
        <pt x="574" y="1079" on="0"/>
        <pt x="752" y="1133" on="0"/>
        <pt x="848" y="1133" on="1"/>
        <pt x="894" y="1133" on="0"/>
        <pt x="969" y="1127" on="0"/>
        <pt x="1032" y="1118" on="0"/>
        <pt x="1086" y="1106" on="0"/>
        <pt x="1112" y="1100" on="1"/>
        <pt x="1106" y="838" on="1"/>
      </contour>
    </TTGlyph>
    <TTGlyph name="currency" xMin="61" yMin="66" xMax="1343" yMax="1348">
      <contour>
        <pt x="150" y="698" on="1"/>
        <pt x="150" y="783" on="0"/>
        <pt x="198" y="940" on="0"/>
        <pt x="242" y="1007" on="1"/>
        <pt x="61" y="1188" on="1"/>
        <pt x="221" y="1348" on="1"/>
        <pt x="401" y="1168" on="1"/>
        <pt x="466" y="1212" on="0"/>
        <pt x="616" y="1260" on="0"/>
        <pt x="698" y="1260" on="1"/>
        <pt x="783" y="1260" on="0"/>
        <pt x="938" y="1212" on="0"/>
        <pt x="1004" y="1167" on="1"/>
        <pt x="1184" y="1348" on="1"/>
        <pt x="1343" y="1188" on="1"/>
        <pt x="1163" y="1008" on="1"/>
        <pt x="1208" y="940" on="0"/>
        <pt x="1257" y="783" on="0"/>
        <pt x="1257" y="698" on="1"/>
        <pt x="1257" y="616" on="0"/>
        <pt x="1210" y="466" on="0"/>
        <pt x="1168" y="400" on="1"/>
        <pt x="1343" y="225" on="1"/>
        <pt x="1184" y="66" on="1"/>
        <pt x="1012" y="238" on="1"/>
        <pt x="944" y="192" on="0"/>
        <pt x="786" y="141" on="0"/>
        <pt x="698" y="141" on="1"/>
        <pt x="613" y="141" on="0"/>
        <pt x="459" y="192" on="0"/>
        <pt x="393" y="238" on="1"/>
        <pt x="221" y="66" on="1"/>
        <pt x="61" y="225" on="1"/>
        <pt x="237" y="400" on="1"/>
        <pt x="195" y="466" on="0"/>
        <pt x="150" y="616" on="0"/>
      </contour>
      <contour>
        <pt x="377" y="705" on="1"/>
        <pt x="377" y="636" on="0"/>
        <pt x="428" y="514" on="0"/>
        <pt x="517" y="423" on="0"/>
        <pt x="635" y="369" on="0"/>
        <pt x="702" y="369" on="1"/>
        <pt x="771" y="369" on="0"/>
        <pt x="890" y="423" on="0"/>
        <pt x="979" y="514" on="0"/>
        <pt x="1030" y="636" on="0"/>
        <pt x="1030" y="705" on="1"/>
        <pt x="1030" y="774" on="0"/>
        <pt x="979" y="897" on="0"/>
        <pt x="890" y="988" on="0"/>
        <pt x="771" y="1042" on="0"/>
        <pt x="702" y="1042" on="1"/>
        <pt x="635" y="1042" on="0"/>
        <pt x="517" y="988" on="0"/>
        <pt x="428" y="897" on="0"/>
        <pt x="377" y="774" on="0"/>
      </contour>
    </TTGlyph>
    <TTGlyph name="d" xMin="47" yMin="-29" xMax="1090" yMax="1577">
      <contour>
        <pt x="963" y="1458" on="1"/>
        <pt x="948" y="1308" on="0"/>
        <pt x="923" y="1025" on="0"/>
        <pt x="904" y="736" on="0"/>
        <pt x="890" y="431" on="0"/>
        <pt x="887" y="258" on="1"/>
        <pt x="921" y="264" on="0"/>
        <pt x="991" y="277" on="0"/>
        <pt x="1034" y="291" on="1"/>
        <pt x="1090" y="133" on="1"/>
        <pt x="1061" y="113" on="0"/>
        <pt x="981" y="73" on="0"/>
        <pt x="890" y="37" on="0"/>
        <pt x="797" y="7" on="0"/>
        <pt x="715" y="-16" on="0"/>
        <pt x="651" y="-29" on="0"/>
        <pt x="635" y="-29" on="1"/>
        <pt x="561" y="90" on="1"/>
        <pt x="610" y="283" on="1"/>
        <pt x="596" y="289" on="1"/>
        <pt x="559" y="234" on="0"/>
        <pt x="475" y="132" on="0"/>
        <pt x="387" y="47" on="0"/>
        <pt x="296" y="-15" on="0"/>
        <pt x="252" y="-29" on="1"/>
        <pt x="72" y="29" on="1"/>
        <pt x="66" y="49" on="0"/>
        <pt x="56" y="98" on="0"/>
        <pt x="50" y="144" on="0"/>
        <pt x="47" y="184" on="0"/>
        <pt x="47" y="195" on="1"/>
        <pt x="47" y="345" on="0"/>
        <pt x="129" y="610" on="0"/>
        <pt x="271" y="810" on="0"/>
        <pt x="461" y="926" on="0"/>
        <pt x="569" y="926" on="1"/>
        <pt x="649" y="926" on="1"/>
        <pt x="649" y="980" on="0"/>
        <pt x="647" y="1072" on="0"/>
        <pt x="642" y="1158" on="0"/>
        <pt x="635" y="1244" on="0"/>
        <pt x="631" y="1292" on="1"/>
        <pt x="610" y="1290" on="0"/>
        <pt x="566" y="1288" on="0"/>
        <pt x="527" y="1285" on="0"/>
        <pt x="494" y="1284" on="0"/>
        <pt x="485" y="1284" on="1"/>
        <pt x="469" y="1454" on="1"/>
        <pt x="889" y="1577" on="1"/>
      </contour>
      <contour>
        <pt x="616" y="715" on="1"/>
        <pt x="598" y="720" on="0"/>
        <pt x="552" y="727" on="0"/>
        <pt x="532" y="727" on="1"/>
        <pt x="490" y="727" on="0"/>
        <pt x="421" y="672" on="0"/>
        <pt x="373" y="578" on="0"/>
        <pt x="346" y="451" on="0"/>
        <pt x="346" y="379" on="1"/>
        <pt x="346" y="363" on="0"/>
        <pt x="346" y="330" on="0"/>
        <pt x="348" y="313" on="1"/>
        <pt x="365" y="314" on="0"/>
        <pt x="418" y="339" on="0"/>
        <pt x="475" y="383" on="0"/>
        <pt x="534" y="444" on="0"/>
        <pt x="581" y="519" on="0"/>
        <pt x="612" y="608" on="0"/>
        <pt x="614" y="657" on="1"/>
      </contour>
    </TTGlyph>
    <TTGlyph name="degree" xMin="94" yMin="862" xMax="664" yMax="1432">
      <contour>
        <pt x="256" y="1151" on="1"/>
        <pt x="256" y="1097" on="0"/>
        <pt x="324" y="1024" on="0"/>
        <pt x="383" y="1024" on="1"/>
        <pt x="409" y="1024" on="0"/>
        <pt x="454" y="1043" on="0"/>
        <pt x="486" y="1078" on="0"/>
        <pt x="504" y="1124" on="0"/>
        <pt x="504" y="1151" on="1"/>
        <pt x="504" y="1204" on="0"/>
        <pt x="436" y="1274" on="0"/>
        <pt x="383" y="1274" on="1"/>
        <pt x="324" y="1274" on="0"/>
        <pt x="256" y="1204" on="0"/>
      </contour>
      <contour>
        <pt x="94" y="1151" on="1"/>
        <pt x="94" y="1210" on="0"/>
        <pt x="138" y="1313" on="0"/>
        <pt x="215" y="1389" on="0"/>
        <pt x="321" y="1432" on="0"/>
        <pt x="383" y="1432" on="1"/>
        <pt x="442" y="1432" on="0"/>
        <pt x="545" y="1389" on="0"/>
        <pt x="621" y="1313" on="0"/>
        <pt x="664" y="1210" on="0"/>
        <pt x="664" y="1151" on="1"/>
        <pt x="664" y="1089" on="0"/>
        <pt x="621" y="983" on="0"/>
        <pt x="545" y="906" on="0"/>
        <pt x="442" y="862" on="0"/>
        <pt x="383" y="862" on="1"/>
        <pt x="321" y="862" on="0"/>
        <pt x="215" y="906" on="0"/>
        <pt x="138" y="983" on="0"/>
        <pt x="94" y="1089" on="0"/>
      </contour>
    </TTGlyph>
    <TTGlyph name="dieresis" xMin="63" yMin="1092" xMax="727" yMax="1421">
      <contour>
        <pt x="129" y="1092" on="1"/>
        <pt x="63" y="1198" on="1"/>
        <pt x="66" y="1236" on="0"/>
        <pt x="70" y="1296" on="0"/>
        <pt x="71" y="1318" on="1"/>
        <pt x="72" y="1344" on="0"/>
        <pt x="72" y="1364" on="1"/>
        <pt x="281" y="1421" on="1"/>
        <pt x="346" y="1317" on="1"/>
        <pt x="342" y="1279" on="0"/>
        <pt x="338" y="1217" on="0"/>
        <pt x="337" y="1194" on="1"/>
        <pt x="336" y="1168" on="0"/>
        <pt x="336" y="1147" on="1"/>
      </contour>
      <contour>
        <pt x="510" y="1092" on="1"/>
        <pt x="444" y="1198" on="1"/>
        <pt x="447" y="1236" on="0"/>
        <pt x="451" y="1296" on="0"/>
        <pt x="452" y="1318" on="1"/>
        <pt x="453" y="1344" on="0"/>
        <pt x="453" y="1364" on="1"/>
        <pt x="662" y="1421" on="1"/>
        <pt x="727" y="1317" on="1"/>
        <pt x="723" y="1279" on="0"/>
        <pt x="719" y="1217" on="0"/>
        <pt x="718" y="1194" on="1"/>
        <pt x="717" y="1168" on="0"/>
        <pt x="717" y="1147" on="1"/>
      </contour>
    </TTGlyph>
    <TTGlyph name="dieresis.case" xMin="350" yMin="1497" xMax="1055" yMax="1827">
      <contour>
        <pt x="416" y="1497" on="1"/>
        <pt x="350" y="1604" on="1"/>
        <pt x="353" y="1642" on="0"/>
        <pt x="356" y="1702" on="0"/>
        <pt x="357" y="1724" on="1"/>
        <pt x="358" y="1750" on="0"/>
        <pt x="358" y="1769" on="1"/>
        <pt x="567" y="1827" on="1"/>
        <pt x="633" y="1722" on="1"/>
        <pt x="629" y="1684" on="0"/>
        <pt x="625" y="1622" on="0"/>
        <pt x="624" y="1599" on="1"/>
        <pt x="623" y="1573" on="0"/>
        <pt x="623" y="1552" on="1"/>
      </contour>
      <contour>
        <pt x="838" y="1497" on="1"/>
        <pt x="772" y="1604" on="1"/>
        <pt x="775" y="1642" on="0"/>
        <pt x="778" y="1702" on="0"/>
        <pt x="779" y="1724" on="1"/>
        <pt x="780" y="1750" on="0"/>
        <pt x="780" y="1769" on="1"/>
        <pt x="989" y="1827" on="1"/>
        <pt x="1055" y="1722" on="1"/>
        <pt x="1050" y="1684" on="0"/>
        <pt x="1046" y="1622" on="0"/>
        <pt x="1045" y="1599" on="1"/>
        <pt x="1044" y="1573" on="0"/>
        <pt x="1044" y="1552" on="1"/>
      </contour>
    </TTGlyph>
    <TTGlyph name="divide" xMin="43" yMin="112" xMax="985" yMax="1175">
      <contour>
        <pt x="985" y="549" on="1"/>
        <pt x="43" y="549" on="1"/>
        <pt x="43" y="737" on="1"/>
        <pt x="985" y="737" on="1"/>
      </contour>
      <contour>
        <pt x="428" y="112" on="1"/>
        <pt x="357" y="181" on="1"/>
        <pt x="360" y="220" on="0"/>
        <pt x="364" y="295" on="0"/>
        <pt x="366" y="325" on="1"/>
        <pt x="368" y="359" on="0"/>
        <pt x="368" y="391" on="1"/>
        <pt x="580" y="450" on="1"/>
        <pt x="651" y="381" on="1"/>
        <pt x="647" y="342" on="0"/>
        <pt x="643" y="267" on="0"/>
        <pt x="641" y="237" on="1"/>
        <pt x="639" y="202" on="0"/>
        <pt x="639" y="171" on="1"/>
      </contour>
      <contour>
        <pt x="450" y="837" on="1"/>
        <pt x="379" y="906" on="1"/>
        <pt x="382" y="945" on="0"/>
        <pt x="386" y="1020" on="0"/>
        <pt x="388" y="1050" on="1"/>
        <pt x="390" y="1084" on="0"/>
        <pt x="390" y="1116" on="1"/>
        <pt x="602" y="1175" on="1"/>
        <pt x="673" y="1106" on="1"/>
        <pt x="669" y="1067" on="0"/>
        <pt x="665" y="992" on="0"/>
        <pt x="663" y="962" on="1"/>
        <pt x="661" y="927" on="0"/>
        <pt x="661" y="896" on="1"/>
      </contour>
    </TTGlyph>
    <TTGlyph name="dollar" xMin="66" yMin="-242" xMax="1141" yMax="1577">
      <contour>
        <pt x="311" y="465" on="1"/>
        <pt x="342" y="240" on="1"/>
        <pt x="358" y="231" on="0"/>
        <pt x="407" y="212" on="0"/>
        <pt x="467" y="197" on="0"/>
        <pt x="536" y="188" on="0"/>
        <pt x="573" y="188" on="1"/>
        <pt x="617" y="188" on="0"/>
        <pt x="692" y="203" on="0"/>
        <pt x="747" y="232" on="0"/>
        <pt x="778" y="277" on="0"/>
        <pt x="778" y="307" on="1"/>
        <pt x="778" y="336" on="0"/>
        <pt x="752" y="385" on="0"/>
        <pt x="704" y="430" on="0"/>
        <pt x="635" y="473" on="0"/>
        <pt x="592" y="496" on="1"/>
        <pt x="397" y="600" on="1"/>
        <pt x="335" y="633" on="0"/>
        <pt x="223" y="711" on="0"/>
        <pt x="137" y="809" on="0"/>
        <pt x="86" y="932" on="0"/>
        <pt x="86" y="1010" on="1"/>
        <pt x="86" y="1078" on="0"/>
        <pt x="125" y="1216" on="0"/>
        <pt x="224" y="1332" on="0"/>
        <pt x="395" y="1414" on="0"/>
        <pt x="526" y="1427" on="1"/>
        <pt x="526" y="1577" on="1"/>
        <pt x="780" y="1577" on="1"/>
        <pt x="770" y="1427" on="1"/>
        <pt x="870" y="1420" on="0"/>
        <pt x="1052" y="1391" on="0"/>
        <pt x="1120" y="1374" on="1"/>
        <pt x="1092" y="926" on="1"/>
        <pt x="860" y="926" on="1"/>
        <pt x="831" y="1141" on="1"/>
        <pt x="789" y="1172" on="0"/>
        <pt x="678" y="1202" on="0"/>
        <pt x="621" y="1202" on="1"/>
        <pt x="542" y="1202" on="0"/>
        <pt x="449" y="1142" on="0"/>
        <pt x="449" y="1083" on="1"/>
        <pt x="449" y="1052" on="0"/>
        <pt x="476" y="998" on="0"/>
        <pt x="525" y="950" on="0"/>
        <pt x="592" y="906" on="0"/>
        <pt x="631" y="885" on="1"/>
        <pt x="805" y="793" on="1"/>
        <pt x="869" y="759" on="0"/>
        <pt x="990" y="679" on="0"/>
        <pt x="1084" y="579" on="0"/>
        <pt x="1141" y="452" on="0"/>
        <pt x="1141" y="371" on="1"/>
        <pt x="1141" y="308" on="0"/>
        <pt x="1095" y="181" on="0"/>
        <pt x="995" y="71" on="0"/>
        <pt x="835" y="-11" on="0"/>
        <pt x="721" y="-29" on="1"/>
        <pt x="721" y="-242" on="1"/>
        <pt x="467" y="-242" on="1"/>
        <pt x="480" y="-39" on="1"/>
        <pt x="421" y="-37" on="0"/>
        <pt x="306" y="-27" on="0"/>
        <pt x="199" y="-12" on="0"/>
        <pt x="105" y="6" on="0"/>
        <pt x="66" y="16" on="1"/>
        <pt x="80" y="465" on="1"/>
      </contour>
    </TTGlyph>
    <TTGlyph name="dotlessi" xMin="12" yMin="-29" xMax="680" yMax="926">
      <contour>
        <pt x="680" y="133" on="1"/>
        <pt x="651" y="112" on="0"/>
        <pt x="574" y="71" on="0"/>
        <pt x="488" y="35" on="0"/>
        <pt x="401" y="5" on="0"/>
        <pt x="324" y="-17" on="0"/>
        <pt x="264" y="-29" on="0"/>
        <pt x="248" y="-29" on="1"/>
        <pt x="148" y="70" on="1"/>
        <pt x="154" y="120" on="0"/>
        <pt x="163" y="223" on="0"/>
        <pt x="169" y="322" on="0"/>
        <pt x="172" y="412" on="0"/>
        <pt x="172" y="449" on="1"/>
        <pt x="172" y="476" on="0"/>
        <pt x="172" y="531" on="0"/>
        <pt x="171" y="583" on="0"/>
        <pt x="169" y="628" on="0"/>
        <pt x="168" y="643" on="1"/>
        <pt x="148" y="641" on="0"/>
        <pt x="107" y="639" on="0"/>
        <pt x="69" y="636" on="0"/>
        <pt x="39" y="635" on="0"/>
        <pt x="31" y="635" on="1"/>
        <pt x="12" y="803" on="1"/>
        <pt x="436" y="926" on="1"/>
        <pt x="510" y="807" on="1"/>
        <pt x="503" y="748" on="0"/>
        <pt x="492" y="645" on="0"/>
        <pt x="484" y="547" on="0"/>
        <pt x="479" y="451" on="0"/>
        <pt x="479" y="399" on="1"/>
        <pt x="479" y="353" on="0"/>
        <pt x="482" y="287" on="0"/>
        <pt x="485" y="258" on="1"/>
        <pt x="520" y="264" on="0"/>
        <pt x="600" y="282" on="0"/>
        <pt x="629" y="291" on="1"/>
      </contour>
    </TTGlyph>
    <TTGlyph name="e" xMin="51" yMin="-29" xMax="819" yMax="926">
      <contour>
        <pt x="809" y="522" on="1"/>
        <pt x="751" y="485" on="0"/>
        <pt x="680" y="449" on="1"/>
        <pt x="619" y="418" on="0"/>
        <pt x="452" y="347" on="0"/>
        <pt x="352" y="317" on="1"/>
        <pt x="353" y="309" on="0"/>
        <pt x="357" y="285" on="0"/>
        <pt x="363" y="261" on="0"/>
        <pt x="369" y="238" on="0"/>
        <pt x="371" y="231" on="1"/>
        <pt x="408" y="234" on="0"/>
        <pt x="506" y="250" on="0"/>
        <pt x="609" y="270" on="0"/>
        <pt x="709" y="293" on="0"/>
        <pt x="748" y="305" on="1"/>
        <pt x="805" y="139" on="1"/>
        <pt x="779" y="120" on="0"/>
        <pt x="701" y="82" on="0"/>
        <pt x="609" y="46" on="0"/>
        <pt x="510" y="14" on="0"/>
        <pt x="417" y="-11" on="0"/>
        <pt x="336" y="-27" on="0"/>
        <pt x="307" y="-29" on="1"/>
        <pt x="127" y="29" on="1"/>
        <pt x="88" y="95" on="0"/>
        <pt x="51" y="246" on="0"/>
        <pt x="51" y="324" on="1"/>
        <pt x="51" y="398" on="0"/>
        <pt x="82" y="545" on="0"/>
        <pt x="142" y="679" on="0"/>
        <pt x="228" y="793" on="0"/>
        <pt x="336" y="878" on="0"/>
        <pt x="467" y="926" on="0"/>
        <pt x="541" y="926" on="1"/>
        <pt x="561" y="926" on="0"/>
        <pt x="627" y="922" on="0"/>
        <pt x="704" y="906" on="0"/>
        <pt x="784" y="873" on="0"/>
        <pt x="819" y="844" on="1"/>
      </contour>
      <contour>
        <pt x="584" y="680" on="1"/>
        <pt x="572" y="687" on="0"/>
        <pt x="538" y="701" on="0"/>
        <pt x="498" y="711" on="0"/>
        <pt x="458" y="717" on="0"/>
        <pt x="440" y="717" on="1"/>
        <pt x="434" y="717" on="0"/>
        <pt x="422" y="717" on="0"/>
        <pt x="416" y="715" on="1"/>
        <pt x="385" y="686" on="0"/>
        <pt x="349" y="577" on="0"/>
        <pt x="346" y="512" on="1"/>
        <pt x="407" y="538" on="0"/>
        <pt x="497" y="595" on="0"/>
        <pt x="526" y="621" on="1"/>
        <pt x="560" y="650" on="0"/>
      </contour>
    </TTGlyph>
    <TTGlyph name="eacute" xMin="51" yMin="-29" xMax="819" yMax="1565">
      <component glyphName="e" x="0" y="0" flags="0x204"/>
      <component glyphName="acute" x="293" y="0" flags="0x4"/>
    </TTGlyph>
    <TTGlyph name="ecircumflex" xMin="51" yMin="-29" xMax="846" yMax="1513">
      <component glyphName="e" x="0" y="0" flags="0x204"/>
      <component glyphName="circumflex" x="127" y="0" flags="0x4"/>
    </TTGlyph>
    <TTGlyph name="edieresis" xMin="51" yMin="-29" xMax="874" yMax="1421">
      <component glyphName="e" x="0" y="0" flags="0x204"/>
      <component glyphName="dieresis" x="147" y="0" flags="0x4"/>
    </TTGlyph>
    <TTGlyph name="egrave" xMin="51" yMin="-29" xMax="819" yMax="1565">
      <component glyphName="e" x="0" y="0" flags="0x204"/>
      <component glyphName="grave" x="111" y="0" flags="0x4"/>
    </TTGlyph>
    <TTGlyph name="eight" xMin="53" yMin="-41" xMax="1065" yMax="1432">
      <contour>
        <pt x="1032" y="1112" on="1"/>
        <pt x="1032" y="1054" on="0"/>
        <pt x="1001" y="957" on="0"/>
        <pt x="947" y="872" on="0"/>
        <pt x="875" y="798" on="0"/>
        <pt x="833" y="762" on="1"/>
        <pt x="879" y="723" on="0"/>
        <pt x="963" y="639" on="0"/>
        <pt x="1027" y="548" on="0"/>
        <pt x="1065" y="449" on="0"/>
        <pt x="1065" y="395" on="1"/>
        <pt x="1065" y="293" on="0"/>
        <pt x="972" y="131" on="0"/>
        <pt x="819" y="19" on="0"/>
        <pt x="620" y="-41" on="0"/>
        <pt x="514" y="-41" on="1"/>
        <pt x="433" y="-41" on="0"/>
        <pt x="268" y="2" on="0"/>
        <pt x="136" y="90" on="0"/>
        <pt x="53" y="224" on="0"/>
        <pt x="53" y="315" on="1"/>
        <pt x="53" y="386" on="0"/>
        <pt x="96" y="506" on="0"/>
        <pt x="170" y="610" on="0"/>
        <pt x="267" y="701" on="0"/>
        <pt x="321" y="743" on="1"/>
        <pt x="280" y="779" on="0"/>
        <pt x="209" y="854" on="0"/>
        <pt x="156" y="935" on="0"/>
        <pt x="125" y="1022" on="0"/>
        <pt x="125" y="1069" on="1"/>
        <pt x="125" y="1131" on="0"/>
        <pt x="164" y="1234" on="0"/>
        <pt x="233" y="1315" on="0"/>
        <pt x="325" y="1374" on="0"/>
        <pt x="432" y="1413" on="0"/>
        <pt x="548" y="1432" on="0"/>
        <pt x="606" y="1432" on="1"/>
        <pt x="687" y="1432" on="0"/>
        <pt x="841" y="1392" on="0"/>
        <pt x="960" y="1313" on="0"/>
        <pt x="1032" y="1193" on="0"/>
      </contour>
      <contour>
        <pt x="702" y="324" on="1"/>
        <pt x="702" y="362" on="0"/>
        <pt x="667" y="434" on="0"/>
        <pt x="608" y="504" on="0"/>
        <pt x="529" y="574" on="0"/>
        <pt x="486" y="609" on="1"/>
        <pt x="451" y="581" on="0"/>
        <pt x="389" y="519" on="0"/>
        <pt x="342" y="453" on="0"/>
        <pt x="315" y="382" on="0"/>
        <pt x="315" y="344" on="1"/>
        <pt x="315" y="298" on="0"/>
        <pt x="347" y="227" on="0"/>
        <pt x="402" y="179" on="0"/>
        <pt x="477" y="154" on="0"/>
        <pt x="520" y="154" on="1"/>
        <pt x="559" y="154" on="0"/>
        <pt x="626" y="176" on="0"/>
        <pt x="675" y="220" on="0"/>
        <pt x="702" y="283" on="0"/>
      </contour>
      <contour>
        <pt x="481" y="1122" on="1"/>
        <pt x="481" y="1094" on="0"/>
        <pt x="510" y="1039" on="0"/>
        <pt x="561" y="982" on="0"/>
        <pt x="629" y="923" on="0"/>
        <pt x="668" y="893" on="1"/>
        <pt x="691" y="913" on="0"/>
        <pt x="733" y="954" on="0"/>
        <pt x="764" y="1000" on="0"/>
        <pt x="782" y="1052" on="0"/>
        <pt x="782" y="1083" on="1"/>
        <pt x="782" y="1120" on="0"/>
        <pt x="757" y="1178" on="0"/>
        <pt x="714" y="1218" on="0"/>
        <pt x="656" y="1239" on="0"/>
        <pt x="623" y="1239" on="1"/>
        <pt x="597" y="1239" on="0"/>
        <pt x="546" y="1225" on="0"/>
        <pt x="506" y="1197" on="0"/>
        <pt x="481" y="1153" on="0"/>
      </contour>
    </TTGlyph>
    <TTGlyph name="emdash" xMin="130" yMin="410" xMax="1393" yMax="598">
      <contour>
        <pt x="1386" y="410" on="1"/>
        <pt x="130" y="410" on="1"/>
        <pt x="138" y="598" on="1"/>
        <pt x="1393" y="598" on="1"/>
      </contour>
    </TTGlyph>
    <TTGlyph name="endash" xMin="130" yMin="410" xMax="1049" yMax="598">
      <contour>
        <pt x="1042" y="410" on="1"/>
        <pt x="130" y="410" on="1"/>
        <pt x="138" y="598" on="1"/>
        <pt x="1049" y="598" on="1"/>
      </contour>
    </TTGlyph>
    <TTGlyph name="equal" xMin="117" yMin="369" xMax="1059" yMax="926">
      <contour>
        <pt x="1059" y="737" on="1"/>
        <pt x="117" y="737" on="1"/>
        <pt x="117" y="926" on="1"/>
        <pt x="1059" y="926" on="1"/>
      </contour>
      <contour>
        <pt x="1059" y="369" on="1"/>
        <pt x="117" y="369" on="1"/>
        <pt x="117" y="557" on="1"/>
        <pt x="1059" y="557" on="1"/>
      </contour>
    </TTGlyph>
    <TTGlyph name="eth" xMin="51" yMin="-29" xMax="932" yMax="1577">
      <contour>
        <pt x="909" y="1292" on="1"/>
        <pt x="876" y="1280" on="0"/>
        <pt x="800" y="1251" on="0"/>
        <pt x="758" y="1234" on="1"/>
        <pt x="840" y="1119" on="0"/>
        <pt x="932" y="838" on="0"/>
        <pt x="932" y="678" on="1"/>
        <pt x="932" y="532" on="0"/>
        <pt x="864" y="275" on="0"/>
        <pt x="730" y="83" on="0"/>
        <pt x="531" y="-29" on="0"/>
        <pt x="401" y="-29" on="1"/>
        <pt x="314" y="-29" on="0"/>
        <pt x="182" y="35" on="0"/>
        <pt x="95" y="147" on="0"/>
        <pt x="51" y="297" on="0"/>
        <pt x="51" y="383" on="1"/>
        <pt x="51" y="442" on="0"/>
        <pt x="82" y="568" on="0"/>
        <pt x="143" y="689" on="0"/>
        <pt x="233" y="797" on="0"/>
        <pt x="349" y="878" on="0"/>
        <pt x="492" y="926" on="0"/>
        <pt x="575" y="926" on="1"/>
        <pt x="581" y="926" on="1"/>
        <pt x="567" y="974" on="0"/>
        <pt x="526" y="1072" on="0"/>
        <pt x="495" y="1121" on="1"/>
        <pt x="416" y="1084" on="0"/>
        <pt x="273" y="1010" on="0"/>
        <pt x="217" y="975" on="1"/>
        <pt x="225" y="1186" on="1"/>
        <pt x="260" y="1203" on="0"/>
        <pt x="339" y="1239" on="0"/>
        <pt x="383" y="1257" on="1"/>
        <pt x="345" y="1293" on="0"/>
        <pt x="253" y="1361" on="0"/>
        <pt x="197" y="1391" on="1"/>
        <pt x="274" y="1577" on="1"/>
        <pt x="382" y="1548" on="0"/>
        <pt x="573" y="1435" on="0"/>
        <pt x="653" y="1357" on="1"/>
        <pt x="709" y="1376" on="0"/>
        <pt x="813" y="1407" on="0"/>
        <pt x="860" y="1419" on="1"/>
      </contour>
      <contour>
        <pt x="616" y="653" on="1"/>
        <pt x="616" y="661" on="0"/>
        <pt x="616" y="680" on="0"/>
        <pt x="615" y="690" on="1"/>
        <pt x="586" y="704" on="0"/>
        <pt x="509" y="719" on="0"/>
        <pt x="479" y="719" on="1"/>
        <pt x="470" y="719" on="0"/>
        <pt x="452" y="719" on="0"/>
        <pt x="442" y="717" on="1"/>
        <pt x="428" y="700" on="0"/>
        <pt x="402" y="648" on="0"/>
        <pt x="380" y="580" on="0"/>
        <pt x="367" y="497" on="0"/>
        <pt x="367" y="451" on="1"/>
        <pt x="367" y="379" on="0"/>
        <pt x="402" y="243" on="0"/>
        <pt x="440" y="178" on="1"/>
        <pt x="526" y="178" on="1"/>
        <pt x="554" y="214" on="0"/>
        <pt x="590" y="317" on="0"/>
        <pt x="609" y="441" on="0"/>
        <pt x="616" y="580" on="0"/>
      </contour>
    </TTGlyph>
    <TTGlyph name="exclam" xMin="129" yMin="-30" xMax="500" yMax="1389">
      <contour>
        <pt x="500" y="1389" on="1"/>
        <pt x="488" y="1306" on="0"/>
        <pt x="466" y="1145" on="0"/>
        <pt x="448" y="992" on="0"/>
        <pt x="432" y="852" on="0"/>
        <pt x="426" y="792" on="1"/>
        <pt x="418" y="720" on="0"/>
        <pt x="406" y="587" on="0"/>
        <pt x="401" y="524" on="1"/>
        <pt x="201" y="524" on="1"/>
        <pt x="199" y="587" on="0"/>
        <pt x="196" y="720" on="0"/>
        <pt x="194" y="792" on="1"/>
        <pt x="192" y="852" on="0"/>
        <pt x="187" y="992" on="0"/>
        <pt x="179" y="1145" on="0"/>
        <pt x="170" y="1306" on="0"/>
        <pt x="164" y="1389" on="1"/>
        <pt x="173" y="1388" on="0"/>
        <pt x="206" y="1385" on="0"/>
        <pt x="250" y="1382" on="0"/>
        <pt x="303" y="1380" on="0"/>
        <pt x="332" y="1380" on="1"/>
        <pt x="389" y="1380" on="0"/>
        <pt x="480" y="1387" on="0"/>
      </contour>
      <contour>
        <pt x="208" y="-30" on="1"/>
        <pt x="129" y="47" on="1"/>
        <pt x="133" y="89" on="0"/>
        <pt x="137" y="172" on="0"/>
        <pt x="139" y="204" on="1"/>
        <pt x="140" y="223" on="0"/>
        <pt x="141" y="260" on="0"/>
        <pt x="141" y="277" on="1"/>
        <pt x="376" y="341" on="1"/>
        <pt x="455" y="266" on="1"/>
        <pt x="450" y="223" on="0"/>
        <pt x="445" y="140" on="0"/>
        <pt x="443" y="108" on="1"/>
        <pt x="442" y="88" on="0"/>
        <pt x="441" y="52" on="0"/>
        <pt x="441" y="35" on="1"/>
      </contour>
    </TTGlyph>
    <TTGlyph name="exclamdown" xMin="75" yMin="-492" xMax="446" yMax="926">
      <contour>
        <pt x="199" y="555" on="1"/>
        <pt x="121" y="631" on="1"/>
        <pt x="125" y="673" on="0"/>
        <pt x="129" y="755" on="0"/>
        <pt x="131" y="787" on="1"/>
        <pt x="133" y="825" on="0"/>
        <pt x="133" y="860" on="1"/>
        <pt x="369" y="926" on="1"/>
        <pt x="446" y="850" on="1"/>
        <pt x="441" y="806" on="0"/>
        <pt x="436" y="724" on="0"/>
        <pt x="434" y="691" on="1"/>
        <pt x="432" y="652" on="0"/>
        <pt x="432" y="618" on="1"/>
      </contour>
      <contour>
        <pt x="75" y="-492" on="1"/>
        <pt x="87" y="-410" on="0"/>
        <pt x="109" y="-248" on="0"/>
        <pt x="127" y="-95" on="0"/>
        <pt x="143" y="45" on="0"/>
        <pt x="149" y="105" on="1"/>
        <pt x="157" y="177" on="0"/>
        <pt x="169" y="310" on="0"/>
        <pt x="174" y="373" on="1"/>
        <pt x="374" y="373" on="1"/>
        <pt x="376" y="310" on="0"/>
        <pt x="379" y="177" on="0"/>
        <pt x="381" y="105" on="1"/>
        <pt x="383" y="45" on="0"/>
        <pt x="388" y="-95" on="0"/>
        <pt x="396" y="-248" on="0"/>
        <pt x="405" y="-410" on="0"/>
        <pt x="411" y="-492" on="1"/>
        <pt x="402" y="-491" on="0"/>
        <pt x="369" y="-488" on="0"/>
        <pt x="325" y="-485" on="0"/>
        <pt x="272" y="-483" on="0"/>
        <pt x="243" y="-483" on="1"/>
        <pt x="186" y="-483" on="0"/>
        <pt x="95" y="-490" on="0"/>
      </contour>
    </TTGlyph>
    <TTGlyph name="f" xMin="-188" yMin="-553" xMax="895" yMax="1577">
      <contour>
        <pt x="218" y="897" on="1"/>
        <pt x="221" y="965" on="1"/>
        <pt x="227" y="1112" on="0"/>
        <pt x="313" y="1340" on="0"/>
        <pt x="449" y="1496" on="0"/>
        <pt x="624" y="1577" on="0"/>
        <pt x="719" y="1577" on="1"/>
        <pt x="735" y="1577" on="0"/>
        <pt x="768" y="1576" on="0"/>
        <pt x="809" y="1571" on="0"/>
        <pt x="860" y="1560" on="0"/>
        <pt x="895" y="1550" on="1"/>
        <pt x="887" y="1239" on="1"/>
        <pt x="856" y="1258" on="0"/>
        <pt x="773" y="1297" on="0"/>
        <pt x="685" y="1328" on="0"/>
        <pt x="600" y="1348" on="0"/>
        <pt x="569" y="1348" on="1"/>
        <pt x="559" y="1316" on="0"/>
        <pt x="544" y="1219" on="0"/>
        <pt x="534" y="1105" on="0"/>
        <pt x="526" y="984" on="0"/>
        <pt x="524" y="928" on="1"/>
        <pt x="523" y="902" on="1"/>
        <pt x="568" y="904" on="0"/>
        <pt x="655" y="910" on="0"/>
        <pt x="731" y="916" on="0"/>
        <pt x="790" y="923" on="0"/>
        <pt x="805" y="926" on="1"/>
        <pt x="766" y="688" on="1"/>
        <pt x="714" y="688" on="0"/>
        <pt x="586" y="692" on="0"/>
        <pt x="516" y="697" on="1"/>
        <pt x="494" y="59" on="1"/>
        <pt x="489" y="-70" on="0"/>
        <pt x="412" y="-294" on="0"/>
        <pt x="278" y="-459" on="0"/>
        <pt x="93" y="-553" on="0"/>
        <pt x="-20" y="-553" on="1"/>
        <pt x="-29" y="-553" on="0"/>
        <pt x="-55" y="-552" on="0"/>
        <pt x="-94" y="-547" on="0"/>
        <pt x="-150" y="-536" on="0"/>
        <pt x="-188" y="-526" on="1"/>
        <pt x="-178" y="-217" on="1"/>
        <pt x="-146" y="-238" on="0"/>
        <pt x="-67" y="-277" on="0"/>
        <pt x="17" y="-307" on="0"/>
        <pt x="101" y="-326" on="0"/>
        <pt x="139" y="-326" on="1"/>
        <pt x="151" y="-294" on="0"/>
        <pt x="167" y="-199" on="0"/>
        <pt x="177" y="-87" on="0"/>
        <pt x="184" y="34" on="0"/>
        <pt x="186" y="92" on="1"/>
        <pt x="211" y="722" on="1"/>
        <pt x="162" y="727" on="0"/>
        <pt x="73" y="736" on="0"/>
        <pt x="35" y="741" on="1"/>
        <pt x="39" y="897" on="1"/>
      </contour>
    </TTGlyph>
    <TTGlyph name="f_b" xMin="-188" yMin="-553" xMax="1759" yMax="1577">
      <contour>
        <pt x="889" y="25" on="1"/>
        <pt x="894" y="65" on="0"/>
        <pt x="907" y="222" on="0"/>
        <pt x="920" y="423" on="0"/>
        <pt x="934" y="651" on="0"/>
        <pt x="944" y="871" on="0"/>
        <pt x="950" y="1067" on="0"/>
        <pt x="950" y="1135" on="1"/>
        <pt x="950" y="1154" on="0"/>
        <pt x="949" y="1213" on="0"/>
        <pt x="948" y="1239" on="1"/>
        <pt x="911" y="1258" on="0"/>
        <pt x="812" y="1297" on="0"/>
        <pt x="707" y="1328" on="0"/>
        <pt x="607" y="1348" on="0"/>
        <pt x="569" y="1348" on="1"/>
        <pt x="557" y="1316" on="0"/>
        <pt x="542" y="1219" on="0"/>
        <pt x="532" y="1105" on="0"/>
        <pt x="526" y="984" on="0"/>
        <pt x="524" y="928" on="1"/>
        <pt x="523" y="902" on="1"/>
        <pt x="568" y="904" on="0"/>
        <pt x="655" y="910" on="0"/>
        <pt x="731" y="916" on="0"/>
        <pt x="790" y="923" on="0"/>
        <pt x="805" y="926" on="1"/>
        <pt x="766" y="688" on="1"/>
        <pt x="714" y="688" on="0"/>
        <pt x="586" y="692" on="0"/>
        <pt x="516" y="697" on="1"/>
        <pt x="494" y="59" on="1"/>
        <pt x="489" y="-70" on="0"/>
        <pt x="412" y="-294" on="0"/>
        <pt x="278" y="-459" on="0"/>
        <pt x="93" y="-553" on="0"/>
        <pt x="-20" y="-553" on="1"/>
        <pt x="-29" y="-553" on="0"/>
        <pt x="-55" y="-552" on="0"/>
        <pt x="-94" y="-547" on="0"/>
        <pt x="-150" y="-536" on="0"/>
        <pt x="-188" y="-526" on="1"/>
        <pt x="-178" y="-217" on="1"/>
        <pt x="-146" y="-238" on="0"/>
        <pt x="-67" y="-277" on="0"/>
        <pt x="17" y="-307" on="0"/>
        <pt x="101" y="-326" on="0"/>
        <pt x="139" y="-326" on="1"/>
        <pt x="151" y="-294" on="0"/>
        <pt x="167" y="-199" on="0"/>
        <pt x="177" y="-87" on="0"/>
        <pt x="184" y="34" on="0"/>
        <pt x="186" y="92" on="1"/>
        <pt x="211" y="722" on="1"/>
        <pt x="162" y="727" on="0"/>
        <pt x="73" y="736" on="0"/>
        <pt x="35" y="741" on="1"/>
        <pt x="39" y="897" on="1"/>
        <pt x="218" y="897" on="1"/>
        <pt x="221" y="965" on="1"/>
        <pt x="227" y="1112" on="0"/>
        <pt x="311" y="1340" on="0"/>
        <pt x="446" y="1496" on="0"/>
        <pt x="621" y="1577" on="0"/>
        <pt x="719" y="1577" on="1"/>
        <pt x="743" y="1577" on="0"/>
        <pt x="796" y="1573" on="0"/>
        <pt x="861" y="1560" on="0"/>
        <pt x="939" y="1535" on="0"/>
        <pt x="988" y="1514" on="1"/>
        <pt x="1202" y="1577" on="1"/>
        <pt x="1276" y="1458" on="1"/>
        <pt x="1192" y="674" on="1"/>
        <pt x="1206" y="666" on="1"/>
        <pt x="1274" y="755" on="0"/>
        <pt x="1423" y="885" on="0"/>
        <pt x="1511" y="926" on="1"/>
        <pt x="1692" y="868" on="1"/>
        <pt x="1710" y="833" on="0"/>
        <pt x="1735" y="752" on="0"/>
        <pt x="1751" y="672" on="0"/>
        <pt x="1759" y="600" on="0"/>
        <pt x="1759" y="573" on="1"/>
        <pt x="1759" y="498" on="0"/>
        <pt x="1720" y="350" on="0"/>
        <pt x="1650" y="216" on="0"/>
        <pt x="1552" y="102" on="0"/>
        <pt x="1434" y="18" on="0"/>
        <pt x="1299" y="-29" on="0"/>
        <pt x="1227" y="-29" on="1"/>
        <pt x="1188" y="-29" on="0"/>
        <pt x="1103" y="-21" on="0"/>
        <pt x="1016" y="-6" on="0"/>
        <pt x="929" y="13" on="0"/>
      </contour>
      <contour>
        <pt x="1219" y="182" on="1"/>
        <pt x="1236" y="177" on="0"/>
        <pt x="1278" y="170" on="0"/>
        <pt x="1296" y="170" on="1"/>
        <pt x="1335" y="170" on="0"/>
        <pt x="1396" y="226" on="0"/>
        <pt x="1438" y="308" on="0"/>
        <pt x="1460" y="403" on="0"/>
        <pt x="1460" y="442" on="1"/>
        <pt x="1460" y="470" on="0"/>
        <pt x="1455" y="523" on="0"/>
        <pt x="1447" y="566" on="0"/>
        <pt x="1439" y="597" on="0"/>
        <pt x="1436" y="604" on="1"/>
        <pt x="1412" y="600" on="0"/>
        <pt x="1339" y="561" on="0"/>
        <pt x="1271" y="492" on="0"/>
        <pt x="1222" y="392" on="0"/>
        <pt x="1221" y="328" on="1"/>
      </contour>
    </TTGlyph>
    <TTGlyph name="f_f" xMin="-188" yMin="-553" xMax="1583" yMax="1577">
      <contour>
        <pt x="220" y="897" on="1"/>
        <pt x="229" y="1056" on="0"/>
        <pt x="329" y="1282" on="0"/>
        <pt x="487" y="1427" on="0"/>
        <pt x="692" y="1495" on="0"/>
        <pt x="805" y="1495" on="1"/>
        <pt x="832" y="1495" on="0"/>
        <pt x="890" y="1492" on="0"/>
        <pt x="959" y="1481" on="0"/>
        <pt x="1040" y="1461" on="0"/>
        <pt x="1091" y="1444" on="1"/>
        <pt x="1157" y="1510" on="0"/>
        <pt x="1317" y="1577" on="0"/>
        <pt x="1405" y="1577" on="1"/>
        <pt x="1421" y="1577" on="0"/>
        <pt x="1454" y="1576" on="0"/>
        <pt x="1495" y="1571" on="0"/>
        <pt x="1548" y="1560" on="0"/>
        <pt x="1583" y="1550" on="1"/>
        <pt x="1573" y="1239" on="1"/>
        <pt x="1542" y="1258" on="0"/>
        <pt x="1459" y="1297" on="0"/>
        <pt x="1371" y="1328" on="0"/>
        <pt x="1286" y="1348" on="0"/>
        <pt x="1255" y="1348" on="1"/>
        <pt x="1245" y="1316" on="0"/>
        <pt x="1231" y="1219" on="0"/>
        <pt x="1220" y="1105" on="0"/>
        <pt x="1213" y="984" on="0"/>
        <pt x="1210" y="928" on="1"/>
        <pt x="1209" y="911" on="1"/>
        <pt x="1263" y="913" on="0"/>
        <pt x="1358" y="917" on="0"/>
        <pt x="1433" y="920" on="0"/>
        <pt x="1482" y="924" on="0"/>
        <pt x="1491" y="926" on="1"/>
        <pt x="1450" y="688" on="1"/>
        <pt x="1417" y="688" on="0"/>
        <pt x="1286" y="690" on="0"/>
        <pt x="1201" y="692" on="1"/>
        <pt x="1180" y="141" on="1"/>
        <pt x="1174" y="-22" on="0"/>
        <pt x="1074" y="-254" on="0"/>
        <pt x="914" y="-402" on="0"/>
        <pt x="708" y="-471" on="0"/>
        <pt x="594" y="-471" on="1"/>
        <pt x="567" y="-471" on="0"/>
        <pt x="508" y="-468" on="0"/>
        <pt x="439" y="-457" on="0"/>
        <pt x="356" y="-436" on="0"/>
        <pt x="305" y="-419" on="1"/>
        <pt x="241" y="-482" on="0"/>
        <pt x="77" y="-553" on="0"/>
        <pt x="-20" y="-553" on="1"/>
        <pt x="-29" y="-553" on="0"/>
        <pt x="-55" y="-552" on="0"/>
        <pt x="-94" y="-547" on="0"/>
        <pt x="-150" y="-536" on="0"/>
        <pt x="-188" y="-526" on="1"/>
        <pt x="-178" y="-217" on="1"/>
        <pt x="-146" y="-238" on="0"/>
        <pt x="-67" y="-277" on="0"/>
        <pt x="17" y="-307" on="0"/>
        <pt x="101" y="-326" on="0"/>
        <pt x="139" y="-326" on="1"/>
        <pt x="151" y="-294" on="0"/>
        <pt x="167" y="-199" on="0"/>
        <pt x="177" y="-87" on="0"/>
        <pt x="184" y="34" on="0"/>
        <pt x="186" y="92" on="1"/>
        <pt x="212" y="727" on="1"/>
        <pt x="152" y="731" on="0"/>
        <pt x="61" y="737" on="0"/>
        <pt x="35" y="741" on="1"/>
        <pt x="39" y="897" on="1"/>
      </contour>
      <contour>
        <pt x="494" y="59" on="1"/>
        <pt x="492" y="-3" on="0"/>
        <pt x="471" y="-118" on="0"/>
        <pt x="454" y="-172" on="1"/>
        <pt x="495" y="-189" on="0"/>
        <pt x="594" y="-221" on="0"/>
        <pt x="695" y="-247" on="0"/>
        <pt x="789" y="-262" on="0"/>
        <pt x="825" y="-262" on="1"/>
        <pt x="838" y="-231" on="0"/>
        <pt x="856" y="-127" on="0"/>
        <pt x="868" y="-6" on="0"/>
        <pt x="875" y="122" on="0"/>
        <pt x="877" y="178" on="1"/>
        <pt x="897" y="700" on="1"/>
        <pt x="802" y="703" on="0"/>
        <pt x="610" y="709" on="0"/>
        <pt x="517" y="713" on="1"/>
      </contour>
      <contour>
        <pt x="573" y="1286" on="1"/>
        <pt x="561" y="1258" on="0"/>
        <pt x="545" y="1169" on="0"/>
        <pt x="533" y="1064" on="0"/>
        <pt x="526" y="950" on="0"/>
        <pt x="524" y="897" on="1"/>
        <pt x="546" y="897" on="0"/>
        <pt x="623" y="898" on="0"/>
        <pt x="723" y="899" on="0"/>
        <pt x="841" y="901" on="0"/>
        <pt x="904" y="903" on="1"/>
        <pt x="907" y="965" on="1"/>
        <pt x="911" y="1091" on="0"/>
        <pt x="945" y="1196" on="1"/>
        <pt x="904" y="1213" on="0"/>
        <pt x="804" y="1245" on="0"/>
        <pt x="703" y="1271" on="0"/>
        <pt x="609" y="1286" on="0"/>
      </contour>
    </TTGlyph>
    <TTGlyph name="f_f_i" xMin="-188" yMin="-553" xMax="1948" yMax="1577">
      <contour>
        <pt x="220" y="897" on="1"/>
        <pt x="229" y="1056" on="0"/>
        <pt x="329" y="1282" on="0"/>
        <pt x="487" y="1427" on="0"/>
        <pt x="692" y="1495" on="0"/>
        <pt x="805" y="1495" on="1"/>
        <pt x="832" y="1495" on="0"/>
        <pt x="890" y="1492" on="0"/>
        <pt x="959" y="1481" on="0"/>
        <pt x="1041" y="1461" on="0"/>
        <pt x="1092" y="1444" on="1"/>
        <pt x="1160" y="1508" on="0"/>
        <pt x="1341" y="1577" on="0"/>
        <pt x="1454" y="1577" on="1"/>
        <pt x="1475" y="1577" on="0"/>
        <pt x="1519" y="1576" on="0"/>
        <pt x="1574" y="1571" on="0"/>
        <pt x="1643" y="1560" on="0"/>
        <pt x="1690" y="1550" on="1"/>
        <pt x="1675" y="1239" on="1"/>
        <pt x="1634" y="1258" on="0"/>
        <pt x="1524" y="1297" on="0"/>
        <pt x="1408" y="1328" on="0"/>
        <pt x="1297" y="1348" on="0"/>
        <pt x="1255" y="1348" on="1"/>
        <pt x="1244" y="1319" on="0"/>
        <pt x="1230" y="1230" on="0"/>
        <pt x="1219" y="1117" on="0"/>
        <pt x="1212" y="983" on="0"/>
        <pt x="1209" y="908" on="1"/>
        <pt x="1300" y="910" on="0"/>
        <pt x="1470" y="914" on="0"/>
        <pt x="1604" y="919" on="0"/>
        <pt x="1693" y="924" on="0"/>
        <pt x="1704" y="926" on="1"/>
        <pt x="1778" y="807" on="1"/>
        <pt x="1770" y="748" on="0"/>
        <pt x="1758" y="645" on="0"/>
        <pt x="1751" y="547" on="0"/>
        <pt x="1747" y="451" on="0"/>
        <pt x="1747" y="399" on="1"/>
        <pt x="1747" y="353" on="0"/>
        <pt x="1749" y="287" on="0"/>
        <pt x="1749" y="258" on="1"/>
        <pt x="1784" y="264" on="0"/>
        <pt x="1865" y="282" on="0"/>
        <pt x="1894" y="291" on="1"/>
        <pt x="1948" y="133" on="1"/>
        <pt x="1919" y="112" on="0"/>
        <pt x="1842" y="71" on="0"/>
        <pt x="1756" y="35" on="0"/>
        <pt x="1668" y="5" on="0"/>
        <pt x="1591" y="-17" on="0"/>
        <pt x="1529" y="-29" on="0"/>
        <pt x="1513" y="-29" on="1"/>
        <pt x="1413" y="70" on="1"/>
        <pt x="1419" y="120" on="0"/>
        <pt x="1429" y="223" on="0"/>
        <pt x="1436" y="322" on="0"/>
        <pt x="1440" y="412" on="0"/>
        <pt x="1440" y="449" on="1"/>
        <pt x="1440" y="472" on="0"/>
        <pt x="1439" y="536" on="0"/>
        <pt x="1437" y="604" on="0"/>
        <pt x="1435" y="668" on="0"/>
        <pt x="1434" y="691" on="1"/>
        <pt x="1201" y="696" on="1"/>
        <pt x="1180" y="141" on="1"/>
        <pt x="1174" y="-22" on="0"/>
        <pt x="1074" y="-254" on="0"/>
        <pt x="914" y="-402" on="0"/>
        <pt x="708" y="-471" on="0"/>
        <pt x="594" y="-471" on="1"/>
        <pt x="567" y="-471" on="0"/>
        <pt x="508" y="-468" on="0"/>
        <pt x="439" y="-457" on="0"/>
        <pt x="356" y="-436" on="0"/>
        <pt x="305" y="-419" on="1"/>
        <pt x="241" y="-482" on="0"/>
        <pt x="77" y="-553" on="0"/>
        <pt x="-20" y="-553" on="1"/>
        <pt x="-29" y="-553" on="0"/>
        <pt x="-55" y="-552" on="0"/>
        <pt x="-94" y="-547" on="0"/>
        <pt x="-150" y="-536" on="0"/>
        <pt x="-188" y="-526" on="1"/>
        <pt x="-178" y="-217" on="1"/>
        <pt x="-146" y="-238" on="0"/>
        <pt x="-67" y="-277" on="0"/>
        <pt x="17" y="-307" on="0"/>
        <pt x="101" y="-326" on="0"/>
        <pt x="139" y="-326" on="1"/>
        <pt x="151" y="-294" on="0"/>
        <pt x="167" y="-199" on="0"/>
        <pt x="177" y="-87" on="0"/>
        <pt x="184" y="34" on="0"/>
        <pt x="186" y="92" on="1"/>
        <pt x="212" y="728" on="1"/>
        <pt x="150" y="731" on="0"/>
        <pt x="60" y="738" on="0"/>
        <pt x="35" y="741" on="1"/>
        <pt x="39" y="897" on="1"/>
      </contour>
      <contour>
        <pt x="494" y="59" on="1"/>
        <pt x="492" y="-3" on="0"/>
        <pt x="471" y="-118" on="0"/>
        <pt x="454" y="-172" on="1"/>
        <pt x="495" y="-189" on="0"/>
        <pt x="593" y="-221" on="0"/>
        <pt x="693" y="-247" on="0"/>
        <pt x="788" y="-262" on="0"/>
        <pt x="825" y="-262" on="1"/>
        <pt x="840" y="-217" on="0"/>
        <pt x="858" y="-114" on="0"/>
        <pt x="869" y="-6" on="0"/>
        <pt x="874" y="104" on="0"/>
        <pt x="876" y="157" on="1"/>
        <pt x="897" y="704" on="1"/>
        <pt x="799" y="706" on="0"/>
        <pt x="608" y="713" on="0"/>
        <pt x="517" y="716" on="1"/>
      </contour>
      <contour>
        <pt x="573" y="1286" on="1"/>
        <pt x="561" y="1258" on="0"/>
        <pt x="545" y="1169" on="0"/>
        <pt x="533" y="1064" on="0"/>
        <pt x="526" y="950" on="0"/>
        <pt x="524" y="897" on="1"/>
        <pt x="543" y="897" on="0"/>
        <pt x="617" y="898" on="0"/>
        <pt x="717" y="899" on="0"/>
        <pt x="838" y="901" on="0"/>
        <pt x="904" y="902" on="1"/>
        <pt x="907" y="965" on="1"/>
        <pt x="909" y="1028" on="0"/>
        <pt x="928" y="1143" on="0"/>
        <pt x="944" y="1196" on="1"/>
        <pt x="903" y="1213" on="0"/>
        <pt x="803" y="1245" on="0"/>
        <pt x="703" y="1271" on="0"/>
        <pt x="609" y="1286" on="0"/>
      </contour>
    </TTGlyph>
    <TTGlyph name="f_f_l" xMin="-188" yMin="-553" xMax="2111" yMax="1577">
      <contour>
        <pt x="220" y="897" on="1"/>
        <pt x="229" y="1056" on="0"/>
        <pt x="329" y="1282" on="0"/>
        <pt x="487" y="1427" on="0"/>
        <pt x="692" y="1495" on="0"/>
        <pt x="805" y="1495" on="1"/>
        <pt x="832" y="1495" on="0"/>
        <pt x="889" y="1492" on="0"/>
        <pt x="957" y="1482" on="0"/>
        <pt x="1039" y="1462" on="0"/>
        <pt x="1089" y="1445" on="1"/>
        <pt x="1155" y="1510" on="0"/>
        <pt x="1315" y="1577" on="0"/>
        <pt x="1405" y="1577" on="1"/>
        <pt x="1429" y="1577" on="0"/>
        <pt x="1483" y="1573" on="0"/>
        <pt x="1547" y="1560" on="0"/>
        <pt x="1625" y="1535" on="0"/>
        <pt x="1675" y="1513" on="1"/>
        <pt x="1896" y="1577" on="1"/>
        <pt x="1970" y="1458" on="1"/>
        <pt x="1941" y="1209" on="0"/>
        <pt x="1915" y="713" on="0"/>
        <pt x="1915" y="459" on="1"/>
        <pt x="1915" y="408" on="0"/>
        <pt x="1916" y="309" on="0"/>
        <pt x="1917" y="258" on="1"/>
        <pt x="1951" y="264" on="0"/>
        <pt x="2028" y="280" on="0"/>
        <pt x="2056" y="291" on="1"/>
        <pt x="2111" y="133" on="1"/>
        <pt x="2079" y="111" on="0"/>
        <pt x="1999" y="69" on="0"/>
        <pt x="1913" y="33" on="0"/>
        <pt x="1826" y="3" on="0"/>
        <pt x="1750" y="-18" on="0"/>
        <pt x="1689" y="-29" on="0"/>
        <pt x="1673" y="-29" on="1"/>
        <pt x="1573" y="70" on="1"/>
        <pt x="1585" y="149" on="0"/>
        <pt x="1604" y="335" on="0"/>
        <pt x="1618" y="531" on="0"/>
        <pt x="1628" y="726" on="0"/>
        <pt x="1633" y="904" on="0"/>
        <pt x="1636" y="1054" on="0"/>
        <pt x="1636" y="1106" on="1"/>
        <pt x="1636" y="1132" on="0"/>
        <pt x="1634" y="1207" on="0"/>
        <pt x="1633" y="1239" on="1"/>
        <pt x="1596" y="1258" on="0"/>
        <pt x="1497" y="1297" on="0"/>
        <pt x="1392" y="1328" on="0"/>
        <pt x="1292" y="1348" on="0"/>
        <pt x="1255" y="1348" on="1"/>
        <pt x="1243" y="1316" on="0"/>
        <pt x="1228" y="1219" on="0"/>
        <pt x="1218" y="1102" on="0"/>
        <pt x="1212" y="973" on="0"/>
        <pt x="1209" y="911" on="1"/>
        <pt x="1263" y="913" on="0"/>
        <pt x="1358" y="917" on="0"/>
        <pt x="1433" y="920" on="0"/>
        <pt x="1482" y="924" on="0"/>
        <pt x="1491" y="926" on="1"/>
        <pt x="1450" y="688" on="1"/>
        <pt x="1417" y="688" on="0"/>
        <pt x="1286" y="690" on="0"/>
        <pt x="1201" y="692" on="1"/>
        <pt x="1180" y="141" on="1"/>
        <pt x="1174" y="-22" on="0"/>
        <pt x="1074" y="-254" on="0"/>
        <pt x="914" y="-402" on="0"/>
        <pt x="708" y="-471" on="0"/>
        <pt x="594" y="-471" on="1"/>
        <pt x="567" y="-471" on="0"/>
        <pt x="508" y="-468" on="0"/>
        <pt x="439" y="-457" on="0"/>
        <pt x="356" y="-436" on="0"/>
        <pt x="305" y="-419" on="1"/>
        <pt x="241" y="-482" on="0"/>
        <pt x="77" y="-553" on="0"/>
        <pt x="-20" y="-553" on="1"/>
        <pt x="-29" y="-553" on="0"/>
        <pt x="-55" y="-552" on="0"/>
        <pt x="-94" y="-547" on="0"/>
        <pt x="-150" y="-536" on="0"/>
        <pt x="-188" y="-526" on="1"/>
        <pt x="-178" y="-217" on="1"/>
        <pt x="-146" y="-238" on="0"/>
        <pt x="-67" y="-277" on="0"/>
        <pt x="17" y="-307" on="0"/>
        <pt x="101" y="-326" on="0"/>
        <pt x="139" y="-326" on="1"/>
        <pt x="151" y="-294" on="0"/>
        <pt x="167" y="-199" on="0"/>
        <pt x="177" y="-87" on="0"/>
        <pt x="184" y="34" on="0"/>
        <pt x="186" y="92" on="1"/>
        <pt x="212" y="727" on="1"/>
        <pt x="152" y="731" on="0"/>
        <pt x="61" y="737" on="0"/>
        <pt x="35" y="741" on="1"/>
        <pt x="39" y="897" on="1"/>
      </contour>
      <contour>
        <pt x="825" y="-262" on="1"/>
        <pt x="840" y="-217" on="0"/>
        <pt x="858" y="-114" on="0"/>
        <pt x="869" y="-6" on="0"/>
        <pt x="874" y="104" on="0"/>
        <pt x="876" y="157" on="1"/>
        <pt x="897" y="700" on="1"/>
        <pt x="802" y="703" on="0"/>
        <pt x="610" y="709" on="0"/>
        <pt x="517" y="713" on="1"/>
        <pt x="494" y="59" on="1"/>
        <pt x="492" y="-3" on="0"/>
        <pt x="471" y="-118" on="0"/>
        <pt x="454" y="-172" on="1"/>
        <pt x="495" y="-189" on="0"/>
        <pt x="593" y="-221" on="0"/>
        <pt x="693" y="-247" on="0"/>
        <pt x="788" y="-262" on="0"/>
      </contour>
      <contour>
        <pt x="573" y="1286" on="1"/>
        <pt x="561" y="1258" on="0"/>
        <pt x="545" y="1169" on="0"/>
        <pt x="533" y="1064" on="0"/>
        <pt x="526" y="950" on="0"/>
        <pt x="524" y="897" on="1"/>
        <pt x="546" y="897" on="0"/>
        <pt x="623" y="898" on="0"/>
        <pt x="723" y="899" on="0"/>
        <pt x="841" y="901" on="0"/>
        <pt x="904" y="903" on="1"/>
        <pt x="907" y="965" on="1"/>
        <pt x="909" y="1029" on="0"/>
        <pt x="929" y="1144" on="0"/>
        <pt x="945" y="1196" on="1"/>
        <pt x="904" y="1213" on="0"/>
        <pt x="804" y="1245" on="0"/>
        <pt x="703" y="1271" on="0"/>
        <pt x="609" y="1286" on="0"/>
      </contour>
    </TTGlyph>
    <TTGlyph name="f_h" xMin="-188" yMin="-553" xMax="1929" yMax="1577">
      <contour>
        <pt x="887" y="0" on="1"/>
        <pt x="891" y="30" on="0"/>
        <pt x="902" y="135" on="0"/>
        <pt x="912" y="271" on="0"/>
        <pt x="923" y="432" on="0"/>
        <pt x="932" y="601" on="0"/>
        <pt x="941" y="773" on="0"/>
        <pt x="947" y="933" on="0"/>
        <pt x="950" y="1073" on="0"/>
        <pt x="950" y="1126" on="1"/>
        <pt x="950" y="1155" on="0"/>
        <pt x="949" y="1216" on="0"/>
        <pt x="948" y="1239" on="1"/>
        <pt x="911" y="1258" on="0"/>
        <pt x="812" y="1297" on="0"/>
        <pt x="707" y="1328" on="0"/>
        <pt x="607" y="1348" on="0"/>
        <pt x="569" y="1348" on="1"/>
        <pt x="557" y="1316" on="0"/>
        <pt x="542" y="1219" on="0"/>
        <pt x="532" y="1105" on="0"/>
        <pt x="526" y="984" on="0"/>
        <pt x="524" y="928" on="1"/>
        <pt x="523" y="902" on="1"/>
        <pt x="568" y="904" on="0"/>
        <pt x="655" y="910" on="0"/>
        <pt x="731" y="916" on="0"/>
        <pt x="790" y="923" on="0"/>
        <pt x="805" y="926" on="1"/>
        <pt x="766" y="688" on="1"/>
        <pt x="714" y="688" on="0"/>
        <pt x="586" y="692" on="0"/>
        <pt x="516" y="697" on="1"/>
        <pt x="494" y="59" on="1"/>
        <pt x="489" y="-70" on="0"/>
        <pt x="412" y="-294" on="0"/>
        <pt x="278" y="-459" on="0"/>
        <pt x="93" y="-553" on="0"/>
        <pt x="-20" y="-553" on="1"/>
        <pt x="-29" y="-553" on="0"/>
        <pt x="-55" y="-552" on="0"/>
        <pt x="-94" y="-547" on="0"/>
        <pt x="-150" y="-536" on="0"/>
        <pt x="-188" y="-526" on="1"/>
        <pt x="-178" y="-217" on="1"/>
        <pt x="-146" y="-238" on="0"/>
        <pt x="-67" y="-277" on="0"/>
        <pt x="17" y="-307" on="0"/>
        <pt x="101" y="-326" on="0"/>
        <pt x="139" y="-326" on="1"/>
        <pt x="151" y="-294" on="0"/>
        <pt x="167" y="-199" on="0"/>
        <pt x="177" y="-87" on="0"/>
        <pt x="184" y="34" on="0"/>
        <pt x="186" y="92" on="1"/>
        <pt x="211" y="722" on="1"/>
        <pt x="162" y="727" on="0"/>
        <pt x="73" y="736" on="0"/>
        <pt x="35" y="741" on="1"/>
        <pt x="39" y="897" on="1"/>
        <pt x="218" y="897" on="1"/>
        <pt x="221" y="965" on="1"/>
        <pt x="227" y="1112" on="0"/>
        <pt x="311" y="1340" on="0"/>
        <pt x="446" y="1496" on="0"/>
        <pt x="621" y="1577" on="0"/>
        <pt x="719" y="1577" on="1"/>
        <pt x="743" y="1577" on="0"/>
        <pt x="796" y="1573" on="0"/>
        <pt x="861" y="1560" on="0"/>
        <pt x="939" y="1535" on="0"/>
        <pt x="988" y="1514" on="1"/>
        <pt x="1202" y="1577" on="1"/>
        <pt x="1276" y="1458" on="1"/>
        <pt x="1192" y="674" on="1"/>
        <pt x="1206" y="666" on="1"/>
        <pt x="1249" y="721" on="0"/>
        <pt x="1354" y="810" on="0"/>
        <pt x="1457" y="876" on="0"/>
        <pt x="1551" y="918" on="0"/>
        <pt x="1583" y="926" on="1"/>
        <pt x="1720" y="866" on="1"/>
        <pt x="1737" y="792" on="0"/>
        <pt x="1747" y="664" on="0"/>
        <pt x="1747" y="608" on="1"/>
        <pt x="1747" y="579" on="0"/>
        <pt x="1743" y="495" on="0"/>
        <pt x="1736" y="400" on="0"/>
        <pt x="1728" y="301" on="0"/>
        <pt x="1724" y="258" on="1"/>
        <pt x="1734" y="259" on="0"/>
        <pt x="1773" y="266" on="0"/>
        <pt x="1818" y="275" on="0"/>
        <pt x="1862" y="285" on="0"/>
        <pt x="1876" y="291" on="1"/>
        <pt x="1929" y="133" on="1"/>
        <pt x="1901" y="113" on="0"/>
        <pt x="1821" y="73" on="0"/>
        <pt x="1732" y="37" on="0"/>
        <pt x="1641" y="7" on="0"/>
        <pt x="1560" y="-16" on="0"/>
        <pt x="1497" y="-29" on="0"/>
        <pt x="1481" y="-29" on="1"/>
        <pt x="1380" y="70" on="1"/>
        <pt x="1389" y="127" on="0"/>
        <pt x="1406" y="252" on="0"/>
        <pt x="1419" y="371" on="0"/>
        <pt x="1427" y="474" on="0"/>
        <pt x="1427" y="510" on="1"/>
        <pt x="1427" y="538" on="0"/>
        <pt x="1427" y="572" on="0"/>
        <pt x="1425" y="594" on="1"/>
        <pt x="1404" y="587" on="0"/>
        <pt x="1341" y="551" on="0"/>
        <pt x="1281" y="499" on="0"/>
        <pt x="1237" y="435" on="0"/>
        <pt x="1237" y="399" on="1"/>
        <pt x="1231" y="0" on="1"/>
      </contour>
    </TTGlyph>
    <TTGlyph name="f_i" xMin="-188" yMin="-553" xMax="1262" yMax="1577">
      <contour>
        <pt x="218" y="897" on="1"/>
        <pt x="221" y="965" on="1"/>
        <pt x="227" y="1104" on="0"/>
        <pt x="304" y="1331" on="0"/>
        <pt x="443" y="1490" on="0"/>
        <pt x="641" y="1577" on="0"/>
        <pt x="768" y="1577" on="1"/>
        <pt x="789" y="1577" on="0"/>
        <pt x="833" y="1576" on="0"/>
        <pt x="888" y="1571" on="0"/>
        <pt x="957" y="1560" on="0"/>
        <pt x="1004" y="1550" on="1"/>
        <pt x="989" y="1239" on="1"/>
        <pt x="948" y="1258" on="0"/>
        <pt x="838" y="1297" on="0"/>
        <pt x="722" y="1328" on="0"/>
        <pt x="611" y="1348" on="0"/>
        <pt x="569" y="1348" on="1"/>
        <pt x="559" y="1316" on="0"/>
        <pt x="544" y="1219" on="0"/>
        <pt x="534" y="1105" on="0"/>
        <pt x="526" y="984" on="0"/>
        <pt x="524" y="928" on="1"/>
        <pt x="523" y="900" on="1"/>
        <pt x="595" y="902" on="0"/>
        <pt x="755" y="908" on="0"/>
        <pt x="896" y="915" on="0"/>
        <pt x="1001" y="922" on="0"/>
        <pt x="1018" y="926" on="1"/>
        <pt x="1092" y="807" on="1"/>
        <pt x="1084" y="748" on="0"/>
        <pt x="1072" y="645" on="0"/>
        <pt x="1065" y="547" on="0"/>
        <pt x="1061" y="451" on="0"/>
        <pt x="1061" y="399" on="1"/>
        <pt x="1061" y="353" on="0"/>
        <pt x="1063" y="287" on="0"/>
        <pt x="1065" y="258" on="1"/>
        <pt x="1099" y="264" on="0"/>
        <pt x="1179" y="282" on="0"/>
        <pt x="1208" y="291" on="1"/>
        <pt x="1262" y="133" on="1"/>
        <pt x="1233" y="112" on="0"/>
        <pt x="1156" y="71" on="0"/>
        <pt x="1070" y="35" on="0"/>
        <pt x="982" y="5" on="0"/>
        <pt x="905" y="-17" on="0"/>
        <pt x="843" y="-29" on="0"/>
        <pt x="827" y="-29" on="1"/>
        <pt x="725" y="70" on="1"/>
        <pt x="732" y="120" on="0"/>
        <pt x="742" y="223" on="0"/>
        <pt x="750" y="322" on="0"/>
        <pt x="754" y="412" on="0"/>
        <pt x="754" y="449" on="1"/>
        <pt x="754" y="472" on="0"/>
        <pt x="753" y="538" on="0"/>
        <pt x="751" y="608" on="0"/>
        <pt x="748" y="672" on="0"/>
        <pt x="747" y="694" on="1"/>
        <pt x="693" y="696" on="0"/>
        <pt x="577" y="701" on="0"/>
        <pt x="516" y="705" on="1"/>
        <pt x="494" y="59" on="1"/>
        <pt x="489" y="-70" on="0"/>
        <pt x="412" y="-294" on="0"/>
        <pt x="278" y="-459" on="0"/>
        <pt x="93" y="-553" on="0"/>
        <pt x="-20" y="-553" on="1"/>
        <pt x="-29" y="-553" on="0"/>
        <pt x="-55" y="-552" on="0"/>
        <pt x="-94" y="-547" on="0"/>
        <pt x="-150" y="-536" on="0"/>
        <pt x="-188" y="-526" on="1"/>
        <pt x="-178" y="-217" on="1"/>
        <pt x="-146" y="-238" on="0"/>
        <pt x="-67" y="-277" on="0"/>
        <pt x="17" y="-307" on="0"/>
        <pt x="101" y="-326" on="0"/>
        <pt x="139" y="-326" on="1"/>
        <pt x="151" y="-294" on="0"/>
        <pt x="167" y="-199" on="0"/>
        <pt x="177" y="-87" on="0"/>
        <pt x="184" y="34" on="0"/>
        <pt x="186" y="92" on="1"/>
        <pt x="211" y="724" on="1"/>
        <pt x="102" y="732" on="0"/>
        <pt x="35" y="741" on="1"/>
        <pt x="39" y="897" on="1"/>
      </contour>
    </TTGlyph>
    <TTGlyph name="f_j" xMin="-188" yMin="-553" xMax="1110" yMax="1577">
      <contour>
        <pt x="218" y="897" on="1"/>
        <pt x="221" y="965" on="1"/>
        <pt x="227" y="1104" on="0"/>
        <pt x="304" y="1331" on="0"/>
        <pt x="443" y="1490" on="0"/>
        <pt x="641" y="1577" on="0"/>
        <pt x="768" y="1577" on="1"/>
        <pt x="789" y="1577" on="0"/>
        <pt x="833" y="1576" on="0"/>
        <pt x="888" y="1571" on="0"/>
        <pt x="957" y="1560" on="0"/>
        <pt x="1004" y="1550" on="1"/>
        <pt x="989" y="1239" on="1"/>
        <pt x="948" y="1258" on="0"/>
        <pt x="838" y="1297" on="0"/>
        <pt x="722" y="1328" on="0"/>
        <pt x="611" y="1348" on="0"/>
        <pt x="569" y="1348" on="1"/>
        <pt x="559" y="1316" on="0"/>
        <pt x="544" y="1219" on="0"/>
        <pt x="534" y="1105" on="0"/>
        <pt x="526" y="984" on="0"/>
        <pt x="524" y="928" on="1"/>
        <pt x="523" y="900" on="1"/>
        <pt x="598" y="902" on="0"/>
        <pt x="765" y="908" on="0"/>
        <pt x="912" y="915" on="0"/>
        <pt x="1021" y="922" on="0"/>
        <pt x="1038" y="926" on="1"/>
        <pt x="1110" y="807" on="1"/>
        <pt x="1099" y="683" on="0"/>
        <pt x="1086" y="485" on="0"/>
        <pt x="1076" y="301" on="0"/>
        <pt x="1068" y="114" on="0"/>
        <pt x="1063" y="0" on="1"/>
        <pt x="1061" y="-44" on="0"/>
        <pt x="1027" y="-142" on="0"/>
        <pt x="974" y="-241" on="0"/>
        <pt x="906" y="-341" on="0"/>
        <pt x="835" y="-434" on="0"/>
        <pt x="766" y="-518" on="0"/>
        <pt x="737" y="-553" on="1"/>
        <pt x="553" y="-403" on="1"/>
        <pt x="566" y="-384" on="0"/>
        <pt x="604" y="-328" on="0"/>
        <pt x="648" y="-260" on="0"/>
        <pt x="692" y="-185" on="0"/>
        <pt x="729" y="-108" on="0"/>
        <pt x="755" y="-33" on="0"/>
        <pt x="758" y="0" on="1"/>
        <pt x="766" y="88" on="0"/>
        <pt x="772" y="262" on="0"/>
        <pt x="772" y="352" on="1"/>
        <pt x="772" y="377" on="0"/>
        <pt x="771" y="466" on="0"/>
        <pt x="769" y="565" on="0"/>
        <pt x="767" y="661" on="0"/>
        <pt x="766" y="694" on="1"/>
        <pt x="516" y="705" on="1"/>
        <pt x="494" y="59" on="1"/>
        <pt x="489" y="-70" on="0"/>
        <pt x="412" y="-294" on="0"/>
        <pt x="278" y="-459" on="0"/>
        <pt x="93" y="-553" on="0"/>
        <pt x="-20" y="-553" on="1"/>
        <pt x="-29" y="-553" on="0"/>
        <pt x="-55" y="-552" on="0"/>
        <pt x="-94" y="-547" on="0"/>
        <pt x="-150" y="-536" on="0"/>
        <pt x="-188" y="-526" on="1"/>
        <pt x="-178" y="-217" on="1"/>
        <pt x="-146" y="-238" on="0"/>
        <pt x="-67" y="-277" on="0"/>
        <pt x="17" y="-307" on="0"/>
        <pt x="101" y="-326" on="0"/>
        <pt x="139" y="-326" on="1"/>
        <pt x="151" y="-294" on="0"/>
        <pt x="167" y="-199" on="0"/>
        <pt x="177" y="-87" on="0"/>
        <pt x="184" y="34" on="0"/>
        <pt x="186" y="92" on="1"/>
        <pt x="211" y="725" on="1"/>
        <pt x="157" y="729" on="0"/>
        <pt x="67" y="736" on="0"/>
        <pt x="35" y="741" on="1"/>
        <pt x="39" y="897" on="1"/>
      </contour>
    </TTGlyph>
    <TTGlyph name="f_k" xMin="-188" yMin="-553" xMax="1847" yMax="1577">
      <contour>
        <pt x="887" y="0" on="1"/>
        <pt x="891" y="30" on="0"/>
        <pt x="902" y="135" on="0"/>
        <pt x="912" y="271" on="0"/>
        <pt x="923" y="432" on="0"/>
        <pt x="932" y="601" on="0"/>
        <pt x="941" y="773" on="0"/>
        <pt x="947" y="933" on="0"/>
        <pt x="950" y="1073" on="0"/>
        <pt x="950" y="1126" on="1"/>
        <pt x="950" y="1147" on="0"/>
        <pt x="949" y="1212" on="0"/>
        <pt x="948" y="1239" on="1"/>
        <pt x="911" y="1258" on="0"/>
        <pt x="812" y="1297" on="0"/>
        <pt x="707" y="1328" on="0"/>
        <pt x="607" y="1348" on="0"/>
        <pt x="569" y="1348" on="1"/>
        <pt x="557" y="1316" on="0"/>
        <pt x="542" y="1219" on="0"/>
        <pt x="532" y="1105" on="0"/>
        <pt x="526" y="984" on="0"/>
        <pt x="524" y="928" on="1"/>
        <pt x="523" y="902" on="1"/>
        <pt x="568" y="904" on="0"/>
        <pt x="655" y="910" on="0"/>
        <pt x="731" y="916" on="0"/>
        <pt x="790" y="923" on="0"/>
        <pt x="805" y="926" on="1"/>
        <pt x="766" y="688" on="1"/>
        <pt x="714" y="688" on="0"/>
        <pt x="586" y="692" on="0"/>
        <pt x="516" y="697" on="1"/>
        <pt x="494" y="59" on="1"/>
        <pt x="489" y="-70" on="0"/>
        <pt x="412" y="-294" on="0"/>
        <pt x="278" y="-459" on="0"/>
        <pt x="93" y="-553" on="0"/>
        <pt x="-20" y="-553" on="1"/>
        <pt x="-29" y="-553" on="0"/>
        <pt x="-55" y="-552" on="0"/>
        <pt x="-94" y="-547" on="0"/>
        <pt x="-150" y="-536" on="0"/>
        <pt x="-188" y="-526" on="1"/>
        <pt x="-178" y="-217" on="1"/>
        <pt x="-146" y="-238" on="0"/>
        <pt x="-67" y="-277" on="0"/>
        <pt x="17" y="-307" on="0"/>
        <pt x="101" y="-326" on="0"/>
        <pt x="139" y="-326" on="1"/>
        <pt x="151" y="-294" on="0"/>
        <pt x="167" y="-199" on="0"/>
        <pt x="177" y="-87" on="0"/>
        <pt x="184" y="34" on="0"/>
        <pt x="186" y="92" on="1"/>
        <pt x="211" y="722" on="1"/>
        <pt x="162" y="727" on="0"/>
        <pt x="73" y="736" on="0"/>
        <pt x="35" y="741" on="1"/>
        <pt x="39" y="897" on="1"/>
        <pt x="218" y="897" on="1"/>
        <pt x="221" y="965" on="1"/>
        <pt x="227" y="1112" on="0"/>
        <pt x="311" y="1340" on="0"/>
        <pt x="446" y="1496" on="0"/>
        <pt x="621" y="1577" on="0"/>
        <pt x="719" y="1577" on="1"/>
        <pt x="743" y="1577" on="0"/>
        <pt x="796" y="1573" on="0"/>
        <pt x="861" y="1560" on="0"/>
        <pt x="939" y="1535" on="0"/>
        <pt x="988" y="1514" on="1"/>
        <pt x="1202" y="1577" on="1"/>
        <pt x="1276" y="1458" on="1"/>
        <pt x="1192" y="674" on="1"/>
        <pt x="1206" y="666" on="1"/>
        <pt x="1284" y="760" on="0"/>
        <pt x="1477" y="894" on="0"/>
        <pt x="1585" y="926" on="1"/>
        <pt x="1743" y="866" on="1"/>
        <pt x="1748" y="849" on="0"/>
        <pt x="1749" y="804" on="0"/>
        <pt x="1749" y="778" on="1"/>
        <pt x="1749" y="737" on="0"/>
        <pt x="1733" y="641" on="0"/>
        <pt x="1696" y="543" on="0"/>
        <pt x="1634" y="449" on="0"/>
        <pt x="1589" y="410" on="1"/>
        <pt x="1686" y="262" on="1"/>
        <pt x="1706" y="265" on="0"/>
        <pt x="1767" y="282" on="0"/>
        <pt x="1792" y="291" on="1"/>
        <pt x="1847" y="133" on="1"/>
        <pt x="1804" y="103" on="0"/>
        <pt x="1694" y="45" on="0"/>
        <pt x="1587" y="-1" on="0"/>
        <pt x="1495" y="-29" on="0"/>
        <pt x="1470" y="-29" on="1"/>
        <pt x="1288" y="332" on="1"/>
        <pt x="1333" y="371" on="0"/>
        <pt x="1394" y="449" on="0"/>
        <pt x="1431" y="525" on="0"/>
        <pt x="1446" y="595" on="0"/>
        <pt x="1446" y="627" on="1"/>
        <pt x="1422" y="623" on="0"/>
        <pt x="1351" y="584" on="0"/>
        <pt x="1285" y="526" on="0"/>
        <pt x="1237" y="455" on="0"/>
        <pt x="1237" y="420" on="1"/>
        <pt x="1231" y="0" on="1"/>
      </contour>
    </TTGlyph>
    <TTGlyph name="f_l" xMin="-188" yMin="-553" xMax="1425" yMax="1577">
      <contour>
        <pt x="1425" y="133" on="1"/>
        <pt x="1393" y="111" on="0"/>
        <pt x="1313" y="69" on="0"/>
        <pt x="1226" y="33" on="0"/>
        <pt x="1140" y="3" on="0"/>
        <pt x="1064" y="-18" on="0"/>
        <pt x="1003" y="-29" on="0"/>
        <pt x="987" y="-29" on="1"/>
        <pt x="887" y="70" on="1"/>
        <pt x="900" y="149" on="0"/>
        <pt x="919" y="335" on="0"/>
        <pt x="933" y="531" on="0"/>
        <pt x="942" y="726" on="0"/>
        <pt x="948" y="904" on="0"/>
        <pt x="950" y="1054" on="0"/>
        <pt x="950" y="1106" on="1"/>
        <pt x="950" y="1132" on="0"/>
        <pt x="948" y="1207" on="0"/>
        <pt x="947" y="1239" on="1"/>
        <pt x="910" y="1258" on="0"/>
        <pt x="811" y="1297" on="0"/>
        <pt x="706" y="1328" on="0"/>
        <pt x="606" y="1348" on="0"/>
        <pt x="569" y="1348" on="1"/>
        <pt x="557" y="1316" on="0"/>
        <pt x="542" y="1219" on="0"/>
        <pt x="532" y="1105" on="0"/>
        <pt x="526" y="984" on="0"/>
        <pt x="524" y="928" on="1"/>
        <pt x="523" y="902" on="1"/>
        <pt x="568" y="904" on="0"/>
        <pt x="655" y="910" on="0"/>
        <pt x="731" y="916" on="0"/>
        <pt x="790" y="923" on="0"/>
        <pt x="805" y="926" on="1"/>
        <pt x="766" y="688" on="1"/>
        <pt x="714" y="688" on="0"/>
        <pt x="586" y="692" on="0"/>
        <pt x="516" y="697" on="1"/>
        <pt x="494" y="59" on="1"/>
        <pt x="489" y="-70" on="0"/>
        <pt x="412" y="-294" on="0"/>
        <pt x="278" y="-459" on="0"/>
        <pt x="93" y="-553" on="0"/>
        <pt x="-20" y="-553" on="1"/>
        <pt x="-29" y="-553" on="0"/>
        <pt x="-55" y="-552" on="0"/>
        <pt x="-94" y="-547" on="0"/>
        <pt x="-150" y="-536" on="0"/>
        <pt x="-188" y="-526" on="1"/>
        <pt x="-178" y="-217" on="1"/>
        <pt x="-146" y="-238" on="0"/>
        <pt x="-67" y="-277" on="0"/>
        <pt x="17" y="-307" on="0"/>
        <pt x="101" y="-326" on="0"/>
        <pt x="139" y="-326" on="1"/>
        <pt x="151" y="-294" on="0"/>
        <pt x="167" y="-199" on="0"/>
        <pt x="177" y="-87" on="0"/>
        <pt x="184" y="34" on="0"/>
        <pt x="186" y="92" on="1"/>
        <pt x="211" y="722" on="1"/>
        <pt x="162" y="727" on="0"/>
        <pt x="73" y="736" on="0"/>
        <pt x="35" y="741" on="1"/>
        <pt x="39" y="897" on="1"/>
        <pt x="218" y="897" on="1"/>
        <pt x="221" y="965" on="1"/>
        <pt x="227" y="1112" on="0"/>
        <pt x="311" y="1340" on="0"/>
        <pt x="446" y="1496" on="0"/>
        <pt x="621" y="1577" on="0"/>
        <pt x="719" y="1577" on="1"/>
        <pt x="743" y="1577" on="0"/>
        <pt x="797" y="1573" on="0"/>
        <pt x="861" y="1560" on="0"/>
        <pt x="939" y="1535" on="0"/>
        <pt x="989" y="1513" on="1"/>
        <pt x="1210" y="1577" on="1"/>
        <pt x="1284" y="1458" on="1"/>
        <pt x="1255" y="1212" on="0"/>
        <pt x="1229" y="723" on="0"/>
        <pt x="1229" y="472" on="1"/>
        <pt x="1229" y="418" on="0"/>
        <pt x="1230" y="312" on="0"/>
        <pt x="1231" y="258" on="1"/>
        <pt x="1266" y="264" on="0"/>
        <pt x="1342" y="280" on="0"/>
        <pt x="1370" y="291" on="1"/>
      </contour>
    </TTGlyph>
    <TTGlyph name="five" xMin="-18" yMin="-41" xMax="1040" yMax="1548">
      <contour>
        <pt x="422" y="215" on="1"/>
        <pt x="468" y="215" on="0"/>
        <pt x="549" y="243" on="0"/>
        <pt x="609" y="302" on="0"/>
        <pt x="643" y="393" on="0"/>
        <pt x="643" y="457" on="1"/>
        <pt x="643" y="496" on="0"/>
        <pt x="616" y="571" on="0"/>
        <pt x="560" y="631" on="0"/>
        <pt x="472" y="667" on="0"/>
        <pt x="412" y="667" on="1"/>
        <pt x="373" y="667" on="0"/>
        <pt x="290" y="653" on="0"/>
        <pt x="262" y="644" on="1"/>
        <pt x="162" y="771" on="1"/>
        <pt x="240" y="1397" on="1"/>
        <pt x="768" y="1397" on="1"/>
        <pt x="868" y="1548" on="1"/>
        <pt x="1040" y="1475" on="1"/>
        <pt x="1028" y="1440" on="0"/>
        <pt x="1009" y="1378" on="0"/>
        <pt x="991" y="1313" on="0"/>
        <pt x="971" y="1242" on="0"/>
        <pt x="958" y="1197" on="1"/>
        <pt x="434" y="1132" on="1"/>
        <pt x="403" y="885" on="1"/>
        <pt x="442" y="896" on="0"/>
        <pt x="524" y="906" on="0"/>
        <pt x="567" y="906" on="1"/>
        <pt x="647" y="906" on="0"/>
        <pt x="801" y="859" on="0"/>
        <pt x="923" y="764" on="0"/>
        <pt x="997" y="621" on="0"/>
        <pt x="997" y="524" on="1"/>
        <pt x="997" y="407" on="0"/>
        <pt x="895" y="202" on="0"/>
        <pt x="719" y="48" on="0"/>
        <pt x="483" y="-41" on="0"/>
        <pt x="348" y="-41" on="1"/>
        <pt x="301" y="-41" on="0"/>
        <pt x="201" y="-27" on="0"/>
        <pt x="104" y="1" on="0"/>
        <pt x="16" y="43" on="0"/>
        <pt x="-18" y="72" on="1"/>
        <pt x="135" y="352" on="1"/>
        <pt x="172" y="312" on="0"/>
        <pt x="244" y="259" on="0"/>
        <pt x="316" y="228" on="0"/>
        <pt x="387" y="215" on="0"/>
      </contour>
    </TTGlyph>
    <TTGlyph name="four" xMin="0" yMin="-6" xMax="1157" yMax="1432">
      <contour>
        <pt x="553" y="201" on="1"/>
        <pt x="556" y="241" on="0"/>
        <pt x="562" y="338" on="0"/>
        <pt x="564" y="393" on="1"/>
        <pt x="0" y="393" on="1"/>
        <pt x="6" y="614" on="1"/>
        <pt x="727" y="1432" on="1"/>
        <pt x="930" y="1356" on="1"/>
        <pt x="927" y="1325" on="0"/>
        <pt x="922" y="1230" on="0"/>
        <pt x="917" y="1112" on="0"/>
        <pt x="912" y="977" on="0"/>
        <pt x="907" y="836" on="0"/>
        <pt x="903" y="692" on="0"/>
        <pt x="902" y="624" on="1"/>
        <pt x="958" y="627" on="0"/>
        <pt x="1051" y="634" on="0"/>
        <pt x="1085" y="636" on="1"/>
        <pt x="1125" y="639" on="0"/>
        <pt x="1157" y="641" on="1"/>
        <pt x="1090" y="393" on="1"/>
        <pt x="898" y="393" on="1"/>
        <pt x="897" y="360" on="0"/>
        <pt x="897" y="304" on="0"/>
        <pt x="897" y="285" on="1"/>
        <pt x="1067" y="170" on="1"/>
        <pt x="1061" y="-6" on="1"/>
        <pt x="1001" y="-2" on="0"/>
        <pt x="939" y="2" on="1"/>
        <pt x="886" y="5" on="0"/>
        <pt x="761" y="10" on="0"/>
        <pt x="705" y="10" on="1"/>
        <pt x="651" y="10" on="0"/>
        <pt x="489" y="6" on="0"/>
        <pt x="379" y="-6" on="1"/>
        <pt x="385" y="188" on="1"/>
        <pt x="411" y="191" on="0"/>
        <pt x="440" y="194" on="1"/>
        <pt x="464" y="196" on="0"/>
        <pt x="524" y="201" on="0"/>
      </contour>
      <contour>
        <pt x="264" y="602" on="1"/>
        <pt x="336" y="602" on="0"/>
        <pt x="492" y="605" on="0"/>
        <pt x="572" y="608" on="1"/>
        <pt x="575" y="705" on="0"/>
        <pt x="578" y="880" on="0"/>
        <pt x="578" y="942" on="1"/>
      </contour>
    </TTGlyph>
    <TTGlyph name="foursuperior" xMin="84" yMin="807" xMax="705" yMax="1577">
      <contour>
        <pt x="373" y="930" on="1"/>
        <pt x="375" y="950" on="0"/>
        <pt x="377" y="996" on="0"/>
        <pt x="378" y="1022" on="1"/>
        <pt x="84" y="1022" on="1"/>
        <pt x="86" y="1141" on="1"/>
        <pt x="471" y="1577" on="1"/>
        <pt x="590" y="1538" on="1"/>
        <pt x="587" y="1512" on="0"/>
        <pt x="583" y="1425" on="0"/>
        <pt x="579" y="1320" on="0"/>
        <pt x="576" y="1205" on="0"/>
        <pt x="575" y="1152" on="1"/>
        <pt x="604" y="1154" on="0"/>
        <pt x="651" y="1156" on="0"/>
        <pt x="668" y="1158" on="1"/>
        <pt x="688" y="1160" on="0"/>
        <pt x="705" y="1161" on="1"/>
        <pt x="668" y="1022" on="1"/>
        <pt x="573" y="1022" on="1"/>
        <pt x="573" y="975" on="1"/>
        <pt x="664" y="913" on="1"/>
        <pt x="659" y="807" on="1"/>
        <pt x="624" y="809" on="0"/>
        <pt x="591" y="812" on="1"/>
        <pt x="562" y="814" on="0"/>
        <pt x="496" y="817" on="0"/>
        <pt x="469" y="817" on="1"/>
        <pt x="443" y="817" on="0"/>
        <pt x="344" y="815" on="0"/>
        <pt x="281" y="807" on="1"/>
        <pt x="285" y="924" on="1"/>
        <pt x="299" y="925" on="0"/>
        <pt x="314" y="927" on="1"/>
        <pt x="327" y="928" on="0"/>
        <pt x="357" y="930" on="0"/>
      </contour>
      <contour>
        <pt x="231" y="1141" on="1"/>
        <pt x="266" y="1141" on="0"/>
        <pt x="344" y="1142" on="0"/>
        <pt x="383" y="1144" on="1"/>
        <pt x="384" y="1190" on="0"/>
        <pt x="385" y="1277" on="0"/>
        <pt x="385" y="1309" on="1"/>
      </contour>
    </TTGlyph>
    <TTGlyph name="fraction" xMin="-61" yMin="-35" xMax="1061" yMax="1448">
      <contour>
        <pt x="-61" y="63" on="1"/>
        <pt x="942" y="1448" on="1"/>
        <pt x="1061" y="1358" on="1"/>
        <pt x="57" y="-35" on="1"/>
      </contour>
    </TTGlyph>
</ttFont>
